%TF.GenerationSoftware,KiCad,Pcbnew,(6.0.8)*%
%TF.CreationDate,2022-10-21T10:36:38+01:00*%
%TF.ProjectId,Punck_Components,50756e63-6b5f-4436-9f6d-706f6e656e74,rev?*%
%TF.SameCoordinates,Original*%
%TF.FileFunction,Legend,Bot*%
%TF.FilePolarity,Positive*%
%FSLAX46Y46*%
G04 Gerber Fmt 4.6, Leading zero omitted, Abs format (unit mm)*
G04 Created by KiCad (PCBNEW (6.0.8)) date 2022-10-21 10:36:38*
%MOMM*%
%LPD*%
G01*
G04 APERTURE LIST*
%ADD10C,0.150000*%
%ADD11C,0.120000*%
G04 APERTURE END LIST*
D10*
X102914285Y-100652380D02*
X102914285Y-99652380D01*
X102914285Y-100128571D02*
X102342857Y-100128571D01*
X102342857Y-100652380D02*
X102342857Y-99652380D01*
X101961904Y-99652380D02*
X101295238Y-99652380D01*
X101723809Y-100652380D01*
X100485714Y-99985714D02*
X100485714Y-100652380D01*
X100723809Y-99604761D02*
X100961904Y-100319047D01*
X100342857Y-100319047D01*
X100057142Y-99652380D02*
X99438095Y-99652380D01*
X99771428Y-100033333D01*
X99628571Y-100033333D01*
X99533333Y-100080952D01*
X99485714Y-100128571D01*
X99438095Y-100223809D01*
X99438095Y-100461904D01*
X99485714Y-100557142D01*
X99533333Y-100604761D01*
X99628571Y-100652380D01*
X99914285Y-100652380D01*
X100009523Y-100604761D01*
X100057142Y-100557142D01*
X102914285Y-98252380D02*
X102914285Y-97252380D01*
X102914285Y-97728571D02*
X102342857Y-97728571D01*
X102342857Y-98252380D02*
X102342857Y-97252380D01*
X101961904Y-97252380D02*
X101295238Y-97252380D01*
X101723809Y-98252380D01*
X100961904Y-97347619D02*
X100914285Y-97300000D01*
X100819047Y-97252380D01*
X100580952Y-97252380D01*
X100485714Y-97300000D01*
X100438095Y-97347619D01*
X100390476Y-97442857D01*
X100390476Y-97538095D01*
X100438095Y-97680952D01*
X101009523Y-98252380D01*
X100390476Y-98252380D01*
X100057142Y-97252380D02*
X99438095Y-97252380D01*
X99771428Y-97633333D01*
X99628571Y-97633333D01*
X99533333Y-97680952D01*
X99485714Y-97728571D01*
X99438095Y-97823809D01*
X99438095Y-98061904D01*
X99485714Y-98157142D01*
X99533333Y-98204761D01*
X99628571Y-98252380D01*
X99914285Y-98252380D01*
X100009523Y-98204761D01*
X100057142Y-98157142D01*
%TO.C,J3*%
X159433333Y-53122380D02*
X159433333Y-53836666D01*
X159480952Y-53979523D01*
X159576190Y-54074761D01*
X159719047Y-54122380D01*
X159814285Y-54122380D01*
X159052380Y-53122380D02*
X158433333Y-53122380D01*
X158766666Y-53503333D01*
X158623809Y-53503333D01*
X158528571Y-53550952D01*
X158480952Y-53598571D01*
X158433333Y-53693809D01*
X158433333Y-53931904D01*
X158480952Y-54027142D01*
X158528571Y-54074761D01*
X158623809Y-54122380D01*
X158909523Y-54122380D01*
X159004761Y-54074761D01*
X159052380Y-54027142D01*
%TO.C,J1*%
X72433333Y-53122380D02*
X72433333Y-53836666D01*
X72480952Y-53979523D01*
X72576190Y-54074761D01*
X72719047Y-54122380D01*
X72814285Y-54122380D01*
X71433333Y-54122380D02*
X72004761Y-54122380D01*
X71719047Y-54122380D02*
X71719047Y-53122380D01*
X71814285Y-53265238D01*
X71909523Y-53360476D01*
X72004761Y-53408095D01*
%TO.C,J4*%
X159433333Y-109122380D02*
X159433333Y-109836666D01*
X159480952Y-109979523D01*
X159576190Y-110074761D01*
X159719047Y-110122380D01*
X159814285Y-110122380D01*
X158528571Y-109455714D02*
X158528571Y-110122380D01*
X158766666Y-109074761D02*
X159004761Y-109789047D01*
X158385714Y-109789047D01*
%TO.C,J2*%
X72433333Y-109122380D02*
X72433333Y-109836666D01*
X72480952Y-109979523D01*
X72576190Y-110074761D01*
X72719047Y-110122380D01*
X72814285Y-110122380D01*
X72004761Y-109217619D02*
X71957142Y-109170000D01*
X71861904Y-109122380D01*
X71623809Y-109122380D01*
X71528571Y-109170000D01*
X71480952Y-109217619D01*
X71433333Y-109312857D01*
X71433333Y-109408095D01*
X71480952Y-109550952D01*
X72052380Y-110122380D01*
X71433333Y-110122380D01*
D11*
%TO.C,J3*%
X157770000Y-57270000D02*
X157770000Y-85270000D01*
X160430000Y-54670000D02*
X159100000Y-54670000D01*
X160430000Y-57270000D02*
X157770000Y-57270000D01*
X160430000Y-57270000D02*
X160430000Y-85270000D01*
X160430000Y-56000000D02*
X160430000Y-54670000D01*
X160430000Y-85270000D02*
X157770000Y-85270000D01*
%TO.C,J1*%
X70770000Y-57270000D02*
X70770000Y-85270000D01*
X73430000Y-57270000D02*
X73430000Y-85270000D01*
X73430000Y-57270000D02*
X70770000Y-57270000D01*
X73430000Y-85270000D02*
X70770000Y-85270000D01*
X73430000Y-54670000D02*
X72100000Y-54670000D01*
X73430000Y-56000000D02*
X73430000Y-54670000D01*
%TO.C,J4*%
X160430000Y-112000000D02*
X160430000Y-110670000D01*
X160430000Y-110670000D02*
X159100000Y-110670000D01*
X157770000Y-113270000D02*
X157770000Y-141270000D01*
X160430000Y-141270000D02*
X157770000Y-141270000D01*
X160430000Y-113270000D02*
X157770000Y-113270000D01*
X160430000Y-113270000D02*
X160430000Y-141270000D01*
%TO.C,J2*%
X73430000Y-141270000D02*
X70770000Y-141270000D01*
X70770000Y-113270000D02*
X70770000Y-141270000D01*
X73430000Y-112000000D02*
X73430000Y-110670000D01*
X73430000Y-113270000D02*
X70770000Y-113270000D01*
X73430000Y-110670000D02*
X72100000Y-110670000D01*
X73430000Y-113270000D02*
X73430000Y-141270000D01*
%TO.C,JP1*%
X106000000Y-100400000D02*
X106000000Y-97600000D01*
X103800000Y-100200000D02*
X103500000Y-99900000D01*
X103500000Y-100500000D02*
X103500000Y-99900000D01*
X103800000Y-100200000D02*
X103500000Y-100500000D01*
X104700000Y-101050000D02*
X105300000Y-101050000D01*
X104000000Y-97600000D02*
X104000000Y-100400000D01*
X105300000Y-96950000D02*
X104700000Y-96950000D01*
X105300000Y-101050000D02*
G75*
G03*
X106000000Y-100350000I1J699999D01*
G01*
X106000000Y-97650000D02*
G75*
G03*
X105300000Y-96950000I-700000J0D01*
G01*
X104700000Y-96950000D02*
G75*
G03*
X104000000Y-97650000I0J-700000D01*
G01*
X104000000Y-100350000D02*
G75*
G03*
X104700000Y-101050000I699999J-1D01*
G01*
%TD*%
M02*
