%TF.GenerationSoftware,KiCad,Pcbnew,(6.0.8)*%
%TF.CreationDate,2022-10-20T14:54:25+01:00*%
%TF.ProjectId,Punck_Panel,50756e63-6b5f-4506-916e-656c2e6b6963,rev?*%
%TF.SameCoordinates,Original*%
%TF.FileFunction,Legend,Bot*%
%TF.FilePolarity,Positive*%
%FSLAX46Y46*%
G04 Gerber Fmt 4.6, Leading zero omitted, Abs format (unit mm)*
G04 Created by KiCad (PCBNEW (6.0.8)) date 2022-10-20 14:54:25*
%MOMM*%
%LPD*%
G01*
G04 APERTURE LIST*
%ADD10C,0.300000*%
%ADD11C,0.150000*%
G04 APERTURE END LIST*
D10*
X125171428Y-46071071D02*
X125171428Y-44571071D01*
X124671428Y-45642500D01*
X124171428Y-44571071D01*
X124171428Y-46071071D01*
X123242857Y-46071071D02*
X123385714Y-45999642D01*
X123457142Y-45928214D01*
X123528571Y-45785357D01*
X123528571Y-45356785D01*
X123457142Y-45213928D01*
X123385714Y-45142500D01*
X123242857Y-45071071D01*
X123028571Y-45071071D01*
X122885714Y-45142500D01*
X122814285Y-45213928D01*
X122742857Y-45356785D01*
X122742857Y-45785357D01*
X122814285Y-45928214D01*
X122885714Y-45999642D01*
X123028571Y-46071071D01*
X123242857Y-46071071D01*
X121457142Y-45071071D02*
X121457142Y-46071071D01*
X122100000Y-45071071D02*
X122100000Y-45856785D01*
X122028571Y-45999642D01*
X121885714Y-46071071D01*
X121671428Y-46071071D01*
X121528571Y-45999642D01*
X121457142Y-45928214D01*
X120742857Y-45071071D02*
X120742857Y-46071071D01*
X120742857Y-45213928D02*
X120671428Y-45142500D01*
X120528571Y-45071071D01*
X120314285Y-45071071D01*
X120171428Y-45142500D01*
X120100000Y-45285357D01*
X120100000Y-46071071D01*
X119600000Y-45071071D02*
X119028571Y-45071071D01*
X119385714Y-44571071D02*
X119385714Y-45856785D01*
X119314285Y-45999642D01*
X119171428Y-46071071D01*
X119028571Y-46071071D01*
X118528571Y-45071071D02*
X118528571Y-46356785D01*
X118600000Y-46499642D01*
X118742857Y-46571071D01*
X118814285Y-46571071D01*
X118528571Y-44571071D02*
X118600000Y-44642500D01*
X118528571Y-44713928D01*
X118457142Y-44642500D01*
X118528571Y-44571071D01*
X118528571Y-44713928D01*
X117600000Y-46071071D02*
X117742857Y-45999642D01*
X117814285Y-45928214D01*
X117885714Y-45785357D01*
X117885714Y-45356785D01*
X117814285Y-45213928D01*
X117742857Y-45142500D01*
X117600000Y-45071071D01*
X117385714Y-45071071D01*
X117242857Y-45142500D01*
X117171428Y-45213928D01*
X117100000Y-45356785D01*
X117100000Y-45785357D01*
X117171428Y-45928214D01*
X117242857Y-45999642D01*
X117385714Y-46071071D01*
X117600000Y-46071071D01*
X116600000Y-45071071D02*
X116242857Y-46071071D01*
X115885714Y-45071071D02*
X116242857Y-46071071D01*
X116385714Y-46428214D01*
X116457142Y-46499642D01*
X116600000Y-46571071D01*
X114171428Y-46071071D02*
X114171428Y-44571071D01*
X113671428Y-45642500D01*
X113171428Y-44571071D01*
X113171428Y-46071071D01*
X112242857Y-46071071D02*
X112385714Y-45999642D01*
X112457142Y-45928214D01*
X112528571Y-45785357D01*
X112528571Y-45356785D01*
X112457142Y-45213928D01*
X112385714Y-45142500D01*
X112242857Y-45071071D01*
X112028571Y-45071071D01*
X111885714Y-45142500D01*
X111814285Y-45213928D01*
X111742857Y-45356785D01*
X111742857Y-45785357D01*
X111814285Y-45928214D01*
X111885714Y-45999642D01*
X112028571Y-46071071D01*
X112242857Y-46071071D01*
X110457142Y-46071071D02*
X110457142Y-44571071D01*
X110457142Y-45999642D02*
X110600000Y-46071071D01*
X110885714Y-46071071D01*
X111028571Y-45999642D01*
X111100000Y-45928214D01*
X111171428Y-45785357D01*
X111171428Y-45356785D01*
X111100000Y-45213928D01*
X111028571Y-45142500D01*
X110885714Y-45071071D01*
X110600000Y-45071071D01*
X110457142Y-45142500D01*
X109100000Y-45071071D02*
X109100000Y-46071071D01*
X109742857Y-45071071D02*
X109742857Y-45856785D01*
X109671428Y-45999642D01*
X109528571Y-46071071D01*
X109314285Y-46071071D01*
X109171428Y-45999642D01*
X109100000Y-45928214D01*
X108171428Y-46071071D02*
X108314285Y-45999642D01*
X108385714Y-45856785D01*
X108385714Y-44571071D01*
X106957142Y-46071071D02*
X106957142Y-45285357D01*
X107028571Y-45142500D01*
X107171428Y-45071071D01*
X107457142Y-45071071D01*
X107600000Y-45142500D01*
X106957142Y-45999642D02*
X107100000Y-46071071D01*
X107457142Y-46071071D01*
X107600000Y-45999642D01*
X107671428Y-45856785D01*
X107671428Y-45713928D01*
X107600000Y-45571071D01*
X107457142Y-45499642D01*
X107100000Y-45499642D01*
X106957142Y-45428214D01*
X106242857Y-46071071D02*
X106242857Y-45071071D01*
X106242857Y-45356785D02*
X106171428Y-45213928D01*
X106100000Y-45142500D01*
X105957142Y-45071071D01*
X105814285Y-45071071D01*
X125242857Y-48486071D02*
X125242857Y-46986071D01*
X124671428Y-46986071D01*
X124528571Y-47057500D01*
X124457142Y-47128928D01*
X124385714Y-47271785D01*
X124385714Y-47486071D01*
X124457142Y-47628928D01*
X124528571Y-47700357D01*
X124671428Y-47771785D01*
X125242857Y-47771785D01*
X123100000Y-47486071D02*
X123100000Y-48486071D01*
X123742857Y-47486071D02*
X123742857Y-48271785D01*
X123671428Y-48414642D01*
X123528571Y-48486071D01*
X123314285Y-48486071D01*
X123171428Y-48414642D01*
X123100000Y-48343214D01*
X122385714Y-47486071D02*
X122385714Y-48486071D01*
X122385714Y-47628928D02*
X122314285Y-47557500D01*
X122171428Y-47486071D01*
X121957142Y-47486071D01*
X121814285Y-47557500D01*
X121742857Y-47700357D01*
X121742857Y-48486071D01*
X120385714Y-48414642D02*
X120528571Y-48486071D01*
X120814285Y-48486071D01*
X120957142Y-48414642D01*
X121028571Y-48343214D01*
X121100000Y-48200357D01*
X121100000Y-47771785D01*
X121028571Y-47628928D01*
X120957142Y-47557500D01*
X120814285Y-47486071D01*
X120528571Y-47486071D01*
X120385714Y-47557500D01*
X119742857Y-48486071D02*
X119742857Y-46986071D01*
X119600000Y-47914642D02*
X119171428Y-48486071D01*
X119171428Y-47486071D02*
X119742857Y-48057500D01*
X117385714Y-48486071D02*
X117385714Y-46986071D01*
X116814285Y-46986071D01*
X116671428Y-47057500D01*
X116600000Y-47128928D01*
X116528571Y-47271785D01*
X116528571Y-47486071D01*
X116600000Y-47628928D01*
X116671428Y-47700357D01*
X116814285Y-47771785D01*
X117385714Y-47771785D01*
X115242857Y-48486071D02*
X115242857Y-47700357D01*
X115314285Y-47557500D01*
X115457142Y-47486071D01*
X115742857Y-47486071D01*
X115885714Y-47557500D01*
X115242857Y-48414642D02*
X115385714Y-48486071D01*
X115742857Y-48486071D01*
X115885714Y-48414642D01*
X115957142Y-48271785D01*
X115957142Y-48128928D01*
X115885714Y-47986071D01*
X115742857Y-47914642D01*
X115385714Y-47914642D01*
X115242857Y-47843214D01*
X114528571Y-47486071D02*
X114528571Y-48486071D01*
X114528571Y-47628928D02*
X114457142Y-47557500D01*
X114314285Y-47486071D01*
X114100000Y-47486071D01*
X113957142Y-47557500D01*
X113885714Y-47700357D01*
X113885714Y-48486071D01*
X112600000Y-48414642D02*
X112742857Y-48486071D01*
X113028571Y-48486071D01*
X113171428Y-48414642D01*
X113242857Y-48271785D01*
X113242857Y-47700357D01*
X113171428Y-47557500D01*
X113028571Y-47486071D01*
X112742857Y-47486071D01*
X112600000Y-47557500D01*
X112528571Y-47700357D01*
X112528571Y-47843214D01*
X113242857Y-47986071D01*
X111671428Y-48486071D02*
X111814285Y-48414642D01*
X111885714Y-48271785D01*
X111885714Y-46986071D01*
X110100000Y-47486071D02*
X109742857Y-48486071D01*
X109385714Y-47486071D01*
X108028571Y-48486071D02*
X108885714Y-48486071D01*
X108457142Y-48486071D02*
X108457142Y-46986071D01*
X108600000Y-47200357D01*
X108742857Y-47343214D01*
X108885714Y-47414642D01*
X107385714Y-48343214D02*
X107314285Y-48414642D01*
X107385714Y-48486071D01*
X107457142Y-48414642D01*
X107385714Y-48343214D01*
X107385714Y-48486071D01*
X106385714Y-46986071D02*
X106242857Y-46986071D01*
X106100000Y-47057500D01*
X106028571Y-47128928D01*
X105957142Y-47271785D01*
X105885714Y-47557500D01*
X105885714Y-47914642D01*
X105957142Y-48200357D01*
X106028571Y-48343214D01*
X106100000Y-48414642D01*
X106242857Y-48486071D01*
X106385714Y-48486071D01*
X106528571Y-48414642D01*
X106600000Y-48343214D01*
X106671428Y-48200357D01*
X106742857Y-47914642D01*
X106742857Y-47557500D01*
X106671428Y-47271785D01*
X106600000Y-47128928D01*
X106528571Y-47057500D01*
X106385714Y-46986071D01*
D11*
X120219047Y-164952380D02*
X120219047Y-165666666D01*
X120266666Y-165809523D01*
X120361904Y-165904761D01*
X120504761Y-165952380D01*
X120600000Y-165952380D01*
X119266666Y-165952380D02*
X119742857Y-165952380D01*
X119742857Y-164952380D01*
X118361904Y-165857142D02*
X118409523Y-165904761D01*
X118552380Y-165952380D01*
X118647619Y-165952380D01*
X118790476Y-165904761D01*
X118885714Y-165809523D01*
X118933333Y-165714285D01*
X118980952Y-165523809D01*
X118980952Y-165380952D01*
X118933333Y-165190476D01*
X118885714Y-165095238D01*
X118790476Y-165000000D01*
X118647619Y-164952380D01*
X118552380Y-164952380D01*
X118409523Y-165000000D01*
X118361904Y-165047619D01*
X117647619Y-164952380D02*
X117647619Y-165666666D01*
X117695238Y-165809523D01*
X117790476Y-165904761D01*
X117933333Y-165952380D01*
X118028571Y-165952380D01*
X116695238Y-165952380D02*
X117171428Y-165952380D01*
X117171428Y-164952380D01*
X115790476Y-165857142D02*
X115838095Y-165904761D01*
X115980952Y-165952380D01*
X116076190Y-165952380D01*
X116219047Y-165904761D01*
X116314285Y-165809523D01*
X116361904Y-165714285D01*
X116409523Y-165523809D01*
X116409523Y-165380952D01*
X116361904Y-165190476D01*
X116314285Y-165095238D01*
X116219047Y-165000000D01*
X116076190Y-164952380D01*
X115980952Y-164952380D01*
X115838095Y-165000000D01*
X115790476Y-165047619D01*
X115076190Y-164952380D02*
X115076190Y-165666666D01*
X115123809Y-165809523D01*
X115219047Y-165904761D01*
X115361904Y-165952380D01*
X115457142Y-165952380D01*
X114123809Y-165952380D02*
X114600000Y-165952380D01*
X114600000Y-164952380D01*
X113219047Y-165857142D02*
X113266666Y-165904761D01*
X113409523Y-165952380D01*
X113504761Y-165952380D01*
X113647619Y-165904761D01*
X113742857Y-165809523D01*
X113790476Y-165714285D01*
X113838095Y-165523809D01*
X113838095Y-165380952D01*
X113790476Y-165190476D01*
X113742857Y-165095238D01*
X113647619Y-165000000D01*
X113504761Y-164952380D01*
X113409523Y-164952380D01*
X113266666Y-165000000D01*
X113219047Y-165047619D01*
X112504761Y-164952380D02*
X112504761Y-165666666D01*
X112552380Y-165809523D01*
X112647619Y-165904761D01*
X112790476Y-165952380D01*
X112885714Y-165952380D01*
X111552380Y-165952380D02*
X112028571Y-165952380D01*
X112028571Y-164952380D01*
X110647619Y-165857142D02*
X110695238Y-165904761D01*
X110838095Y-165952380D01*
X110933333Y-165952380D01*
X111076190Y-165904761D01*
X111171428Y-165809523D01*
X111219047Y-165714285D01*
X111266666Y-165523809D01*
X111266666Y-165380952D01*
X111219047Y-165190476D01*
X111171428Y-165095238D01*
X111076190Y-165000000D01*
X110933333Y-164952380D01*
X110838095Y-164952380D01*
X110695238Y-165000000D01*
X110647619Y-165047619D01*
M02*
