M48
; DRILL file {KiCad (6.0.8)} date Thu Oct 20 14:54:32 2022
; FORMAT={-:-/ absolute / inch / decimal}
; #@! TF.CreationDate,2022-10-20T14:54:32+01:00
; #@! TF.GenerationSoftware,Kicad,Pcbnew,(6.0.8)
; #@! TF.FileFunction,NonPlated,1,2,NPTH
FMAT,2
INCH
; #@! TA.AperFunction,NonPlated,NPTH,ComponentDrill
T1C0.1260
; #@! TA.AperFunction,NonPlated,NPTH,ComponentDrill
T2C0.1969
; #@! TA.AperFunction,NonPlated,NPTH,ComponentDrill
T3C0.2362
; #@! TA.AperFunction,NonPlated,NPTH,ComponentDrill
T4C0.2520
; #@! TA.AperFunction,NonPlated,NPTH,ComponentDrill
T5C0.2756
; #@! TA.AperFunction,NonPlated,NPTH,ComponentDrill
T6C0.3937
%
G90
G05
T2
X4.5512Y-2.9606
T3
X3.1732Y-5.2362
X3.748Y-5.9094
X3.8622Y-5.2362
X4.3543Y-5.2362
X4.3543Y-5.9094
X4.748Y-5.2362
X4.748Y-5.9094
X5.2443Y-5.235
X5.3701Y-5.9094
X5.9291Y-5.2362
T4
X3.1732Y-3.7992
X3.1732Y-4.6063
X3.8622Y-3.7992
X3.8622Y-4.6063
X4.5512Y-4.6063
X5.2402Y-3.7992
X5.2402Y-4.6063
X5.9291Y-3.7992
X5.9291Y-4.6063
T5
X3.1732Y-2.9921
X3.8622Y-2.9921
X4.5512Y-3.7992
X5.2402Y-2.9921
X5.9291Y-2.9921
X5.9488Y-5.9055
T6
X3.1732Y-2.3071
X3.8622Y-2.3071
X4.5512Y-2.3071
X5.2402Y-2.3071
X5.9291Y-2.3071
T1
G00X3.0157Y-1.7224
M15
G01X3.0866Y-1.7224
M16
G05
G00X3.0157Y-6.5453
M15
G01X3.0866Y-6.5453
M16
G05
G00X6.0157Y-1.7224
M15
G01X6.0866Y-1.7224
M16
G05
G00X6.0157Y-6.5453
M15
G01X6.0866Y-6.5453
M16
G05
T0
M30
