G04 %TF.GenerationSoftware,KiCad,Pcbnew,(6.0.8)@% jlc*
G04 %TF.CreationDate,2022-10-20T13:21:54+01:00@% jlc*
G04 %TF.ProjectId,Punck_Components,50756e63-6b5f-4436-9f6d-706f6e656e74,rev?@% jlc*
G04 %TF.SameCoordinates,Original@% jlc*
G04 %TF.FileFunction,Legend,Top@% jlc*
G04 %TF.FilePolarity,Positive@% jlc*
%FSLAX46Y46*%
G04 Gerber Fmt 4.6, Leading zero omitted, Abs format (unit mm)*
G04 Created by KiCad (PCBNEW (6.0.8)) date 2022-10-20 13:21:54*
%MOMM*%
%LPD*%
G01*
G04 APERTURE LIST*
%ADD10C,0.200000*%
%ADD11C,0.640685*%
%ADD12C,0.150000*%
%ADD13C,0.120000*%
%ADD14C,0.100000*%
G04 APERTURE END LIST*
D10*
X71568095Y-145447380D02*
X71568095Y-144447380D01*
X71901428Y-145161666D01*
X72234761Y-144447380D01*
X72234761Y-145447380D01*
X72853809Y-145447380D02*
X72758571Y-145399761D01*
X72710952Y-145352142D01*
X72663333Y-145256904D01*
X72663333Y-144971190D01*
X72710952Y-144875952D01*
X72758571Y-144828333D01*
X72853809Y-144780714D01*
X72996666Y-144780714D01*
X73091904Y-144828333D01*
X73139523Y-144875952D01*
X73187142Y-144971190D01*
X73187142Y-145256904D01*
X73139523Y-145352142D01*
X73091904Y-145399761D01*
X72996666Y-145447380D01*
X72853809Y-145447380D01*
X74044285Y-144780714D02*
X74044285Y-145447380D01*
X73615714Y-144780714D02*
X73615714Y-145304523D01*
X73663333Y-145399761D01*
X73758571Y-145447380D01*
X73901428Y-145447380D01*
X73996666Y-145399761D01*
X74044285Y-145352142D01*
X74520476Y-144780714D02*
X74520476Y-145447380D01*
X74520476Y-144875952D02*
X74568095Y-144828333D01*
X74663333Y-144780714D01*
X74806190Y-144780714D01*
X74901428Y-144828333D01*
X74949047Y-144923571D01*
X74949047Y-145447380D01*
X75282380Y-144780714D02*
X75663333Y-144780714D01*
X75425238Y-144447380D02*
X75425238Y-145304523D01*
X75472857Y-145399761D01*
X75568095Y-145447380D01*
X75663333Y-145447380D01*
X75996666Y-144780714D02*
X75996666Y-145637857D01*
X75949047Y-145733095D01*
X75853809Y-145780714D01*
X75806190Y-145780714D01*
X75996666Y-144447380D02*
X75949047Y-144495000D01*
X75996666Y-144542619D01*
X76044285Y-144495000D01*
X75996666Y-144447380D01*
X75996666Y-144542619D01*
X76615714Y-145447380D02*
X76520476Y-145399761D01*
X76472857Y-145352142D01*
X76425238Y-145256904D01*
X76425238Y-144971190D01*
X76472857Y-144875952D01*
X76520476Y-144828333D01*
X76615714Y-144780714D01*
X76758571Y-144780714D01*
X76853809Y-144828333D01*
X76901428Y-144875952D01*
X76949047Y-144971190D01*
X76949047Y-145256904D01*
X76901428Y-145352142D01*
X76853809Y-145399761D01*
X76758571Y-145447380D01*
X76615714Y-145447380D01*
X77282380Y-144780714D02*
X77520476Y-145447380D01*
X77758571Y-144780714D02*
X77520476Y-145447380D01*
X77425238Y-145685476D01*
X77377619Y-145733095D01*
X77282380Y-145780714D01*
X78901428Y-145447380D02*
X78901428Y-144447380D01*
X79234761Y-145161666D01*
X79568095Y-144447380D01*
X79568095Y-145447380D01*
X80187142Y-145447380D02*
X80091904Y-145399761D01*
X80044285Y-145352142D01*
X79996666Y-145256904D01*
X79996666Y-144971190D01*
X80044285Y-144875952D01*
X80091904Y-144828333D01*
X80187142Y-144780714D01*
X80330000Y-144780714D01*
X80425238Y-144828333D01*
X80472857Y-144875952D01*
X80520476Y-144971190D01*
X80520476Y-145256904D01*
X80472857Y-145352142D01*
X80425238Y-145399761D01*
X80330000Y-145447380D01*
X80187142Y-145447380D01*
X81377619Y-145447380D02*
X81377619Y-144447380D01*
X81377619Y-145399761D02*
X81282380Y-145447380D01*
X81091904Y-145447380D01*
X80996666Y-145399761D01*
X80949047Y-145352142D01*
X80901428Y-145256904D01*
X80901428Y-144971190D01*
X80949047Y-144875952D01*
X80996666Y-144828333D01*
X81091904Y-144780714D01*
X81282380Y-144780714D01*
X81377619Y-144828333D01*
X82282380Y-144780714D02*
X82282380Y-145447380D01*
X81853809Y-144780714D02*
X81853809Y-145304523D01*
X81901428Y-145399761D01*
X81996666Y-145447380D01*
X82139523Y-145447380D01*
X82234761Y-145399761D01*
X82282380Y-145352142D01*
X82901428Y-145447380D02*
X82806190Y-145399761D01*
X82758571Y-145304523D01*
X82758571Y-144447380D01*
X83710952Y-145447380D02*
X83710952Y-144923571D01*
X83663333Y-144828333D01*
X83568095Y-144780714D01*
X83377619Y-144780714D01*
X83282380Y-144828333D01*
X83710952Y-145399761D02*
X83615714Y-145447380D01*
X83377619Y-145447380D01*
X83282380Y-145399761D01*
X83234761Y-145304523D01*
X83234761Y-145209285D01*
X83282380Y-145114047D01*
X83377619Y-145066428D01*
X83615714Y-145066428D01*
X83710952Y-145018809D01*
X84187142Y-145447380D02*
X84187142Y-144780714D01*
X84187142Y-144971190D02*
X84234761Y-144875952D01*
X84282380Y-144828333D01*
X84377619Y-144780714D01*
X84472857Y-144780714D01*
X71568095Y-147057380D02*
X71568095Y-146057380D01*
X71949047Y-146057380D01*
X72044285Y-146105000D01*
X72091904Y-146152619D01*
X72139523Y-146247857D01*
X72139523Y-146390714D01*
X72091904Y-146485952D01*
X72044285Y-146533571D01*
X71949047Y-146581190D01*
X71568095Y-146581190D01*
X72996666Y-146390714D02*
X72996666Y-147057380D01*
X72568095Y-146390714D02*
X72568095Y-146914523D01*
X72615714Y-147009761D01*
X72710952Y-147057380D01*
X72853809Y-147057380D01*
X72949047Y-147009761D01*
X72996666Y-146962142D01*
X73472857Y-146390714D02*
X73472857Y-147057380D01*
X73472857Y-146485952D02*
X73520476Y-146438333D01*
X73615714Y-146390714D01*
X73758571Y-146390714D01*
X73853809Y-146438333D01*
X73901428Y-146533571D01*
X73901428Y-147057380D01*
X74806190Y-147009761D02*
X74710952Y-147057380D01*
X74520476Y-147057380D01*
X74425238Y-147009761D01*
X74377619Y-146962142D01*
X74330000Y-146866904D01*
X74330000Y-146581190D01*
X74377619Y-146485952D01*
X74425238Y-146438333D01*
X74520476Y-146390714D01*
X74710952Y-146390714D01*
X74806190Y-146438333D01*
X75234761Y-147057380D02*
X75234761Y-146057380D01*
X75330000Y-146676428D02*
X75615714Y-147057380D01*
X75615714Y-146390714D02*
X75234761Y-146771666D01*
X77377619Y-146962142D02*
X77330000Y-147009761D01*
X77187142Y-147057380D01*
X77091904Y-147057380D01*
X76949047Y-147009761D01*
X76853809Y-146914523D01*
X76806190Y-146819285D01*
X76758571Y-146628809D01*
X76758571Y-146485952D01*
X76806190Y-146295476D01*
X76853809Y-146200238D01*
X76949047Y-146105000D01*
X77091904Y-146057380D01*
X77187142Y-146057380D01*
X77330000Y-146105000D01*
X77377619Y-146152619D01*
X77949047Y-147057380D02*
X77853809Y-147009761D01*
X77806190Y-146962142D01*
X77758571Y-146866904D01*
X77758571Y-146581190D01*
X77806190Y-146485952D01*
X77853809Y-146438333D01*
X77949047Y-146390714D01*
X78091904Y-146390714D01*
X78187142Y-146438333D01*
X78234761Y-146485952D01*
X78282380Y-146581190D01*
X78282380Y-146866904D01*
X78234761Y-146962142D01*
X78187142Y-147009761D01*
X78091904Y-147057380D01*
X77949047Y-147057380D01*
X78710952Y-147057380D02*
X78710952Y-146390714D01*
X78710952Y-146485952D02*
X78758571Y-146438333D01*
X78853809Y-146390714D01*
X78996666Y-146390714D01*
X79091904Y-146438333D01*
X79139523Y-146533571D01*
X79139523Y-147057380D01*
X79139523Y-146533571D02*
X79187142Y-146438333D01*
X79282380Y-146390714D01*
X79425238Y-146390714D01*
X79520476Y-146438333D01*
X79568095Y-146533571D01*
X79568095Y-147057380D01*
X80044285Y-146390714D02*
X80044285Y-147390714D01*
X80044285Y-146438333D02*
X80139523Y-146390714D01*
X80330000Y-146390714D01*
X80425238Y-146438333D01*
X80472857Y-146485952D01*
X80520476Y-146581190D01*
X80520476Y-146866904D01*
X80472857Y-146962142D01*
X80425238Y-147009761D01*
X80330000Y-147057380D01*
X80139523Y-147057380D01*
X80044285Y-147009761D01*
X81091904Y-147057380D02*
X80996666Y-147009761D01*
X80949047Y-146962142D01*
X80901428Y-146866904D01*
X80901428Y-146581190D01*
X80949047Y-146485952D01*
X80996666Y-146438333D01*
X81091904Y-146390714D01*
X81234761Y-146390714D01*
X81330000Y-146438333D01*
X81377619Y-146485952D01*
X81425238Y-146581190D01*
X81425238Y-146866904D01*
X81377619Y-146962142D01*
X81330000Y-147009761D01*
X81234761Y-147057380D01*
X81091904Y-147057380D01*
X81853809Y-146390714D02*
X81853809Y-147057380D01*
X81853809Y-146485952D02*
X81901428Y-146438333D01*
X81996666Y-146390714D01*
X82139523Y-146390714D01*
X82234761Y-146438333D01*
X82282380Y-146533571D01*
X82282380Y-147057380D01*
X83139523Y-147009761D02*
X83044285Y-147057380D01*
X82853809Y-147057380D01*
X82758571Y-147009761D01*
X82710952Y-146914523D01*
X82710952Y-146533571D01*
X82758571Y-146438333D01*
X82853809Y-146390714D01*
X83044285Y-146390714D01*
X83139523Y-146438333D01*
X83187142Y-146533571D01*
X83187142Y-146628809D01*
X82710952Y-146724047D01*
X83615714Y-146390714D02*
X83615714Y-147057380D01*
X83615714Y-146485952D02*
X83663333Y-146438333D01*
X83758571Y-146390714D01*
X83901428Y-146390714D01*
X83996666Y-146438333D01*
X84044285Y-146533571D01*
X84044285Y-147057380D01*
X84377619Y-146390714D02*
X84758571Y-146390714D01*
X84520476Y-146057380D02*
X84520476Y-146914523D01*
X84568095Y-147009761D01*
X84663333Y-147057380D01*
X84758571Y-147057380D01*
X85044285Y-147009761D02*
X85139523Y-147057380D01*
X85330000Y-147057380D01*
X85425238Y-147009761D01*
X85472857Y-146914523D01*
X85472857Y-146866904D01*
X85425238Y-146771666D01*
X85330000Y-146724047D01*
X85187142Y-146724047D01*
X85091904Y-146676428D01*
X85044285Y-146581190D01*
X85044285Y-146533571D01*
X85091904Y-146438333D01*
X85187142Y-146390714D01*
X85330000Y-146390714D01*
X85425238Y-146438333D01*
X86568095Y-146390714D02*
X86806190Y-147057380D01*
X87044285Y-146390714D01*
X87949047Y-147057380D02*
X87377619Y-147057380D01*
X87663333Y-147057380D02*
X87663333Y-146057380D01*
X87568095Y-146200238D01*
X87472857Y-146295476D01*
X87377619Y-146343095D01*
X88377619Y-146962142D02*
X88425238Y-147009761D01*
X88377619Y-147057380D01*
X88330000Y-147009761D01*
X88377619Y-146962142D01*
X88377619Y-147057380D01*
X89044285Y-146057380D02*
X89139523Y-146057380D01*
X89234761Y-146105000D01*
X89282380Y-146152619D01*
X89330000Y-146247857D01*
X89377619Y-146438333D01*
X89377619Y-146676428D01*
X89330000Y-146866904D01*
X89282380Y-146962142D01*
X89234761Y-147009761D01*
X89139523Y-147057380D01*
X89044285Y-147057380D01*
X88949047Y-147009761D01*
X88901428Y-146962142D01*
X88853809Y-146866904D01*
X88806190Y-146676428D01*
X88806190Y-146438333D01*
X88853809Y-146247857D01*
X88901428Y-146152619D01*
X88949047Y-146105000D01*
X89044285Y-146057380D01*
D11*
X126320342Y-81600000D02*
G75*
G03*
X126320342Y-81600000I-320342J0D01*
G01*
X99820342Y-139200000D02*
G75*
G03*
X99820342Y-139200000I-320342J0D01*
G01*
X121920342Y-116000000D02*
G75*
G03*
X121920342Y-116000000I-320342J0D01*
G01*
X99720342Y-94600000D02*
G75*
G03*
X99720342Y-94600000I-320342J0D01*
G01*
X121020342Y-139600000D02*
G75*
G03*
X121020342Y-139600000I-320342J0D01*
G01*
D12*
X74214285Y-69134195D02*
X74214285Y-68134195D01*
X74785714Y-69134195D02*
X74357142Y-68562767D01*
X74785714Y-68134195D02*
X74214285Y-68705624D01*
X75071428Y-68134195D02*
X75404762Y-69134195D01*
X75738095Y-68134195D01*
X76071428Y-69134195D02*
X76071428Y-68134195D01*
X76452381Y-68134195D01*
X76547619Y-68181815D01*
X76595238Y-68229434D01*
X76642857Y-68324672D01*
X76642857Y-68467529D01*
X76595238Y-68562767D01*
X76547619Y-68610386D01*
X76452381Y-68658005D01*
X76071428Y-68658005D01*
D13*
X104952380Y-104561904D02*
X105485714Y-104561904D01*
X105142857Y-105361904D01*
X105714285Y-104561904D02*
X106209523Y-104561904D01*
X105942857Y-104866666D01*
X106057142Y-104866666D01*
X106133333Y-104904761D01*
X106171428Y-104942857D01*
X106209523Y-105019047D01*
X106209523Y-105209523D01*
X106171428Y-105285714D01*
X106133333Y-105323809D01*
X106057142Y-105361904D01*
X105828571Y-105361904D01*
X105752380Y-105323809D01*
X105714285Y-105285714D01*
D12*
X74166667Y-120013850D02*
X74309524Y-120061469D01*
X74547619Y-120061469D01*
X74642857Y-120013850D01*
X74690476Y-119966231D01*
X74738095Y-119870993D01*
X74738095Y-119775755D01*
X74690476Y-119680517D01*
X74642857Y-119632898D01*
X74547619Y-119585279D01*
X74357143Y-119537660D01*
X74261905Y-119490041D01*
X74214286Y-119442422D01*
X74166667Y-119347184D01*
X74166667Y-119251946D01*
X74214286Y-119156708D01*
X74261905Y-119109089D01*
X74357143Y-119061469D01*
X74595238Y-119061469D01*
X74738095Y-119109089D01*
X75500000Y-119537660D02*
X75642857Y-119585279D01*
X75690476Y-119632898D01*
X75738095Y-119728136D01*
X75738095Y-119870993D01*
X75690476Y-119966231D01*
X75642857Y-120013850D01*
X75547619Y-120061469D01*
X75166667Y-120061469D01*
X75166667Y-119061469D01*
X75500000Y-119061469D01*
X75595238Y-119109089D01*
X75642857Y-119156708D01*
X75690476Y-119251946D01*
X75690476Y-119347184D01*
X75642857Y-119442422D01*
X75595238Y-119490041D01*
X75500000Y-119537660D01*
X75166667Y-119537660D01*
X76023810Y-119061469D02*
X76357143Y-120061469D01*
X76690476Y-119061469D01*
X154214286Y-61525106D02*
X154214286Y-60525106D01*
X154785714Y-61525106D02*
X154357143Y-60953678D01*
X154785714Y-60525106D02*
X154214286Y-61096535D01*
X155214286Y-61525106D02*
X155214286Y-60525106D01*
X156023809Y-61001297D02*
X156166666Y-61048916D01*
X156214286Y-61096535D01*
X156261905Y-61191773D01*
X156261905Y-61334630D01*
X156214286Y-61429868D01*
X156166666Y-61477487D01*
X156071428Y-61525106D01*
X155690476Y-61525106D01*
X155690476Y-60525106D01*
X156023809Y-60525106D01*
X156119047Y-60572726D01*
X156166666Y-60620345D01*
X156214286Y-60715583D01*
X156214286Y-60810821D01*
X156166666Y-60906059D01*
X156119047Y-60953678D01*
X156023809Y-61001297D01*
X155690476Y-61001297D01*
X74214285Y-114988743D02*
X74214285Y-113988743D01*
X74214285Y-114464934D02*
X74785714Y-114464934D01*
X74785714Y-114988743D02*
X74785714Y-113988743D01*
X75261904Y-114988743D02*
X75261904Y-113988743D01*
X75261904Y-114464934D02*
X75833333Y-114464934D01*
X75833333Y-114988743D02*
X75833333Y-113988743D01*
X76166666Y-113988743D02*
X76500000Y-114988743D01*
X76833333Y-113988743D01*
X154200000Y-114988743D02*
X154200000Y-113988743D01*
X154771429Y-114988743D02*
X154342857Y-114417315D01*
X154771429Y-113988743D02*
X154200000Y-114560172D01*
X155200000Y-114988743D02*
X155200000Y-113988743D01*
X155676190Y-114988743D02*
X155676190Y-113988743D01*
X156247619Y-114988743D01*
X156247619Y-113988743D01*
X112509523Y-124252380D02*
X112509523Y-123252380D01*
X112747619Y-123252380D01*
X112890476Y-123300000D01*
X112985714Y-123395238D01*
X113033333Y-123490476D01*
X113080952Y-123680952D01*
X113080952Y-123823809D01*
X113033333Y-124014285D01*
X112985714Y-124109523D01*
X112890476Y-124204761D01*
X112747619Y-124252380D01*
X112509523Y-124252380D01*
X113461904Y-123966666D02*
X113938095Y-123966666D01*
X113366666Y-124252380D02*
X113700000Y-123252380D01*
X114033333Y-124252380D01*
X139061904Y-68652380D02*
X139680952Y-68652380D01*
X139347619Y-69033333D01*
X139490476Y-69033333D01*
X139585714Y-69080952D01*
X139633333Y-69128571D01*
X139680952Y-69223809D01*
X139680952Y-69461904D01*
X139633333Y-69557142D01*
X139585714Y-69604761D01*
X139490476Y-69652380D01*
X139204761Y-69652380D01*
X139109523Y-69604761D01*
X139061904Y-69557142D01*
X139966666Y-68652380D02*
X140300000Y-69652380D01*
X140633333Y-68652380D01*
X140871428Y-68652380D02*
X141490476Y-68652380D01*
X141157142Y-69033333D01*
X141300000Y-69033333D01*
X141395238Y-69080952D01*
X141442857Y-69128571D01*
X141490476Y-69223809D01*
X141490476Y-69461904D01*
X141442857Y-69557142D01*
X141395238Y-69604761D01*
X141300000Y-69652380D01*
X141014285Y-69652380D01*
X140919047Y-69604761D01*
X140871428Y-69557142D01*
X141919047Y-69652380D02*
X141919047Y-68652380D01*
X142157142Y-68652380D01*
X142300000Y-68700000D01*
X142395238Y-68795238D01*
X142442857Y-68890476D01*
X142490476Y-69080952D01*
X142490476Y-69223809D01*
X142442857Y-69414285D01*
X142395238Y-69509523D01*
X142300000Y-69604761D01*
X142157142Y-69652380D01*
X141919047Y-69652380D01*
X154723809Y-136863630D02*
X154628571Y-136816010D01*
X154485714Y-136816010D01*
X154342856Y-136863630D01*
X154247618Y-136958868D01*
X154199999Y-137054106D01*
X154152380Y-137244582D01*
X154152380Y-137387439D01*
X154199999Y-137577915D01*
X154247618Y-137673153D01*
X154342856Y-137768391D01*
X154485714Y-137816010D01*
X154580952Y-137816010D01*
X154723809Y-137768391D01*
X154771428Y-137720772D01*
X154771428Y-137387439D01*
X154580952Y-137387439D01*
X155199999Y-137816010D02*
X155199999Y-136816010D01*
X155771428Y-137816010D01*
X155771428Y-136816010D01*
X156247618Y-137816010D02*
X156247618Y-136816010D01*
X156485714Y-136816010D01*
X156628571Y-136863630D01*
X156723809Y-136958868D01*
X156771428Y-137054106D01*
X156819047Y-137244582D01*
X156819047Y-137387439D01*
X156771428Y-137577915D01*
X156723809Y-137673153D01*
X156628571Y-137768391D01*
X156485714Y-137816010D01*
X156247618Y-137816010D01*
X98561904Y-67052380D02*
X98228571Y-66576190D01*
X97990476Y-67052380D02*
X97990476Y-66052380D01*
X98371428Y-66052380D01*
X98466666Y-66100000D01*
X98514285Y-66147619D01*
X98561904Y-66242857D01*
X98561904Y-66385714D01*
X98514285Y-66480952D01*
X98466666Y-66528571D01*
X98371428Y-66576190D01*
X97990476Y-66576190D01*
X99371428Y-67004761D02*
X99276190Y-67052380D01*
X99085714Y-67052380D01*
X98990476Y-67004761D01*
X98942857Y-66909523D01*
X98942857Y-66528571D01*
X98990476Y-66433333D01*
X99085714Y-66385714D01*
X99276190Y-66385714D01*
X99371428Y-66433333D01*
X99419047Y-66528571D01*
X99419047Y-66623809D01*
X98942857Y-66719047D01*
X99800000Y-67004761D02*
X99895238Y-67052380D01*
X100085714Y-67052380D01*
X100180952Y-67004761D01*
X100228571Y-66909523D01*
X100228571Y-66861904D01*
X100180952Y-66766666D01*
X100085714Y-66719047D01*
X99942857Y-66719047D01*
X99847619Y-66671428D01*
X99800000Y-66576190D01*
X99800000Y-66528571D01*
X99847619Y-66433333D01*
X99942857Y-66385714D01*
X100085714Y-66385714D01*
X100180952Y-66433333D01*
X101038095Y-67004761D02*
X100942857Y-67052380D01*
X100752380Y-67052380D01*
X100657142Y-67004761D01*
X100609523Y-66909523D01*
X100609523Y-66528571D01*
X100657142Y-66433333D01*
X100752380Y-66385714D01*
X100942857Y-66385714D01*
X101038095Y-66433333D01*
X101085714Y-66528571D01*
X101085714Y-66623809D01*
X100609523Y-66719047D01*
X101371428Y-66385714D02*
X101752380Y-66385714D01*
X101514285Y-66052380D02*
X101514285Y-66909523D01*
X101561904Y-67004761D01*
X101657142Y-67052380D01*
X101752380Y-67052380D01*
X154200000Y-125134195D02*
X154200000Y-124134195D01*
X154771428Y-125134195D02*
X154342857Y-124562767D01*
X154771428Y-124134195D02*
X154200000Y-124705624D01*
X155200000Y-125134195D02*
X155200000Y-124134195D01*
X156152381Y-125134195D02*
X155676190Y-125134195D01*
X155676190Y-124134195D01*
X74166666Y-61477487D02*
X74309524Y-61525106D01*
X74547619Y-61525106D01*
X74642857Y-61477487D01*
X74690476Y-61429868D01*
X74738095Y-61334630D01*
X74738095Y-61239392D01*
X74690476Y-61144154D01*
X74642857Y-61096535D01*
X74547619Y-61048916D01*
X74357143Y-61001297D01*
X74261904Y-60953678D01*
X74214285Y-60906059D01*
X74166666Y-60810821D01*
X74166666Y-60715583D01*
X74214285Y-60620345D01*
X74261904Y-60572726D01*
X74357143Y-60525106D01*
X74595238Y-60525106D01*
X74738095Y-60572726D01*
X75119047Y-61239392D02*
X75595238Y-61239392D01*
X75023809Y-61525106D02*
X75357143Y-60525106D01*
X75690476Y-61525106D01*
X75880952Y-60525106D02*
X76214285Y-61525106D01*
X76547619Y-60525106D01*
X154214285Y-74206921D02*
X154214285Y-73206921D01*
X154547619Y-73921207D01*
X154880952Y-73206921D01*
X154880952Y-74206921D01*
X155833333Y-74206921D02*
X155357142Y-74206921D01*
X155357142Y-73206921D01*
X156738095Y-74206921D02*
X156404761Y-73730731D01*
X156166666Y-74206921D02*
X156166666Y-73206921D01*
X156547619Y-73206921D01*
X156642857Y-73254541D01*
X156690476Y-73302160D01*
X156738095Y-73397398D01*
X156738095Y-73540255D01*
X156690476Y-73635493D01*
X156642857Y-73683112D01*
X156547619Y-73730731D01*
X156166666Y-73730731D01*
X154166667Y-64013850D02*
X154309524Y-64061469D01*
X154547619Y-64061469D01*
X154642857Y-64013850D01*
X154690476Y-63966231D01*
X154738095Y-63870993D01*
X154738095Y-63775755D01*
X154690476Y-63680517D01*
X154642857Y-63632898D01*
X154547619Y-63585279D01*
X154357143Y-63537660D01*
X154261905Y-63490041D01*
X154214286Y-63442422D01*
X154166667Y-63347184D01*
X154166667Y-63251946D01*
X154214286Y-63156708D01*
X154261905Y-63109089D01*
X154357143Y-63061469D01*
X154595238Y-63061469D01*
X154738095Y-63109089D01*
X155166667Y-64061469D02*
X155166667Y-63061469D01*
X155738095Y-64061469D01*
X155738095Y-63061469D01*
X156547619Y-63537660D02*
X156690476Y-63585279D01*
X156738095Y-63632898D01*
X156785714Y-63728136D01*
X156785714Y-63870993D01*
X156738095Y-63966231D01*
X156690476Y-64013850D01*
X156595238Y-64061469D01*
X156214286Y-64061469D01*
X156214286Y-63061469D01*
X156547619Y-63061469D01*
X156642857Y-63109089D01*
X156690476Y-63156708D01*
X156738095Y-63251946D01*
X156738095Y-63347184D01*
X156690476Y-63442422D01*
X156642857Y-63490041D01*
X156547619Y-63537660D01*
X156214286Y-63537660D01*
X154738095Y-83400000D02*
X154642857Y-83352380D01*
X154500000Y-83352380D01*
X154357142Y-83400000D01*
X154261904Y-83495238D01*
X154214285Y-83590476D01*
X154166666Y-83780952D01*
X154166666Y-83923809D01*
X154214285Y-84114285D01*
X154261904Y-84209523D01*
X154357142Y-84304761D01*
X154500000Y-84352380D01*
X154595238Y-84352380D01*
X154738095Y-84304761D01*
X154785714Y-84257142D01*
X154785714Y-83923809D01*
X154595238Y-83923809D01*
X155214285Y-84352380D02*
X155214285Y-83352380D01*
X155785714Y-84352380D01*
X155785714Y-83352380D01*
X156261904Y-84352380D02*
X156261904Y-83352380D01*
X156500000Y-83352380D01*
X156642857Y-83400000D01*
X156738095Y-83495238D01*
X156785714Y-83590476D01*
X156833333Y-83780952D01*
X156833333Y-83923809D01*
X156785714Y-84114285D01*
X156738095Y-84209523D01*
X156642857Y-84304761D01*
X156500000Y-84352380D01*
X156261904Y-84352380D01*
X74166666Y-130159302D02*
X74309523Y-130206921D01*
X74547618Y-130206921D01*
X74642856Y-130159302D01*
X74690476Y-130111683D01*
X74738095Y-130016445D01*
X74738095Y-129921207D01*
X74690476Y-129825969D01*
X74642856Y-129778350D01*
X74547618Y-129730731D01*
X74357142Y-129683112D01*
X74261904Y-129635493D01*
X74214285Y-129587874D01*
X74166666Y-129492636D01*
X74166666Y-129397398D01*
X74214285Y-129302160D01*
X74261904Y-129254541D01*
X74357142Y-129206921D01*
X74595237Y-129206921D01*
X74738095Y-129254541D01*
X75499999Y-129683112D02*
X75642856Y-129730731D01*
X75690476Y-129778350D01*
X75738095Y-129873588D01*
X75738095Y-130016445D01*
X75690476Y-130111683D01*
X75642856Y-130159302D01*
X75547618Y-130206921D01*
X75166666Y-130206921D01*
X75166666Y-129206921D01*
X75499999Y-129206921D01*
X75595237Y-129254541D01*
X75642856Y-129302160D01*
X75690476Y-129397398D01*
X75690476Y-129492636D01*
X75642856Y-129587874D01*
X75595237Y-129635493D01*
X75499999Y-129683112D01*
X75166666Y-129683112D01*
X76166666Y-130206921D02*
X76166666Y-129206921D01*
X74071429Y-124134195D02*
X74642857Y-124134195D01*
X74357143Y-125134195D02*
X74357143Y-124134195D01*
X74976191Y-125134195D02*
X74976191Y-124134195D01*
X75309524Y-124848481D01*
X75642857Y-124134195D01*
X75642857Y-125134195D01*
X76119048Y-125134195D02*
X76119048Y-124134195D01*
X76500000Y-124134195D01*
X76595238Y-124181815D01*
X76642857Y-124229434D01*
X76690476Y-124324672D01*
X76690476Y-124467529D01*
X76642857Y-124562767D01*
X76595238Y-124610386D01*
X76500000Y-124658005D01*
X76119048Y-124658005D01*
X154214285Y-76743284D02*
X154214285Y-75743284D01*
X154547619Y-76457570D01*
X154880952Y-75743284D01*
X154880952Y-76743284D01*
X155357143Y-76743284D02*
X155357143Y-75743284D01*
X155833333Y-76743284D02*
X155833333Y-75743284D01*
X156404762Y-76743284D01*
X156404762Y-75743284D01*
X74166667Y-76695665D02*
X74309524Y-76743284D01*
X74547619Y-76743284D01*
X74642857Y-76695665D01*
X74690476Y-76648046D01*
X74738095Y-76552808D01*
X74738095Y-76457570D01*
X74690476Y-76362332D01*
X74642857Y-76314713D01*
X74547619Y-76267094D01*
X74357143Y-76219475D01*
X74261905Y-76171856D01*
X74214286Y-76124237D01*
X74166667Y-76028999D01*
X74166667Y-75933761D01*
X74214286Y-75838523D01*
X74261905Y-75790904D01*
X74357143Y-75743284D01*
X74595238Y-75743284D01*
X74738095Y-75790904D01*
X75500000Y-76219475D02*
X75642857Y-76267094D01*
X75690476Y-76314713D01*
X75738095Y-76409951D01*
X75738095Y-76552808D01*
X75690476Y-76648046D01*
X75642857Y-76695665D01*
X75547619Y-76743284D01*
X75166667Y-76743284D01*
X75166667Y-75743284D01*
X75500000Y-75743284D01*
X75595238Y-75790904D01*
X75642857Y-75838523D01*
X75690476Y-75933761D01*
X75690476Y-76028999D01*
X75642857Y-76124237D01*
X75595238Y-76171856D01*
X75500000Y-76219475D01*
X75166667Y-76219475D01*
X76023810Y-75743284D02*
X76357143Y-76743284D01*
X76690476Y-75743284D01*
X154200000Y-119061469D02*
X154200000Y-119870993D01*
X154247619Y-119966231D01*
X154295238Y-120013850D01*
X154390476Y-120061469D01*
X154580952Y-120061469D01*
X154676190Y-120013850D01*
X154723809Y-119966231D01*
X154771428Y-119870993D01*
X154771428Y-119061469D01*
X155247619Y-120061469D02*
X155247619Y-119061469D01*
X155485714Y-119061469D01*
X155628571Y-119109089D01*
X155723809Y-119204327D01*
X155771428Y-119299565D01*
X155819047Y-119490041D01*
X155819047Y-119632898D01*
X155771428Y-119823374D01*
X155723809Y-119918612D01*
X155628571Y-120013850D01*
X155485714Y-120061469D01*
X155247619Y-120061469D01*
X156247619Y-120061469D02*
X156247619Y-119061469D01*
X156580952Y-119775755D01*
X156914285Y-119061469D01*
X156914285Y-120061469D01*
X154199999Y-116525106D02*
X154199999Y-117334630D01*
X154247618Y-117429868D01*
X154295237Y-117477487D01*
X154390475Y-117525106D01*
X154580952Y-117525106D01*
X154676190Y-117477487D01*
X154723809Y-117429868D01*
X154771428Y-117334630D01*
X154771428Y-116525106D01*
X155247618Y-117525106D02*
X155247618Y-116525106D01*
X155485714Y-116525106D01*
X155628571Y-116572726D01*
X155723809Y-116667964D01*
X155771428Y-116763202D01*
X155819047Y-116953678D01*
X155819047Y-117096535D01*
X155771428Y-117287011D01*
X155723809Y-117382249D01*
X155628571Y-117477487D01*
X155485714Y-117525106D01*
X155247618Y-117525106D01*
X156247618Y-117525106D02*
X156247618Y-116525106D01*
X156628571Y-116525106D01*
X156723809Y-116572726D01*
X156771428Y-116620345D01*
X156819047Y-116715583D01*
X156819047Y-116858440D01*
X156771428Y-116953678D01*
X156723809Y-117001297D01*
X156628571Y-117048916D01*
X156247618Y-117048916D01*
X154166666Y-71622939D02*
X154309523Y-71670558D01*
X154547619Y-71670558D01*
X154642857Y-71622939D01*
X154690476Y-71575320D01*
X154738095Y-71480082D01*
X154738095Y-71384844D01*
X154690476Y-71289606D01*
X154642857Y-71241987D01*
X154547619Y-71194368D01*
X154357143Y-71146749D01*
X154261904Y-71099130D01*
X154214285Y-71051511D01*
X154166666Y-70956273D01*
X154166666Y-70861035D01*
X154214285Y-70765797D01*
X154261904Y-70718178D01*
X154357143Y-70670558D01*
X154595238Y-70670558D01*
X154738095Y-70718178D01*
X155500000Y-71146749D02*
X155642857Y-71194368D01*
X155690476Y-71241987D01*
X155738095Y-71337225D01*
X155738095Y-71480082D01*
X155690476Y-71575320D01*
X155642857Y-71622939D01*
X155547619Y-71670558D01*
X155166666Y-71670558D01*
X155166666Y-70670558D01*
X155500000Y-70670558D01*
X155595238Y-70718178D01*
X155642857Y-70765797D01*
X155690476Y-70861035D01*
X155690476Y-70956273D01*
X155642857Y-71051511D01*
X155595238Y-71099130D01*
X155500000Y-71146749D01*
X155166666Y-71146749D01*
X156642857Y-71670558D02*
X156166666Y-71670558D01*
X156166666Y-70670558D01*
X124414285Y-69052380D02*
X124414285Y-69861904D01*
X124461904Y-69957142D01*
X124509523Y-70004761D01*
X124604761Y-70052380D01*
X124795238Y-70052380D01*
X124890476Y-70004761D01*
X124938095Y-69957142D01*
X124985714Y-69861904D01*
X124985714Y-69052380D01*
X126033333Y-70052380D02*
X125700000Y-69576190D01*
X125461904Y-70052380D02*
X125461904Y-69052380D01*
X125842857Y-69052380D01*
X125938095Y-69100000D01*
X125985714Y-69147619D01*
X126033333Y-69242857D01*
X126033333Y-69385714D01*
X125985714Y-69480952D01*
X125938095Y-69528571D01*
X125842857Y-69576190D01*
X125461904Y-69576190D01*
X74166667Y-137530296D02*
X74642857Y-137530296D01*
X74071429Y-137816010D02*
X74404762Y-136816010D01*
X74738095Y-137816010D01*
X75261905Y-136816010D02*
X75452381Y-136816010D01*
X75547619Y-136863630D01*
X75642857Y-136958868D01*
X75690476Y-137149344D01*
X75690476Y-137482677D01*
X75642857Y-137673153D01*
X75547619Y-137768391D01*
X75452381Y-137816010D01*
X75261905Y-137816010D01*
X75166667Y-137768391D01*
X75071429Y-137673153D01*
X75023810Y-137482677D01*
X75023810Y-137149344D01*
X75071429Y-136958868D01*
X75166667Y-136863630D01*
X75261905Y-136816010D01*
X76595238Y-137816010D02*
X76119048Y-137816010D01*
X76119048Y-136816010D01*
X154152380Y-132695665D02*
X154295237Y-132743284D01*
X154533333Y-132743284D01*
X154628571Y-132695665D01*
X154676190Y-132648046D01*
X154723809Y-132552808D01*
X154723809Y-132457570D01*
X154676190Y-132362332D01*
X154628571Y-132314713D01*
X154533333Y-132267094D01*
X154342856Y-132219475D01*
X154247618Y-132171856D01*
X154199999Y-132124237D01*
X154152380Y-132028999D01*
X154152380Y-131933761D01*
X154199999Y-131838523D01*
X154247618Y-131790904D01*
X154342856Y-131743284D01*
X154580952Y-131743284D01*
X154723809Y-131790904D01*
X155819047Y-132838523D02*
X155723809Y-132790904D01*
X155628571Y-132695665D01*
X155485714Y-132552808D01*
X155390475Y-132505189D01*
X155295237Y-132505189D01*
X155342856Y-132743284D02*
X155247618Y-132695665D01*
X155152380Y-132600427D01*
X155104761Y-132409951D01*
X155104761Y-132076618D01*
X155152380Y-131886142D01*
X155247618Y-131790904D01*
X155342856Y-131743284D01*
X155533333Y-131743284D01*
X155628571Y-131790904D01*
X155723809Y-131886142D01*
X155771428Y-132076618D01*
X155771428Y-132409951D01*
X155723809Y-132600427D01*
X155628571Y-132695665D01*
X155533333Y-132743284D01*
X155342856Y-132743284D01*
X156152380Y-132695665D02*
X156295237Y-132743284D01*
X156533333Y-132743284D01*
X156628571Y-132695665D01*
X156676190Y-132648046D01*
X156723809Y-132552808D01*
X156723809Y-132457570D01*
X156676190Y-132362332D01*
X156628571Y-132314713D01*
X156533333Y-132267094D01*
X156342856Y-132219475D01*
X156247618Y-132171856D01*
X156199999Y-132124237D01*
X156152380Y-132028999D01*
X156152380Y-131933761D01*
X156199999Y-131838523D01*
X156247618Y-131790904D01*
X156342856Y-131743284D01*
X156580952Y-131743284D01*
X156723809Y-131790904D01*
X154166667Y-58941124D02*
X154309524Y-58988743D01*
X154547619Y-58988743D01*
X154642857Y-58941124D01*
X154690476Y-58893505D01*
X154738095Y-58798267D01*
X154738095Y-58703029D01*
X154690476Y-58607791D01*
X154642857Y-58560172D01*
X154547619Y-58512553D01*
X154357143Y-58464934D01*
X154261905Y-58417315D01*
X154214286Y-58369696D01*
X154166667Y-58274458D01*
X154166667Y-58179220D01*
X154214286Y-58083982D01*
X154261905Y-58036363D01*
X154357143Y-57988743D01*
X154595238Y-57988743D01*
X154738095Y-58036363D01*
X155119048Y-58703029D02*
X155595238Y-58703029D01*
X155023810Y-58988743D02*
X155357143Y-57988743D01*
X155690476Y-58988743D01*
X156357143Y-58464934D02*
X156500000Y-58512553D01*
X156547619Y-58560172D01*
X156595238Y-58655410D01*
X156595238Y-58798267D01*
X156547619Y-58893505D01*
X156500000Y-58941124D01*
X156404762Y-58988743D01*
X156023810Y-58988743D01*
X156023810Y-57988743D01*
X156357143Y-57988743D01*
X156452381Y-58036363D01*
X156500000Y-58083982D01*
X156547619Y-58179220D01*
X156547619Y-58274458D01*
X156500000Y-58369696D01*
X156452381Y-58417315D01*
X156357143Y-58464934D01*
X156023810Y-58464934D01*
X144938095Y-148100000D02*
X144842857Y-148052380D01*
X144700000Y-148052380D01*
X144557142Y-148100000D01*
X144461904Y-148195238D01*
X144414285Y-148290476D01*
X144366666Y-148480952D01*
X144366666Y-148623809D01*
X144414285Y-148814285D01*
X144461904Y-148909523D01*
X144557142Y-149004761D01*
X144700000Y-149052380D01*
X144795238Y-149052380D01*
X144938095Y-149004761D01*
X144985714Y-148957142D01*
X144985714Y-148623809D01*
X144795238Y-148623809D01*
X145414285Y-149052380D02*
X145414285Y-148052380D01*
X145985714Y-149052380D01*
X145985714Y-148052380D01*
X146461904Y-149052380D02*
X146461904Y-148052380D01*
X146700000Y-148052380D01*
X146842857Y-148100000D01*
X146938095Y-148195238D01*
X146985714Y-148290476D01*
X147033333Y-148480952D01*
X147033333Y-148623809D01*
X146985714Y-148814285D01*
X146938095Y-148909523D01*
X146842857Y-149004761D01*
X146700000Y-149052380D01*
X146461904Y-149052380D01*
X129461904Y-70052380D02*
X129461904Y-69052380D01*
X129700000Y-69052380D01*
X129842857Y-69100000D01*
X129938095Y-69195238D01*
X129985714Y-69290476D01*
X130033333Y-69480952D01*
X130033333Y-69623809D01*
X129985714Y-69814285D01*
X129938095Y-69909523D01*
X129842857Y-70004761D01*
X129700000Y-70052380D01*
X129461904Y-70052380D01*
X130414285Y-69147619D02*
X130461904Y-69100000D01*
X130557142Y-69052380D01*
X130795238Y-69052380D01*
X130890476Y-69100000D01*
X130938095Y-69147619D01*
X130985714Y-69242857D01*
X130985714Y-69338095D01*
X130938095Y-69480952D01*
X130366666Y-70052380D01*
X130985714Y-70052380D01*
X154200000Y-130206921D02*
X154200000Y-129206921D01*
X154200000Y-129683112D02*
X154771428Y-129683112D01*
X154771428Y-130206921D02*
X154771428Y-129206921D01*
X155247619Y-130206921D02*
X155247619Y-129206921D01*
X155247619Y-129683112D02*
X155819047Y-129683112D01*
X155819047Y-130206921D02*
X155819047Y-129206921D01*
X156771428Y-130206921D02*
X156295238Y-130206921D01*
X156295238Y-129206921D01*
X154104761Y-139352380D02*
X154723809Y-139352380D01*
X154390476Y-139733333D01*
X154533333Y-139733333D01*
X154628571Y-139780952D01*
X154676190Y-139828571D01*
X154723809Y-139923809D01*
X154723809Y-140161904D01*
X154676190Y-140257142D01*
X154628571Y-140304761D01*
X154533333Y-140352380D01*
X154247618Y-140352380D01*
X154152380Y-140304761D01*
X154104761Y-140257142D01*
X155009523Y-139352380D02*
X155342857Y-140352380D01*
X155676190Y-139352380D01*
X155961904Y-140066666D02*
X156438095Y-140066666D01*
X155866666Y-140352380D02*
X156199999Y-139352380D01*
X156533333Y-140352380D01*
X74738095Y-111500000D02*
X74642857Y-111452380D01*
X74500000Y-111452380D01*
X74357142Y-111500000D01*
X74261904Y-111595238D01*
X74214285Y-111690476D01*
X74166666Y-111880952D01*
X74166666Y-112023809D01*
X74214285Y-112214285D01*
X74261904Y-112309523D01*
X74357142Y-112404761D01*
X74500000Y-112452380D01*
X74595238Y-112452380D01*
X74738095Y-112404761D01*
X74785714Y-112357142D01*
X74785714Y-112023809D01*
X74595238Y-112023809D01*
X75214285Y-112452380D02*
X75214285Y-111452380D01*
X75785714Y-112452380D01*
X75785714Y-111452380D01*
X76261904Y-112452380D02*
X76261904Y-111452380D01*
X76500000Y-111452380D01*
X76642857Y-111500000D01*
X76738095Y-111595238D01*
X76785714Y-111690476D01*
X76833333Y-111880952D01*
X76833333Y-112023809D01*
X76785714Y-112214285D01*
X76738095Y-112309523D01*
X76642857Y-112404761D01*
X76500000Y-112452380D01*
X76261904Y-112452380D01*
X133238095Y-68700000D02*
X133142857Y-68652380D01*
X133000000Y-68652380D01*
X132857142Y-68700000D01*
X132761904Y-68795238D01*
X132714285Y-68890476D01*
X132666666Y-69080952D01*
X132666666Y-69223809D01*
X132714285Y-69414285D01*
X132761904Y-69509523D01*
X132857142Y-69604761D01*
X133000000Y-69652380D01*
X133095238Y-69652380D01*
X133238095Y-69604761D01*
X133285714Y-69557142D01*
X133285714Y-69223809D01*
X133095238Y-69223809D01*
X133714285Y-69652380D02*
X133714285Y-68652380D01*
X134285714Y-69652380D01*
X134285714Y-68652380D01*
X134761904Y-69652380D02*
X134761904Y-68652380D01*
X135000000Y-68652380D01*
X135142857Y-68700000D01*
X135238095Y-68795238D01*
X135285714Y-68890476D01*
X135333333Y-69080952D01*
X135333333Y-69223809D01*
X135285714Y-69414285D01*
X135238095Y-69509523D01*
X135142857Y-69604761D01*
X135000000Y-69652380D01*
X134761904Y-69652380D01*
X154152381Y-127622939D02*
X154295238Y-127670558D01*
X154533333Y-127670558D01*
X154628571Y-127622939D01*
X154676190Y-127575320D01*
X154723809Y-127480082D01*
X154723809Y-127384844D01*
X154676190Y-127289606D01*
X154628571Y-127241987D01*
X154533333Y-127194368D01*
X154342857Y-127146749D01*
X154247619Y-127099130D01*
X154200000Y-127051511D01*
X154152381Y-126956273D01*
X154152381Y-126861035D01*
X154200000Y-126765797D01*
X154247619Y-126718178D01*
X154342857Y-126670558D01*
X154580952Y-126670558D01*
X154723809Y-126718178D01*
X155152381Y-127670558D02*
X155152381Y-126670558D01*
X155723809Y-127670558D01*
X155723809Y-126670558D01*
X156676190Y-127670558D02*
X156200000Y-127670558D01*
X156200000Y-126670558D01*
X82438095Y-69271428D02*
X83200000Y-69271428D01*
X84200000Y-69652380D02*
X83628571Y-69652380D01*
X83914285Y-69652380D02*
X83914285Y-68652380D01*
X83819047Y-68795238D01*
X83723809Y-68890476D01*
X83628571Y-68938095D01*
X84580952Y-68747619D02*
X84628571Y-68700000D01*
X84723809Y-68652380D01*
X84961904Y-68652380D01*
X85057142Y-68700000D01*
X85104761Y-68747619D01*
X85152380Y-68842857D01*
X85152380Y-68938095D01*
X85104761Y-69080952D01*
X84533333Y-69652380D01*
X85152380Y-69652380D01*
X85438095Y-68652380D02*
X85771428Y-69652380D01*
X86104761Y-68652380D01*
X74214286Y-122597832D02*
X74214286Y-121597832D01*
X74214286Y-122074023D02*
X74785714Y-122074023D01*
X74785714Y-122597832D02*
X74785714Y-121597832D01*
X75261905Y-122597832D02*
X75261905Y-121597832D01*
X75261905Y-122074023D02*
X75833333Y-122074023D01*
X75833333Y-122597832D02*
X75833333Y-121597832D01*
X76642857Y-122074023D02*
X76785714Y-122121642D01*
X76833333Y-122169261D01*
X76880952Y-122264499D01*
X76880952Y-122407356D01*
X76833333Y-122502594D01*
X76785714Y-122550213D01*
X76690476Y-122597832D01*
X76309524Y-122597832D01*
X76309524Y-121597832D01*
X76642857Y-121597832D01*
X76738095Y-121645452D01*
X76785714Y-121693071D01*
X76833333Y-121788309D01*
X76833333Y-121883547D01*
X76785714Y-121978785D01*
X76738095Y-122026404D01*
X76642857Y-122074023D01*
X76309524Y-122074023D01*
X154152380Y-112404761D02*
X154295238Y-112452380D01*
X154533333Y-112452380D01*
X154628571Y-112404761D01*
X154676190Y-112357142D01*
X154723809Y-112261904D01*
X154723809Y-112166666D01*
X154676190Y-112071428D01*
X154628571Y-112023809D01*
X154533333Y-111976190D01*
X154342857Y-111928571D01*
X154247619Y-111880952D01*
X154200000Y-111833333D01*
X154152380Y-111738095D01*
X154152380Y-111642857D01*
X154200000Y-111547619D01*
X154247619Y-111500000D01*
X154342857Y-111452380D01*
X154580952Y-111452380D01*
X154723809Y-111500000D01*
X155152380Y-112452380D02*
X155152380Y-111452380D01*
X155723809Y-112452380D01*
X155723809Y-111452380D01*
X156200000Y-112452380D02*
X156200000Y-111452380D01*
X91238095Y-69271428D02*
X92000000Y-69271428D01*
X91619047Y-69652380D02*
X91619047Y-68890476D01*
X93000000Y-69652380D02*
X92428571Y-69652380D01*
X92714285Y-69652380D02*
X92714285Y-68652380D01*
X92619047Y-68795238D01*
X92523809Y-68890476D01*
X92428571Y-68938095D01*
X93380952Y-68747619D02*
X93428571Y-68700000D01*
X93523809Y-68652380D01*
X93761904Y-68652380D01*
X93857142Y-68700000D01*
X93904761Y-68747619D01*
X93952380Y-68842857D01*
X93952380Y-68938095D01*
X93904761Y-69080952D01*
X93333333Y-69652380D01*
X93952380Y-69652380D01*
X94238095Y-68652380D02*
X94571428Y-69652380D01*
X94904761Y-68652380D01*
X154738095Y-55500000D02*
X154642857Y-55452380D01*
X154500000Y-55452380D01*
X154357142Y-55500000D01*
X154261904Y-55595238D01*
X154214285Y-55690476D01*
X154166666Y-55880952D01*
X154166666Y-56023809D01*
X154214285Y-56214285D01*
X154261904Y-56309523D01*
X154357142Y-56404761D01*
X154500000Y-56452380D01*
X154595238Y-56452380D01*
X154738095Y-56404761D01*
X154785714Y-56357142D01*
X154785714Y-56023809D01*
X154595238Y-56023809D01*
X155214285Y-56452380D02*
X155214285Y-55452380D01*
X155785714Y-56452380D01*
X155785714Y-55452380D01*
X156261904Y-56452380D02*
X156261904Y-55452380D01*
X156500000Y-55452380D01*
X156642857Y-55500000D01*
X156738095Y-55595238D01*
X156785714Y-55690476D01*
X156833333Y-55880952D01*
X156833333Y-56023809D01*
X156785714Y-56214285D01*
X156738095Y-56309523D01*
X156642857Y-56404761D01*
X156500000Y-56452380D01*
X156261904Y-56452380D01*
X74166666Y-79232028D02*
X74309523Y-79279647D01*
X74547619Y-79279647D01*
X74642857Y-79232028D01*
X74690476Y-79184409D01*
X74738095Y-79089171D01*
X74738095Y-78993933D01*
X74690476Y-78898695D01*
X74642857Y-78851076D01*
X74547619Y-78803457D01*
X74357142Y-78755838D01*
X74261904Y-78708219D01*
X74214285Y-78660600D01*
X74166666Y-78565362D01*
X74166666Y-78470124D01*
X74214285Y-78374886D01*
X74261904Y-78327267D01*
X74357142Y-78279647D01*
X74595238Y-78279647D01*
X74738095Y-78327267D01*
X75166666Y-79279647D02*
X75166666Y-78279647D01*
X75738095Y-79279647D01*
X75738095Y-78279647D01*
X76071428Y-78279647D02*
X76404762Y-79279647D01*
X76738095Y-78279647D01*
X74166667Y-71622939D02*
X74309524Y-71670558D01*
X74547619Y-71670558D01*
X74642857Y-71622939D01*
X74690476Y-71575320D01*
X74738095Y-71480082D01*
X74738095Y-71384844D01*
X74690476Y-71289606D01*
X74642857Y-71241987D01*
X74547619Y-71194368D01*
X74357143Y-71146749D01*
X74261905Y-71099130D01*
X74214286Y-71051511D01*
X74166667Y-70956273D01*
X74166667Y-70861035D01*
X74214286Y-70765797D01*
X74261905Y-70718178D01*
X74357143Y-70670558D01*
X74595238Y-70670558D01*
X74738095Y-70718178D01*
X75023810Y-70670558D02*
X75595238Y-70670558D01*
X75309524Y-71670558D02*
X75309524Y-70670558D01*
X75928572Y-71670558D02*
X75928572Y-70670558D01*
X76309524Y-70670558D01*
X76404762Y-70718178D01*
X76452381Y-70765797D01*
X76500000Y-70861035D01*
X76500000Y-71003892D01*
X76452381Y-71099130D01*
X76404762Y-71146749D01*
X76309524Y-71194368D01*
X75928572Y-71194368D01*
X154166666Y-69086576D02*
X154309523Y-69134195D01*
X154547619Y-69134195D01*
X154642857Y-69086576D01*
X154690476Y-69038957D01*
X154738095Y-68943719D01*
X154738095Y-68848481D01*
X154690476Y-68753243D01*
X154642857Y-68705624D01*
X154547619Y-68658005D01*
X154357142Y-68610386D01*
X154261904Y-68562767D01*
X154214285Y-68515148D01*
X154166666Y-68419910D01*
X154166666Y-68324672D01*
X154214285Y-68229434D01*
X154261904Y-68181815D01*
X154357142Y-68134195D01*
X154595238Y-68134195D01*
X154738095Y-68181815D01*
X155500000Y-68610386D02*
X155642857Y-68658005D01*
X155690476Y-68705624D01*
X155738095Y-68800862D01*
X155738095Y-68943719D01*
X155690476Y-69038957D01*
X155642857Y-69086576D01*
X155547619Y-69134195D01*
X155166666Y-69134195D01*
X155166666Y-68134195D01*
X155500000Y-68134195D01*
X155595238Y-68181815D01*
X155642857Y-68229434D01*
X155690476Y-68324672D01*
X155690476Y-68419910D01*
X155642857Y-68515148D01*
X155595238Y-68562767D01*
X155500000Y-68610386D01*
X155166666Y-68610386D01*
X156500000Y-68610386D02*
X156642857Y-68658005D01*
X156690476Y-68705624D01*
X156738095Y-68800862D01*
X156738095Y-68943719D01*
X156690476Y-69038957D01*
X156642857Y-69086576D01*
X156547619Y-69134195D01*
X156166666Y-69134195D01*
X156166666Y-68134195D01*
X156500000Y-68134195D01*
X156595238Y-68181815D01*
X156642857Y-68229434D01*
X156690476Y-68324672D01*
X156690476Y-68419910D01*
X156642857Y-68515148D01*
X156595238Y-68562767D01*
X156500000Y-68610386D01*
X156166666Y-68610386D01*
X74166667Y-132457570D02*
X74642857Y-132457570D01*
X74071429Y-132743284D02*
X74404762Y-131743284D01*
X74738095Y-132743284D01*
X75261905Y-131743284D02*
X75452381Y-131743284D01*
X75547619Y-131790904D01*
X75642857Y-131886142D01*
X75690476Y-132076618D01*
X75690476Y-132409951D01*
X75642857Y-132600427D01*
X75547619Y-132695665D01*
X75452381Y-132743284D01*
X75261905Y-132743284D01*
X75166667Y-132695665D01*
X75071429Y-132600427D01*
X75023810Y-132409951D01*
X75023810Y-132076618D01*
X75071429Y-131886142D01*
X75166667Y-131790904D01*
X75261905Y-131743284D01*
X76690476Y-132743284D02*
X76357143Y-132267094D01*
X76119048Y-132743284D02*
X76119048Y-131743284D01*
X76500000Y-131743284D01*
X76595238Y-131790904D01*
X76642857Y-131838523D01*
X76690476Y-131933761D01*
X76690476Y-132076618D01*
X76642857Y-132171856D01*
X76595238Y-132219475D01*
X76500000Y-132267094D01*
X76119048Y-132267094D01*
X154785715Y-79184409D02*
X154738096Y-79232028D01*
X154595238Y-79279647D01*
X154500000Y-79279647D01*
X154357143Y-79232028D01*
X154261905Y-79136790D01*
X154214286Y-79041552D01*
X154166667Y-78851076D01*
X154166667Y-78708219D01*
X154214286Y-78517743D01*
X154261905Y-78422505D01*
X154357143Y-78327267D01*
X154500000Y-78279647D01*
X154595238Y-78279647D01*
X154738096Y-78327267D01*
X154785715Y-78374886D01*
X155214286Y-79279647D02*
X155214286Y-78279647D01*
X155214286Y-78755838D02*
X155785715Y-78755838D01*
X155785715Y-79279647D02*
X155785715Y-78279647D01*
X156261905Y-79279647D02*
X156261905Y-78279647D01*
X108971428Y-123728571D02*
X109114285Y-123776190D01*
X109161904Y-123823809D01*
X109209523Y-123919047D01*
X109209523Y-124061904D01*
X109161904Y-124157142D01*
X109114285Y-124204761D01*
X109019047Y-124252380D01*
X108638095Y-124252380D01*
X108638095Y-123252380D01*
X108971428Y-123252380D01*
X109066666Y-123300000D01*
X109114285Y-123347619D01*
X109161904Y-123442857D01*
X109161904Y-123538095D01*
X109114285Y-123633333D01*
X109066666Y-123680952D01*
X108971428Y-123728571D01*
X108638095Y-123728571D01*
X110209523Y-124157142D02*
X110161904Y-124204761D01*
X110019047Y-124252380D01*
X109923809Y-124252380D01*
X109780952Y-124204761D01*
X109685714Y-124109523D01*
X109638095Y-124014285D01*
X109590476Y-123823809D01*
X109590476Y-123680952D01*
X109638095Y-123490476D01*
X109685714Y-123395238D01*
X109780952Y-123300000D01*
X109923809Y-123252380D01*
X110019047Y-123252380D01*
X110161904Y-123300000D01*
X110209523Y-123347619D01*
X87333333Y-68652380D02*
X87952380Y-68652380D01*
X87619047Y-69033333D01*
X87761904Y-69033333D01*
X87857142Y-69080952D01*
X87904761Y-69128571D01*
X87952380Y-69223809D01*
X87952380Y-69461904D01*
X87904761Y-69557142D01*
X87857142Y-69604761D01*
X87761904Y-69652380D01*
X87476190Y-69652380D01*
X87380952Y-69604761D01*
X87333333Y-69557142D01*
X88238095Y-68652380D02*
X88571428Y-69652380D01*
X88904761Y-68652380D01*
X89142857Y-68652380D02*
X89761904Y-68652380D01*
X89428571Y-69033333D01*
X89571428Y-69033333D01*
X89666666Y-69080952D01*
X89714285Y-69128571D01*
X89761904Y-69223809D01*
X89761904Y-69461904D01*
X89714285Y-69557142D01*
X89666666Y-69604761D01*
X89571428Y-69652380D01*
X89285714Y-69652380D01*
X89190476Y-69604761D01*
X89142857Y-69557142D01*
X90142857Y-69366666D02*
X90619047Y-69366666D01*
X90047619Y-69652380D02*
X90380952Y-68652380D01*
X90714285Y-69652380D01*
X154723809Y-134327267D02*
X154628571Y-134279647D01*
X154485714Y-134279647D01*
X154342856Y-134327267D01*
X154247618Y-134422505D01*
X154199999Y-134517743D01*
X154152380Y-134708219D01*
X154152380Y-134851076D01*
X154199999Y-135041552D01*
X154247618Y-135136790D01*
X154342856Y-135232028D01*
X154485714Y-135279647D01*
X154580952Y-135279647D01*
X154723809Y-135232028D01*
X154771428Y-135184409D01*
X154771428Y-134851076D01*
X154580952Y-134851076D01*
X155199999Y-135279647D02*
X155199999Y-134279647D01*
X155771428Y-135279647D01*
X155771428Y-134279647D01*
X156247618Y-135279647D02*
X156247618Y-134279647D01*
X156485714Y-134279647D01*
X156628571Y-134327267D01*
X156723809Y-134422505D01*
X156771428Y-134517743D01*
X156819047Y-134708219D01*
X156819047Y-134851076D01*
X156771428Y-135041552D01*
X156723809Y-135136790D01*
X156628571Y-135232028D01*
X156485714Y-135279647D01*
X156247618Y-135279647D01*
X74166667Y-58941124D02*
X74309524Y-58988743D01*
X74547619Y-58988743D01*
X74642857Y-58941124D01*
X74690476Y-58893505D01*
X74738095Y-58798267D01*
X74738095Y-58703029D01*
X74690476Y-58607791D01*
X74642857Y-58560172D01*
X74547619Y-58512553D01*
X74357143Y-58464934D01*
X74261905Y-58417315D01*
X74214286Y-58369696D01*
X74166667Y-58274458D01*
X74166667Y-58179220D01*
X74214286Y-58083982D01*
X74261905Y-58036363D01*
X74357143Y-57988743D01*
X74595238Y-57988743D01*
X74738095Y-58036363D01*
X75500000Y-58464934D02*
X75166667Y-58464934D01*
X75166667Y-58988743D02*
X75166667Y-57988743D01*
X75642857Y-57988743D01*
X76023810Y-58988743D02*
X76023810Y-57988743D01*
X76404762Y-57988743D01*
X76500000Y-58036363D01*
X76547619Y-58083982D01*
X76595238Y-58179220D01*
X76595238Y-58322077D01*
X76547619Y-58417315D01*
X76500000Y-58464934D01*
X76404762Y-58512553D01*
X76023810Y-58512553D01*
X74166667Y-84304761D02*
X74309524Y-84352380D01*
X74547619Y-84352380D01*
X74642857Y-84304761D01*
X74690476Y-84257142D01*
X74738095Y-84161904D01*
X74738095Y-84066666D01*
X74690476Y-83971428D01*
X74642857Y-83923809D01*
X74547619Y-83876190D01*
X74357143Y-83828571D01*
X74261905Y-83780952D01*
X74214286Y-83733333D01*
X74166667Y-83638095D01*
X74166667Y-83542857D01*
X74214286Y-83447619D01*
X74261905Y-83400000D01*
X74357143Y-83352380D01*
X74595238Y-83352380D01*
X74738095Y-83400000D01*
X75500000Y-83828571D02*
X75642857Y-83876190D01*
X75690476Y-83923809D01*
X75738095Y-84019047D01*
X75738095Y-84161904D01*
X75690476Y-84257142D01*
X75642857Y-84304761D01*
X75547619Y-84352380D01*
X75166667Y-84352380D01*
X75166667Y-83352380D01*
X75500000Y-83352380D01*
X75595238Y-83400000D01*
X75642857Y-83447619D01*
X75690476Y-83542857D01*
X75690476Y-83638095D01*
X75642857Y-83733333D01*
X75595238Y-83780952D01*
X75500000Y-83828571D01*
X75166667Y-83828571D01*
X76119048Y-84304761D02*
X76261905Y-84352380D01*
X76500000Y-84352380D01*
X76595238Y-84304761D01*
X76642857Y-84257142D01*
X76690476Y-84161904D01*
X76690476Y-84066666D01*
X76642857Y-83971428D01*
X76595238Y-83923809D01*
X76500000Y-83876190D01*
X76309524Y-83828571D01*
X76214286Y-83780952D01*
X76166667Y-83733333D01*
X76119048Y-83638095D01*
X76119048Y-83542857D01*
X76166667Y-83447619D01*
X76214286Y-83400000D01*
X76309524Y-83352380D01*
X76547619Y-83352380D01*
X76690476Y-83400000D01*
X154404762Y-80816010D02*
X154595238Y-80816010D01*
X154690476Y-80863630D01*
X154785714Y-80958868D01*
X154833333Y-81149344D01*
X154833333Y-81482677D01*
X154785714Y-81673153D01*
X154690476Y-81768391D01*
X154595238Y-81816010D01*
X154404762Y-81816010D01*
X154309524Y-81768391D01*
X154214285Y-81673153D01*
X154166666Y-81482677D01*
X154166666Y-81149344D01*
X154214285Y-80958868D01*
X154309524Y-80863630D01*
X154404762Y-80816010D01*
X155261905Y-81816010D02*
X155261905Y-80816010D01*
X155261905Y-81292201D02*
X155833333Y-81292201D01*
X155833333Y-81816010D02*
X155833333Y-80816010D01*
X156309524Y-81816010D02*
X156309524Y-80816010D01*
X74071428Y-134279647D02*
X74642857Y-134279647D01*
X74357142Y-135279647D02*
X74357142Y-134279647D01*
X74976190Y-135279647D02*
X74976190Y-134279647D01*
X75309523Y-134993933D01*
X75642857Y-134279647D01*
X75642857Y-135279647D01*
X76309523Y-134279647D02*
X76500000Y-134279647D01*
X76595238Y-134327267D01*
X76690476Y-134422505D01*
X76738095Y-134612981D01*
X76738095Y-134946314D01*
X76690476Y-135136790D01*
X76595238Y-135232028D01*
X76500000Y-135279647D01*
X76309523Y-135279647D01*
X76214285Y-135232028D01*
X76119047Y-135136790D01*
X76071428Y-134946314D01*
X76071428Y-134612981D01*
X76119047Y-134422505D01*
X76214285Y-134327267D01*
X76309523Y-134279647D01*
X74214285Y-74206921D02*
X74214285Y-73206921D01*
X74214285Y-73683112D02*
X74785714Y-73683112D01*
X74785714Y-74206921D02*
X74785714Y-73206921D01*
X75261904Y-74206921D02*
X75261904Y-73206921D01*
X75500000Y-73206921D01*
X75642857Y-73254541D01*
X75738095Y-73349779D01*
X75785714Y-73445017D01*
X75833333Y-73635493D01*
X75833333Y-73778350D01*
X75785714Y-73968826D01*
X75738095Y-74064064D01*
X75642857Y-74159302D01*
X75500000Y-74206921D01*
X75261904Y-74206921D01*
X76261904Y-74206921D02*
X76261904Y-73206921D01*
X76642857Y-73206921D01*
X76738095Y-73254541D01*
X76785714Y-73302160D01*
X76833333Y-73397398D01*
X76833333Y-73540255D01*
X76785714Y-73635493D01*
X76738095Y-73683112D01*
X76642857Y-73730731D01*
X76261904Y-73730731D01*
X105209523Y-124252380D02*
X104733333Y-124252380D01*
X104733333Y-123252380D01*
X106114285Y-124252380D02*
X105780952Y-123776190D01*
X105542857Y-124252380D02*
X105542857Y-123252380D01*
X105923809Y-123252380D01*
X106019047Y-123300000D01*
X106066666Y-123347619D01*
X106114285Y-123442857D01*
X106114285Y-123585714D01*
X106066666Y-123680952D01*
X106019047Y-123728571D01*
X105923809Y-123776190D01*
X105542857Y-123776190D01*
X154166667Y-66550213D02*
X154309524Y-66597832D01*
X154547619Y-66597832D01*
X154642857Y-66550213D01*
X154690476Y-66502594D01*
X154738095Y-66407356D01*
X154738095Y-66312118D01*
X154690476Y-66216880D01*
X154642857Y-66169261D01*
X154547619Y-66121642D01*
X154357143Y-66074023D01*
X154261905Y-66026404D01*
X154214286Y-65978785D01*
X154166667Y-65883547D01*
X154166667Y-65788309D01*
X154214286Y-65693071D01*
X154261905Y-65645452D01*
X154357143Y-65597832D01*
X154595238Y-65597832D01*
X154738095Y-65645452D01*
X155119048Y-66312118D02*
X155595238Y-66312118D01*
X155023810Y-66597832D02*
X155357143Y-65597832D01*
X155690476Y-66597832D01*
X156500000Y-66597832D02*
X156023810Y-66597832D01*
X156023810Y-65597832D01*
X74166666Y-81768391D02*
X74309523Y-81816010D01*
X74547619Y-81816010D01*
X74642857Y-81768391D01*
X74690476Y-81720772D01*
X74738095Y-81625534D01*
X74738095Y-81530296D01*
X74690476Y-81435058D01*
X74642857Y-81387439D01*
X74547619Y-81339820D01*
X74357143Y-81292201D01*
X74261904Y-81244582D01*
X74214285Y-81196963D01*
X74166666Y-81101725D01*
X74166666Y-81006487D01*
X74214285Y-80911249D01*
X74261904Y-80863630D01*
X74357143Y-80816010D01*
X74595238Y-80816010D01*
X74738095Y-80863630D01*
X75119047Y-81530296D02*
X75595238Y-81530296D01*
X75023809Y-81816010D02*
X75357143Y-80816010D01*
X75690476Y-81816010D01*
X75976190Y-81768391D02*
X76119047Y-81816010D01*
X76357143Y-81816010D01*
X76452381Y-81768391D01*
X76500000Y-81720772D01*
X76547619Y-81625534D01*
X76547619Y-81530296D01*
X76500000Y-81435058D01*
X76452381Y-81387439D01*
X76357143Y-81339820D01*
X76166666Y-81292201D01*
X76071428Y-81244582D01*
X76023809Y-81196963D01*
X75976190Y-81101725D01*
X75976190Y-81006487D01*
X76023809Y-80911249D01*
X76071428Y-80863630D01*
X76166666Y-80816010D01*
X76404762Y-80816010D01*
X76547619Y-80863630D01*
D13*
X102152380Y-82761904D02*
X102647619Y-82761904D01*
X102380952Y-83066666D01*
X102495238Y-83066666D01*
X102571428Y-83104761D01*
X102609523Y-83142857D01*
X102647619Y-83219047D01*
X102647619Y-83409523D01*
X102609523Y-83485714D01*
X102571428Y-83523809D01*
X102495238Y-83561904D01*
X102266666Y-83561904D01*
X102190476Y-83523809D01*
X102152380Y-83485714D01*
X102914285Y-82761904D02*
X103447619Y-82761904D01*
X103104761Y-83561904D01*
D12*
X74214286Y-66597832D02*
X74214286Y-65597832D01*
X74785714Y-66597832D02*
X74357143Y-66026404D01*
X74785714Y-65597832D02*
X74214286Y-66169261D01*
X75214286Y-66597832D02*
X75214286Y-65597832D01*
X75452381Y-65597832D01*
X75595238Y-65645452D01*
X75690476Y-65740690D01*
X75738095Y-65835928D01*
X75785714Y-66026404D01*
X75785714Y-66169261D01*
X75738095Y-66359737D01*
X75690476Y-66454975D01*
X75595238Y-66550213D01*
X75452381Y-66597832D01*
X75214286Y-66597832D01*
X76214286Y-66597832D02*
X76214286Y-65597832D01*
X76595238Y-65597832D01*
X76690476Y-65645452D01*
X76738095Y-65693071D01*
X76785714Y-65788309D01*
X76785714Y-65931166D01*
X76738095Y-66026404D01*
X76690476Y-66074023D01*
X76595238Y-66121642D01*
X76214286Y-66121642D01*
X126861904Y-70052380D02*
X126861904Y-69052380D01*
X127100000Y-69052380D01*
X127242857Y-69100000D01*
X127338095Y-69195238D01*
X127385714Y-69290476D01*
X127433333Y-69480952D01*
X127433333Y-69623809D01*
X127385714Y-69814285D01*
X127338095Y-69909523D01*
X127242857Y-70004761D01*
X127100000Y-70052380D01*
X126861904Y-70052380D01*
X128385714Y-70052380D02*
X127814285Y-70052380D01*
X128100000Y-70052380D02*
X128100000Y-69052380D01*
X128004761Y-69195238D01*
X127909523Y-69290476D01*
X127814285Y-69338095D01*
D13*
X128466666Y-101761904D02*
X128009523Y-101761904D01*
X128238095Y-101761904D02*
X128238095Y-100961904D01*
X128161904Y-101076190D01*
X128085714Y-101152380D01*
X128009523Y-101190476D01*
X128961904Y-100961904D02*
X129038095Y-100961904D01*
X129114285Y-101000000D01*
X129152380Y-101038095D01*
X129190476Y-101114285D01*
X129228571Y-101266666D01*
X129228571Y-101457142D01*
X129190476Y-101609523D01*
X129152380Y-101685714D01*
X129114285Y-101723809D01*
X129038095Y-101761904D01*
X128961904Y-101761904D01*
X128885714Y-101723809D01*
X128847619Y-101685714D01*
X128809523Y-101609523D01*
X128771428Y-101457142D01*
X128771428Y-101266666D01*
X128809523Y-101114285D01*
X128847619Y-101038095D01*
X128885714Y-101000000D01*
X128961904Y-100961904D01*
X129609523Y-101761904D02*
X129761904Y-101761904D01*
X129838095Y-101723809D01*
X129876190Y-101685714D01*
X129952380Y-101571428D01*
X129990476Y-101419047D01*
X129990476Y-101114285D01*
X129952380Y-101038095D01*
X129914285Y-101000000D01*
X129838095Y-100961904D01*
X129685714Y-100961904D01*
X129609523Y-101000000D01*
X129571428Y-101038095D01*
X129533333Y-101114285D01*
X129533333Y-101304761D01*
X129571428Y-101380952D01*
X129609523Y-101419047D01*
X129685714Y-101457142D01*
X129838095Y-101457142D01*
X129914285Y-101419047D01*
X129952380Y-101380952D01*
X129990476Y-101304761D01*
D12*
X74738095Y-139400000D02*
X74642857Y-139352380D01*
X74500000Y-139352380D01*
X74357142Y-139400000D01*
X74261904Y-139495238D01*
X74214285Y-139590476D01*
X74166666Y-139780952D01*
X74166666Y-139923809D01*
X74214285Y-140114285D01*
X74261904Y-140209523D01*
X74357142Y-140304761D01*
X74500000Y-140352380D01*
X74595238Y-140352380D01*
X74738095Y-140304761D01*
X74785714Y-140257142D01*
X74785714Y-139923809D01*
X74595238Y-139923809D01*
X75214285Y-140352380D02*
X75214285Y-139352380D01*
X75785714Y-140352380D01*
X75785714Y-139352380D01*
X76261904Y-140352380D02*
X76261904Y-139352380D01*
X76500000Y-139352380D01*
X76642857Y-139400000D01*
X76738095Y-139495238D01*
X76785714Y-139590476D01*
X76833333Y-139780952D01*
X76833333Y-139923809D01*
X76785714Y-140114285D01*
X76738095Y-140209523D01*
X76642857Y-140304761D01*
X76500000Y-140352380D01*
X76261904Y-140352380D01*
X121933333Y-69052380D02*
X121933333Y-69861904D01*
X121980952Y-69957142D01*
X122028571Y-70004761D01*
X122123809Y-70052380D01*
X122314285Y-70052380D01*
X122409523Y-70004761D01*
X122457142Y-69957142D01*
X122504761Y-69861904D01*
X122504761Y-69052380D01*
X122838095Y-69052380D02*
X123409523Y-69052380D01*
X123123809Y-70052380D02*
X123123809Y-69052380D01*
X154200000Y-121597832D02*
X154200000Y-122407356D01*
X154247619Y-122502594D01*
X154295238Y-122550213D01*
X154390476Y-122597832D01*
X154580952Y-122597832D01*
X154676190Y-122550213D01*
X154723809Y-122502594D01*
X154771428Y-122407356D01*
X154771428Y-121597832D01*
X155104762Y-121597832D02*
X155438095Y-122597832D01*
X155771428Y-121597832D01*
X156438095Y-122074023D02*
X156580952Y-122121642D01*
X156628571Y-122169261D01*
X156676190Y-122264499D01*
X156676190Y-122407356D01*
X156628571Y-122502594D01*
X156580952Y-122550213D01*
X156485714Y-122597832D01*
X156104762Y-122597832D01*
X156104762Y-121597832D01*
X156438095Y-121597832D01*
X156533333Y-121645452D01*
X156580952Y-121693071D01*
X156628571Y-121788309D01*
X156628571Y-121883547D01*
X156580952Y-121978785D01*
X156533333Y-122026404D01*
X156438095Y-122074023D01*
X156104762Y-122074023D01*
X74166667Y-127622939D02*
X74309524Y-127670558D01*
X74547619Y-127670558D01*
X74642857Y-127622939D01*
X74690476Y-127575320D01*
X74738095Y-127480082D01*
X74738095Y-127384844D01*
X74690476Y-127289606D01*
X74642857Y-127241987D01*
X74547619Y-127194368D01*
X74357143Y-127146749D01*
X74261905Y-127099130D01*
X74214286Y-127051511D01*
X74166667Y-126956273D01*
X74166667Y-126861035D01*
X74214286Y-126765797D01*
X74261905Y-126718178D01*
X74357143Y-126670558D01*
X74595238Y-126670558D01*
X74738095Y-126718178D01*
X75119048Y-127384844D02*
X75595238Y-127384844D01*
X75023809Y-127670558D02*
X75357143Y-126670558D01*
X75690476Y-127670558D01*
X76023809Y-127670558D02*
X76023809Y-126670558D01*
X74166666Y-117477487D02*
X74309524Y-117525106D01*
X74547619Y-117525106D01*
X74642857Y-117477487D01*
X74690476Y-117429868D01*
X74738095Y-117334630D01*
X74738095Y-117239392D01*
X74690476Y-117144154D01*
X74642857Y-117096535D01*
X74547619Y-117048916D01*
X74357143Y-117001297D01*
X74261904Y-116953678D01*
X74214285Y-116906059D01*
X74166666Y-116810821D01*
X74166666Y-116715583D01*
X74214285Y-116620345D01*
X74261904Y-116572726D01*
X74357143Y-116525106D01*
X74595238Y-116525106D01*
X74738095Y-116572726D01*
X75119047Y-117239392D02*
X75595238Y-117239392D01*
X75023809Y-117525106D02*
X75357143Y-116525106D01*
X75690476Y-117525106D01*
X75880952Y-116525106D02*
X76214285Y-117525106D01*
X76547619Y-116525106D01*
X74214285Y-64061469D02*
X74214285Y-63061469D01*
X74785714Y-64061469D02*
X74357142Y-63490041D01*
X74785714Y-63061469D02*
X74214285Y-63632898D01*
X75166666Y-63775755D02*
X75642857Y-63775755D01*
X75071428Y-64061469D02*
X75404762Y-63061469D01*
X75738095Y-64061469D01*
X76071428Y-64061469D02*
X76071428Y-63061469D01*
X76452381Y-63061469D01*
X76547619Y-63109089D01*
X76595238Y-63156708D01*
X76642857Y-63251946D01*
X76642857Y-63394803D01*
X76595238Y-63490041D01*
X76547619Y-63537660D01*
X76452381Y-63585279D01*
X76071428Y-63585279D01*
X74738095Y-55500000D02*
X74642857Y-55452380D01*
X74500000Y-55452380D01*
X74357142Y-55500000D01*
X74261904Y-55595238D01*
X74214285Y-55690476D01*
X74166666Y-55880952D01*
X74166666Y-56023809D01*
X74214285Y-56214285D01*
X74261904Y-56309523D01*
X74357142Y-56404761D01*
X74500000Y-56452380D01*
X74595238Y-56452380D01*
X74738095Y-56404761D01*
X74785714Y-56357142D01*
X74785714Y-56023809D01*
X74595238Y-56023809D01*
X75214285Y-56452380D02*
X75214285Y-55452380D01*
X75785714Y-56452380D01*
X75785714Y-55452380D01*
X76261904Y-56452380D02*
X76261904Y-55452380D01*
X76500000Y-55452380D01*
X76642857Y-55500000D01*
X76738095Y-55595238D01*
X76785714Y-55690476D01*
X76833333Y-55880952D01*
X76833333Y-56023809D01*
X76785714Y-56214285D01*
X76738095Y-56309523D01*
X76642857Y-56404761D01*
X76500000Y-56452380D01*
X76261904Y-56452380D01*
G04 %TO.C,R27@% jlc*
X150857142Y-89352380D02*
X150523809Y-88876190D01*
X150285714Y-89352380D02*
X150285714Y-88352380D01*
X150666666Y-88352380D01*
X150761904Y-88400000D01*
X150809523Y-88447619D01*
X150857142Y-88542857D01*
X150857142Y-88685714D01*
X150809523Y-88780952D01*
X150761904Y-88828571D01*
X150666666Y-88876190D01*
X150285714Y-88876190D01*
X151238095Y-88447619D02*
X151285714Y-88400000D01*
X151380952Y-88352380D01*
X151619047Y-88352380D01*
X151714285Y-88400000D01*
X151761904Y-88447619D01*
X151809523Y-88542857D01*
X151809523Y-88638095D01*
X151761904Y-88780952D01*
X151190476Y-89352380D01*
X151809523Y-89352380D01*
X152142857Y-88352380D02*
X152809523Y-88352380D01*
X152380952Y-89352380D01*
G04 %TO.C,R22@% jlc*
X144357142Y-130252380D02*
X144023809Y-129776190D01*
X143785714Y-130252380D02*
X143785714Y-129252380D01*
X144166666Y-129252380D01*
X144261904Y-129300000D01*
X144309523Y-129347619D01*
X144357142Y-129442857D01*
X144357142Y-129585714D01*
X144309523Y-129680952D01*
X144261904Y-129728571D01*
X144166666Y-129776190D01*
X143785714Y-129776190D01*
X144738095Y-129347619D02*
X144785714Y-129300000D01*
X144880952Y-129252380D01*
X145119047Y-129252380D01*
X145214285Y-129300000D01*
X145261904Y-129347619D01*
X145309523Y-129442857D01*
X145309523Y-129538095D01*
X145261904Y-129680952D01*
X144690476Y-130252380D01*
X145309523Y-130252380D01*
X145690476Y-129347619D02*
X145738095Y-129300000D01*
X145833333Y-129252380D01*
X146071428Y-129252380D01*
X146166666Y-129300000D01*
X146214285Y-129347619D01*
X146261904Y-129442857D01*
X146261904Y-129538095D01*
X146214285Y-129680952D01*
X145642857Y-130252380D01*
X146261904Y-130252380D01*
G04 %TO.C,R18@% jlc*
X150857142Y-80852380D02*
X150523809Y-80376190D01*
X150285714Y-80852380D02*
X150285714Y-79852380D01*
X150666666Y-79852380D01*
X150761904Y-79900000D01*
X150809523Y-79947619D01*
X150857142Y-80042857D01*
X150857142Y-80185714D01*
X150809523Y-80280952D01*
X150761904Y-80328571D01*
X150666666Y-80376190D01*
X150285714Y-80376190D01*
X151809523Y-80852380D02*
X151238095Y-80852380D01*
X151523809Y-80852380D02*
X151523809Y-79852380D01*
X151428571Y-79995238D01*
X151333333Y-80090476D01*
X151238095Y-80138095D01*
X152380952Y-80280952D02*
X152285714Y-80233333D01*
X152238095Y-80185714D01*
X152190476Y-80090476D01*
X152190476Y-80042857D01*
X152238095Y-79947619D01*
X152285714Y-79900000D01*
X152380952Y-79852380D01*
X152571428Y-79852380D01*
X152666666Y-79900000D01*
X152714285Y-79947619D01*
X152761904Y-80042857D01*
X152761904Y-80090476D01*
X152714285Y-80185714D01*
X152666666Y-80233333D01*
X152571428Y-80280952D01*
X152380952Y-80280952D01*
X152285714Y-80328571D01*
X152238095Y-80376190D01*
X152190476Y-80471428D01*
X152190476Y-80661904D01*
X152238095Y-80757142D01*
X152285714Y-80804761D01*
X152380952Y-80852380D01*
X152571428Y-80852380D01*
X152666666Y-80804761D01*
X152714285Y-80757142D01*
X152761904Y-80661904D01*
X152761904Y-80471428D01*
X152714285Y-80376190D01*
X152666666Y-80328571D01*
X152571428Y-80280952D01*
G04 %TO.C,R8@% jlc*
X112752380Y-146466666D02*
X112276190Y-146800000D01*
X112752380Y-147038095D02*
X111752380Y-147038095D01*
X111752380Y-146657142D01*
X111800000Y-146561904D01*
X111847619Y-146514285D01*
X111942857Y-146466666D01*
X112085714Y-146466666D01*
X112180952Y-146514285D01*
X112228571Y-146561904D01*
X112276190Y-146657142D01*
X112276190Y-147038095D01*
X112180952Y-145895238D02*
X112133333Y-145990476D01*
X112085714Y-146038095D01*
X111990476Y-146085714D01*
X111942857Y-146085714D01*
X111847619Y-146038095D01*
X111800000Y-145990476D01*
X111752380Y-145895238D01*
X111752380Y-145704761D01*
X111800000Y-145609523D01*
X111847619Y-145561904D01*
X111942857Y-145514285D01*
X111990476Y-145514285D01*
X112085714Y-145561904D01*
X112133333Y-145609523D01*
X112180952Y-145704761D01*
X112180952Y-145895238D01*
X112228571Y-145990476D01*
X112276190Y-146038095D01*
X112371428Y-146085714D01*
X112561904Y-146085714D01*
X112657142Y-146038095D01*
X112704761Y-145990476D01*
X112752380Y-145895238D01*
X112752380Y-145704761D01*
X112704761Y-145609523D01*
X112657142Y-145561904D01*
X112561904Y-145514285D01*
X112371428Y-145514285D01*
X112276190Y-145561904D01*
X112228571Y-145609523D01*
X112180952Y-145704761D01*
G04 %TO.C,J7@% jlc*
X108288095Y-63833928D02*
X109050000Y-63833928D01*
X110050000Y-64214880D02*
X109478571Y-64214880D01*
X109764285Y-64214880D02*
X109764285Y-63214880D01*
X109669047Y-63357738D01*
X109573809Y-63452976D01*
X109478571Y-63500595D01*
X110430952Y-63310119D02*
X110478571Y-63262500D01*
X110573809Y-63214880D01*
X110811904Y-63214880D01*
X110907142Y-63262500D01*
X110954761Y-63310119D01*
X111002380Y-63405357D01*
X111002380Y-63500595D01*
X110954761Y-63643452D01*
X110383333Y-64214880D01*
X111002380Y-64214880D01*
X111288095Y-63214880D02*
X111621428Y-64214880D01*
X111954761Y-63214880D01*
G04 %TO.C,C3@% jlc*
X118457142Y-78766666D02*
X118504761Y-78814285D01*
X118552380Y-78957142D01*
X118552380Y-79052380D01*
X118504761Y-79195238D01*
X118409523Y-79290476D01*
X118314285Y-79338095D01*
X118123809Y-79385714D01*
X117980952Y-79385714D01*
X117790476Y-79338095D01*
X117695238Y-79290476D01*
X117600000Y-79195238D01*
X117552380Y-79052380D01*
X117552380Y-78957142D01*
X117600000Y-78814285D01*
X117647619Y-78766666D01*
X117552380Y-78433333D02*
X117552380Y-77814285D01*
X117933333Y-78147619D01*
X117933333Y-78004761D01*
X117980952Y-77909523D01*
X118028571Y-77861904D01*
X118123809Y-77814285D01*
X118361904Y-77814285D01*
X118457142Y-77861904D01*
X118504761Y-77909523D01*
X118552380Y-78004761D01*
X118552380Y-78290476D01*
X118504761Y-78385714D01*
X118457142Y-78433333D01*
G04 %TO.C,C40@% jlc*
X148707142Y-53542857D02*
X148754761Y-53590476D01*
X148802380Y-53733333D01*
X148802380Y-53828571D01*
X148754761Y-53971428D01*
X148659523Y-54066666D01*
X148564285Y-54114285D01*
X148373809Y-54161904D01*
X148230952Y-54161904D01*
X148040476Y-54114285D01*
X147945238Y-54066666D01*
X147850000Y-53971428D01*
X147802380Y-53828571D01*
X147802380Y-53733333D01*
X147850000Y-53590476D01*
X147897619Y-53542857D01*
X148135714Y-52685714D02*
X148802380Y-52685714D01*
X147754761Y-52923809D02*
X148469047Y-53161904D01*
X148469047Y-52542857D01*
X147802380Y-51971428D02*
X147802380Y-51876190D01*
X147850000Y-51780952D01*
X147897619Y-51733333D01*
X147992857Y-51685714D01*
X148183333Y-51638095D01*
X148421428Y-51638095D01*
X148611904Y-51685714D01*
X148707142Y-51733333D01*
X148754761Y-51780952D01*
X148802380Y-51876190D01*
X148802380Y-51971428D01*
X148754761Y-52066666D01*
X148707142Y-52114285D01*
X148611904Y-52161904D01*
X148421428Y-52209523D01*
X148183333Y-52209523D01*
X147992857Y-52161904D01*
X147897619Y-52114285D01*
X147850000Y-52066666D01*
X147802380Y-51971428D01*
G04 %TO.C,U7@% jlc*
X96638095Y-62852380D02*
X96638095Y-63661904D01*
X96685714Y-63757142D01*
X96733333Y-63804761D01*
X96828571Y-63852380D01*
X97019047Y-63852380D01*
X97114285Y-63804761D01*
X97161904Y-63757142D01*
X97209523Y-63661904D01*
X97209523Y-62852380D01*
X97590476Y-62852380D02*
X98257142Y-62852380D01*
X97828571Y-63852380D01*
G04 %TO.C,R17@% jlc*
X150857142Y-78852380D02*
X150523809Y-78376190D01*
X150285714Y-78852380D02*
X150285714Y-77852380D01*
X150666666Y-77852380D01*
X150761904Y-77900000D01*
X150809523Y-77947619D01*
X150857142Y-78042857D01*
X150857142Y-78185714D01*
X150809523Y-78280952D01*
X150761904Y-78328571D01*
X150666666Y-78376190D01*
X150285714Y-78376190D01*
X151809523Y-78852380D02*
X151238095Y-78852380D01*
X151523809Y-78852380D02*
X151523809Y-77852380D01*
X151428571Y-77995238D01*
X151333333Y-78090476D01*
X151238095Y-78138095D01*
X152142857Y-77852380D02*
X152809523Y-77852380D01*
X152380952Y-78852380D01*
G04 %TO.C,R28@% jlc*
X80557142Y-126752380D02*
X80223809Y-126276190D01*
X79985714Y-126752380D02*
X79985714Y-125752380D01*
X80366666Y-125752380D01*
X80461904Y-125800000D01*
X80509523Y-125847619D01*
X80557142Y-125942857D01*
X80557142Y-126085714D01*
X80509523Y-126180952D01*
X80461904Y-126228571D01*
X80366666Y-126276190D01*
X79985714Y-126276190D01*
X80938095Y-125847619D02*
X80985714Y-125800000D01*
X81080952Y-125752380D01*
X81319047Y-125752380D01*
X81414285Y-125800000D01*
X81461904Y-125847619D01*
X81509523Y-125942857D01*
X81509523Y-126038095D01*
X81461904Y-126180952D01*
X80890476Y-126752380D01*
X81509523Y-126752380D01*
X82080952Y-126180952D02*
X81985714Y-126133333D01*
X81938095Y-126085714D01*
X81890476Y-125990476D01*
X81890476Y-125942857D01*
X81938095Y-125847619D01*
X81985714Y-125800000D01*
X82080952Y-125752380D01*
X82271428Y-125752380D01*
X82366666Y-125800000D01*
X82414285Y-125847619D01*
X82461904Y-125942857D01*
X82461904Y-125990476D01*
X82414285Y-126085714D01*
X82366666Y-126133333D01*
X82271428Y-126180952D01*
X82080952Y-126180952D01*
X81985714Y-126228571D01*
X81938095Y-126276190D01*
X81890476Y-126371428D01*
X81890476Y-126561904D01*
X81938095Y-126657142D01*
X81985714Y-126704761D01*
X82080952Y-126752380D01*
X82271428Y-126752380D01*
X82366666Y-126704761D01*
X82414285Y-126657142D01*
X82461904Y-126561904D01*
X82461904Y-126371428D01*
X82414285Y-126276190D01*
X82366666Y-126228571D01*
X82271428Y-126180952D01*
G04 %TO.C,R5@% jlc*
X150857142Y-76652380D02*
X150523809Y-76176190D01*
X150285713Y-76652380D02*
X150285713Y-75652380D01*
X150666666Y-75652380D01*
X150761904Y-75700000D01*
X150809523Y-75747619D01*
X150857142Y-75842857D01*
X150857142Y-75985714D01*
X150809523Y-76080952D01*
X150761904Y-76128571D01*
X150666666Y-76176190D01*
X150285713Y-76176190D01*
X151761904Y-75652380D02*
X151285713Y-75652380D01*
X151238094Y-76128571D01*
X151285713Y-76080952D01*
X151380951Y-76033333D01*
X151619047Y-76033333D01*
X151714285Y-76080952D01*
X151761904Y-76128571D01*
X151809523Y-76223809D01*
X151809523Y-76461904D01*
X151761904Y-76557142D01*
X151714285Y-76604761D01*
X151619047Y-76652380D01*
X151380951Y-76652380D01*
X151285713Y-76604761D01*
X151238094Y-76557142D01*
G04 %TO.C,U4@% jlc*
X129252380Y-137561904D02*
X130061904Y-137561904D01*
X130157142Y-137514285D01*
X130204761Y-137466666D01*
X130252380Y-137371428D01*
X130252380Y-137180952D01*
X130204761Y-137085714D01*
X130157142Y-137038095D01*
X130061904Y-136990476D01*
X129252380Y-136990476D01*
X129585714Y-136085714D02*
X130252380Y-136085714D01*
X129204761Y-136323809D02*
X129919047Y-136561904D01*
X129919047Y-135942857D01*
G04 %TO.C,C39@% jlc*
X146307142Y-53542857D02*
X146354761Y-53590476D01*
X146402380Y-53733333D01*
X146402380Y-53828571D01*
X146354761Y-53971428D01*
X146259523Y-54066666D01*
X146164285Y-54114285D01*
X145973809Y-54161904D01*
X145830952Y-54161904D01*
X145640476Y-54114285D01*
X145545238Y-54066666D01*
X145450000Y-53971428D01*
X145402380Y-53828571D01*
X145402380Y-53733333D01*
X145450000Y-53590476D01*
X145497619Y-53542857D01*
X145402380Y-53209523D02*
X145402380Y-52590476D01*
X145783333Y-52923809D01*
X145783333Y-52780952D01*
X145830952Y-52685714D01*
X145878571Y-52638095D01*
X145973809Y-52590476D01*
X146211904Y-52590476D01*
X146307142Y-52638095D01*
X146354761Y-52685714D01*
X146402380Y-52780952D01*
X146402380Y-53066666D01*
X146354761Y-53161904D01*
X146307142Y-53209523D01*
X146402380Y-52114285D02*
X146402380Y-51923809D01*
X146354761Y-51828571D01*
X146307142Y-51780952D01*
X146164285Y-51685714D01*
X145973809Y-51638095D01*
X145592857Y-51638095D01*
X145497619Y-51685714D01*
X145450000Y-51733333D01*
X145402380Y-51828571D01*
X145402380Y-52019047D01*
X145450000Y-52114285D01*
X145497619Y-52161904D01*
X145592857Y-52209523D01*
X145830952Y-52209523D01*
X145926190Y-52161904D01*
X145973809Y-52114285D01*
X146021428Y-52019047D01*
X146021428Y-51828571D01*
X145973809Y-51733333D01*
X145926190Y-51685714D01*
X145830952Y-51638095D01*
G04 %TO.C,C38@% jlc*
X139107142Y-61707142D02*
X139059523Y-61754761D01*
X138916666Y-61802380D01*
X138821428Y-61802380D01*
X138678571Y-61754761D01*
X138583333Y-61659523D01*
X138535714Y-61564285D01*
X138488095Y-61373809D01*
X138488095Y-61230952D01*
X138535714Y-61040476D01*
X138583333Y-60945238D01*
X138678571Y-60850000D01*
X138821428Y-60802380D01*
X138916666Y-60802380D01*
X139059523Y-60850000D01*
X139107142Y-60897619D01*
X139440476Y-60802380D02*
X140059523Y-60802380D01*
X139726190Y-61183333D01*
X139869047Y-61183333D01*
X139964285Y-61230952D01*
X140011904Y-61278571D01*
X140059523Y-61373809D01*
X140059523Y-61611904D01*
X140011904Y-61707142D01*
X139964285Y-61754761D01*
X139869047Y-61802380D01*
X139583333Y-61802380D01*
X139488095Y-61754761D01*
X139440476Y-61707142D01*
X140630952Y-61230952D02*
X140535714Y-61183333D01*
X140488095Y-61135714D01*
X140440476Y-61040476D01*
X140440476Y-60992857D01*
X140488095Y-60897619D01*
X140535714Y-60850000D01*
X140630952Y-60802380D01*
X140821428Y-60802380D01*
X140916666Y-60850000D01*
X140964285Y-60897619D01*
X141011904Y-60992857D01*
X141011904Y-61040476D01*
X140964285Y-61135714D01*
X140916666Y-61183333D01*
X140821428Y-61230952D01*
X140630952Y-61230952D01*
X140535714Y-61278571D01*
X140488095Y-61326190D01*
X140440476Y-61421428D01*
X140440476Y-61611904D01*
X140488095Y-61707142D01*
X140535714Y-61754761D01*
X140630952Y-61802380D01*
X140821428Y-61802380D01*
X140916666Y-61754761D01*
X140964285Y-61707142D01*
X141011904Y-61611904D01*
X141011904Y-61421428D01*
X140964285Y-61326190D01*
X140916666Y-61278571D01*
X140821428Y-61230952D01*
G04 %TO.C,R30@% jlc*
X80557142Y-130952380D02*
X80223809Y-130476190D01*
X79985714Y-130952380D02*
X79985714Y-129952380D01*
X80366666Y-129952380D01*
X80461904Y-130000000D01*
X80509523Y-130047619D01*
X80557142Y-130142857D01*
X80557142Y-130285714D01*
X80509523Y-130380952D01*
X80461904Y-130428571D01*
X80366666Y-130476190D01*
X79985714Y-130476190D01*
X80890476Y-129952380D02*
X81509523Y-129952380D01*
X81176190Y-130333333D01*
X81319047Y-130333333D01*
X81414285Y-130380952D01*
X81461904Y-130428571D01*
X81509523Y-130523809D01*
X81509523Y-130761904D01*
X81461904Y-130857142D01*
X81414285Y-130904761D01*
X81319047Y-130952380D01*
X81033333Y-130952380D01*
X80938095Y-130904761D01*
X80890476Y-130857142D01*
X82128571Y-129952380D02*
X82223809Y-129952380D01*
X82319047Y-130000000D01*
X82366666Y-130047619D01*
X82414285Y-130142857D01*
X82461904Y-130333333D01*
X82461904Y-130571428D01*
X82414285Y-130761904D01*
X82366666Y-130857142D01*
X82319047Y-130904761D01*
X82223809Y-130952380D01*
X82128571Y-130952380D01*
X82033333Y-130904761D01*
X81985714Y-130857142D01*
X81938095Y-130761904D01*
X81890476Y-130571428D01*
X81890476Y-130333333D01*
X81938095Y-130142857D01*
X81985714Y-130047619D01*
X82033333Y-130000000D01*
X82128571Y-129952380D01*
G04 %TO.C,C34@% jlc*
X123057142Y-147342857D02*
X123104761Y-147390476D01*
X123152380Y-147533333D01*
X123152380Y-147628571D01*
X123104761Y-147771428D01*
X123009523Y-147866666D01*
X122914285Y-147914285D01*
X122723809Y-147961904D01*
X122580952Y-147961904D01*
X122390476Y-147914285D01*
X122295238Y-147866666D01*
X122200000Y-147771428D01*
X122152380Y-147628571D01*
X122152380Y-147533333D01*
X122200000Y-147390476D01*
X122247619Y-147342857D01*
X122152380Y-147009523D02*
X122152380Y-146390476D01*
X122533333Y-146723809D01*
X122533333Y-146580952D01*
X122580952Y-146485714D01*
X122628571Y-146438095D01*
X122723809Y-146390476D01*
X122961904Y-146390476D01*
X123057142Y-146438095D01*
X123104761Y-146485714D01*
X123152380Y-146580952D01*
X123152380Y-146866666D01*
X123104761Y-146961904D01*
X123057142Y-147009523D01*
X122485714Y-145533333D02*
X123152380Y-145533333D01*
X122104761Y-145771428D02*
X122819047Y-146009523D01*
X122819047Y-145390476D01*
G04 %TO.C,C10@% jlc*
X125957142Y-110642857D02*
X126004761Y-110690476D01*
X126052380Y-110833333D01*
X126052380Y-110928571D01*
X126004761Y-111071428D01*
X125909523Y-111166666D01*
X125814285Y-111214285D01*
X125623809Y-111261904D01*
X125480952Y-111261904D01*
X125290476Y-111214285D01*
X125195238Y-111166666D01*
X125100000Y-111071428D01*
X125052380Y-110928571D01*
X125052380Y-110833333D01*
X125100000Y-110690476D01*
X125147619Y-110642857D01*
X126052380Y-109690476D02*
X126052380Y-110261904D01*
X126052380Y-109976190D02*
X125052380Y-109976190D01*
X125195238Y-110071428D01*
X125290476Y-110166666D01*
X125338095Y-110261904D01*
X125052380Y-109071428D02*
X125052380Y-108976190D01*
X125100000Y-108880952D01*
X125147619Y-108833333D01*
X125242857Y-108785714D01*
X125433333Y-108738095D01*
X125671428Y-108738095D01*
X125861904Y-108785714D01*
X125957142Y-108833333D01*
X126004761Y-108880952D01*
X126052380Y-108976190D01*
X126052380Y-109071428D01*
X126004761Y-109166666D01*
X125957142Y-109214285D01*
X125861904Y-109261904D01*
X125671428Y-109309523D01*
X125433333Y-109309523D01*
X125242857Y-109261904D01*
X125147619Y-109214285D01*
X125100000Y-109166666D01*
X125052380Y-109071428D01*
G04 %TO.C,Q6@% jlc*
X91491011Y-126047619D02*
X91395773Y-126000000D01*
X91300535Y-125904761D01*
X91157678Y-125761904D01*
X91062440Y-125714285D01*
X90967202Y-125714285D01*
X91014821Y-125952380D02*
X90919583Y-125904761D01*
X90824345Y-125809523D01*
X90776726Y-125619047D01*
X90776726Y-125285714D01*
X90824345Y-125095238D01*
X90919583Y-125000000D01*
X91014821Y-124952380D01*
X91205297Y-124952380D01*
X91300535Y-125000000D01*
X91395773Y-125095238D01*
X91443392Y-125285714D01*
X91443392Y-125619047D01*
X91395773Y-125809523D01*
X91300535Y-125904761D01*
X91205297Y-125952380D01*
X91014821Y-125952380D01*
X92300535Y-124952380D02*
X92110059Y-124952380D01*
X92014821Y-125000000D01*
X91967202Y-125047619D01*
X91871964Y-125190476D01*
X91824345Y-125380952D01*
X91824345Y-125761904D01*
X91871964Y-125857142D01*
X91919583Y-125904761D01*
X92014821Y-125952380D01*
X92205297Y-125952380D01*
X92300535Y-125904761D01*
X92348154Y-125857142D01*
X92395773Y-125761904D01*
X92395773Y-125523809D01*
X92348154Y-125428571D01*
X92300535Y-125380952D01*
X92205297Y-125333333D01*
X92014821Y-125333333D01*
X91919583Y-125380952D01*
X91871964Y-125428571D01*
X91824345Y-125523809D01*
G04 %TO.C,C24@% jlc*
X109657142Y-127542857D02*
X109704761Y-127590476D01*
X109752380Y-127733333D01*
X109752380Y-127828571D01*
X109704761Y-127971428D01*
X109609523Y-128066666D01*
X109514285Y-128114285D01*
X109323809Y-128161904D01*
X109180952Y-128161904D01*
X108990476Y-128114285D01*
X108895238Y-128066666D01*
X108800000Y-127971428D01*
X108752380Y-127828571D01*
X108752380Y-127733333D01*
X108800000Y-127590476D01*
X108847619Y-127542857D01*
X108847619Y-127161904D02*
X108800000Y-127114285D01*
X108752380Y-127019047D01*
X108752380Y-126780952D01*
X108800000Y-126685714D01*
X108847619Y-126638095D01*
X108942857Y-126590476D01*
X109038095Y-126590476D01*
X109180952Y-126638095D01*
X109752380Y-127209523D01*
X109752380Y-126590476D01*
X109085714Y-125733333D02*
X109752380Y-125733333D01*
X108704761Y-125971428D02*
X109419047Y-126209523D01*
X109419047Y-125590476D01*
G04 %TO.C,R7@% jlc*
X107352380Y-146466666D02*
X106876190Y-146800000D01*
X107352380Y-147038095D02*
X106352380Y-147038095D01*
X106352380Y-146657142D01*
X106400000Y-146561904D01*
X106447619Y-146514285D01*
X106542857Y-146466666D01*
X106685714Y-146466666D01*
X106780952Y-146514285D01*
X106828571Y-146561904D01*
X106876190Y-146657142D01*
X106876190Y-147038095D01*
X106352380Y-146133333D02*
X106352380Y-145466666D01*
X107352380Y-145895238D01*
G04 %TO.C,C25@% jlc*
X105457142Y-147342857D02*
X105504761Y-147390476D01*
X105552380Y-147533333D01*
X105552380Y-147628571D01*
X105504761Y-147771428D01*
X105409523Y-147866666D01*
X105314285Y-147914285D01*
X105123809Y-147961904D01*
X104980952Y-147961904D01*
X104790476Y-147914285D01*
X104695238Y-147866666D01*
X104600000Y-147771428D01*
X104552380Y-147628571D01*
X104552380Y-147533333D01*
X104600000Y-147390476D01*
X104647619Y-147342857D01*
X104647619Y-146961904D02*
X104600000Y-146914285D01*
X104552380Y-146819047D01*
X104552380Y-146580952D01*
X104600000Y-146485714D01*
X104647619Y-146438095D01*
X104742857Y-146390476D01*
X104838095Y-146390476D01*
X104980952Y-146438095D01*
X105552380Y-147009523D01*
X105552380Y-146390476D01*
X104552380Y-145485714D02*
X104552380Y-145961904D01*
X105028571Y-146009523D01*
X104980952Y-145961904D01*
X104933333Y-145866666D01*
X104933333Y-145628571D01*
X104980952Y-145533333D01*
X105028571Y-145485714D01*
X105123809Y-145438095D01*
X105361904Y-145438095D01*
X105457142Y-145485714D01*
X105504761Y-145533333D01*
X105552380Y-145628571D01*
X105552380Y-145866666D01*
X105504761Y-145961904D01*
X105457142Y-146009523D01*
G04 %TO.C,R24@% jlc*
X150857142Y-70252380D02*
X150523809Y-69776190D01*
X150285714Y-70252380D02*
X150285714Y-69252380D01*
X150666666Y-69252380D01*
X150761904Y-69300000D01*
X150809523Y-69347619D01*
X150857142Y-69442857D01*
X150857142Y-69585714D01*
X150809523Y-69680952D01*
X150761904Y-69728571D01*
X150666666Y-69776190D01*
X150285714Y-69776190D01*
X151238095Y-69347619D02*
X151285714Y-69300000D01*
X151380952Y-69252380D01*
X151619047Y-69252380D01*
X151714285Y-69300000D01*
X151761904Y-69347619D01*
X151809523Y-69442857D01*
X151809523Y-69538095D01*
X151761904Y-69680952D01*
X151190476Y-70252380D01*
X151809523Y-70252380D01*
X152666666Y-69585714D02*
X152666666Y-70252380D01*
X152428571Y-69204761D02*
X152190476Y-69919047D01*
X152809523Y-69919047D01*
G04 %TO.C,C32@% jlc*
X120657142Y-127642857D02*
X120704761Y-127690476D01*
X120752380Y-127833333D01*
X120752380Y-127928571D01*
X120704761Y-128071428D01*
X120609523Y-128166666D01*
X120514285Y-128214285D01*
X120323809Y-128261904D01*
X120180952Y-128261904D01*
X119990476Y-128214285D01*
X119895238Y-128166666D01*
X119800000Y-128071428D01*
X119752380Y-127928571D01*
X119752380Y-127833333D01*
X119800000Y-127690476D01*
X119847619Y-127642857D01*
X119752380Y-127309523D02*
X119752380Y-126690476D01*
X120133333Y-127023809D01*
X120133333Y-126880952D01*
X120180952Y-126785714D01*
X120228571Y-126738095D01*
X120323809Y-126690476D01*
X120561904Y-126690476D01*
X120657142Y-126738095D01*
X120704761Y-126785714D01*
X120752380Y-126880952D01*
X120752380Y-127166666D01*
X120704761Y-127261904D01*
X120657142Y-127309523D01*
X119847619Y-126309523D02*
X119800000Y-126261904D01*
X119752380Y-126166666D01*
X119752380Y-125928571D01*
X119800000Y-125833333D01*
X119847619Y-125785714D01*
X119942857Y-125738095D01*
X120038095Y-125738095D01*
X120180952Y-125785714D01*
X120752380Y-126357142D01*
X120752380Y-125738095D01*
G04 %TO.C,R32@% jlc*
X135512380Y-59742857D02*
X135036190Y-60076190D01*
X135512380Y-60314285D02*
X134512380Y-60314285D01*
X134512380Y-59933333D01*
X134560000Y-59838095D01*
X134607619Y-59790476D01*
X134702857Y-59742857D01*
X134845714Y-59742857D01*
X134940952Y-59790476D01*
X134988571Y-59838095D01*
X135036190Y-59933333D01*
X135036190Y-60314285D01*
X134512380Y-59409523D02*
X134512380Y-58790476D01*
X134893333Y-59123809D01*
X134893333Y-58980952D01*
X134940952Y-58885714D01*
X134988571Y-58838095D01*
X135083809Y-58790476D01*
X135321904Y-58790476D01*
X135417142Y-58838095D01*
X135464761Y-58885714D01*
X135512380Y-58980952D01*
X135512380Y-59266666D01*
X135464761Y-59361904D01*
X135417142Y-59409523D01*
X134607619Y-58409523D02*
X134560000Y-58361904D01*
X134512380Y-58266666D01*
X134512380Y-58028571D01*
X134560000Y-57933333D01*
X134607619Y-57885714D01*
X134702857Y-57838095D01*
X134798095Y-57838095D01*
X134940952Y-57885714D01*
X135512380Y-58457142D01*
X135512380Y-57838095D01*
G04 %TO.C,R4@% jlc*
X101952380Y-146466666D02*
X101476190Y-146800000D01*
X101952380Y-147038095D02*
X100952380Y-147038095D01*
X100952380Y-146657142D01*
X101000000Y-146561904D01*
X101047619Y-146514285D01*
X101142857Y-146466666D01*
X101285714Y-146466666D01*
X101380952Y-146514285D01*
X101428571Y-146561904D01*
X101476190Y-146657142D01*
X101476190Y-147038095D01*
X101285714Y-145609523D02*
X101952380Y-145609523D01*
X100904761Y-145847619D02*
X101619047Y-146085714D01*
X101619047Y-145466666D01*
G04 %TO.C,C33@% jlc*
X88057142Y-96742857D02*
X88104761Y-96790476D01*
X88152380Y-96933333D01*
X88152380Y-97028571D01*
X88104761Y-97171428D01*
X88009523Y-97266666D01*
X87914285Y-97314285D01*
X87723809Y-97361904D01*
X87580952Y-97361904D01*
X87390476Y-97314285D01*
X87295238Y-97266666D01*
X87200000Y-97171428D01*
X87152380Y-97028571D01*
X87152380Y-96933333D01*
X87200000Y-96790476D01*
X87247619Y-96742857D01*
X87152380Y-96409523D02*
X87152380Y-95790476D01*
X87533333Y-96123809D01*
X87533333Y-95980952D01*
X87580952Y-95885714D01*
X87628571Y-95838095D01*
X87723809Y-95790476D01*
X87961904Y-95790476D01*
X88057142Y-95838095D01*
X88104761Y-95885714D01*
X88152380Y-95980952D01*
X88152380Y-96266666D01*
X88104761Y-96361904D01*
X88057142Y-96409523D01*
X87152380Y-95457142D02*
X87152380Y-94838095D01*
X87533333Y-95171428D01*
X87533333Y-95028571D01*
X87580952Y-94933333D01*
X87628571Y-94885714D01*
X87723809Y-94838095D01*
X87961904Y-94838095D01*
X88057142Y-94885714D01*
X88104761Y-94933333D01*
X88152380Y-95028571D01*
X88152380Y-95314285D01*
X88104761Y-95409523D01*
X88057142Y-95457142D01*
G04 %TO.C,C30@% jlc*
X131257142Y-147392857D02*
X131304761Y-147440476D01*
X131352380Y-147583333D01*
X131352380Y-147678571D01*
X131304761Y-147821428D01*
X131209523Y-147916666D01*
X131114285Y-147964285D01*
X130923809Y-148011904D01*
X130780952Y-148011904D01*
X130590476Y-147964285D01*
X130495238Y-147916666D01*
X130400000Y-147821428D01*
X130352380Y-147678571D01*
X130352380Y-147583333D01*
X130400000Y-147440476D01*
X130447619Y-147392857D01*
X130352380Y-147059523D02*
X130352380Y-146440476D01*
X130733333Y-146773809D01*
X130733333Y-146630952D01*
X130780952Y-146535714D01*
X130828571Y-146488095D01*
X130923809Y-146440476D01*
X131161904Y-146440476D01*
X131257142Y-146488095D01*
X131304761Y-146535714D01*
X131352380Y-146630952D01*
X131352380Y-146916666D01*
X131304761Y-147011904D01*
X131257142Y-147059523D01*
X130352380Y-145821428D02*
X130352380Y-145726190D01*
X130400000Y-145630952D01*
X130447619Y-145583333D01*
X130542857Y-145535714D01*
X130733333Y-145488095D01*
X130971428Y-145488095D01*
X131161904Y-145535714D01*
X131257142Y-145583333D01*
X131304761Y-145630952D01*
X131352380Y-145726190D01*
X131352380Y-145821428D01*
X131304761Y-145916666D01*
X131257142Y-145964285D01*
X131161904Y-146011904D01*
X130971428Y-146059523D01*
X130733333Y-146059523D01*
X130542857Y-146011904D01*
X130447619Y-145964285D01*
X130400000Y-145916666D01*
X130352380Y-145821428D01*
G04 %TO.C,R9@% jlc*
X100152380Y-146466666D02*
X99676190Y-146800000D01*
X100152380Y-147038095D02*
X99152380Y-147038095D01*
X99152380Y-146657142D01*
X99200000Y-146561904D01*
X99247619Y-146514285D01*
X99342857Y-146466666D01*
X99485714Y-146466666D01*
X99580952Y-146514285D01*
X99628571Y-146561904D01*
X99676190Y-146657142D01*
X99676190Y-147038095D01*
X100152380Y-145990476D02*
X100152380Y-145800000D01*
X100104761Y-145704761D01*
X100057142Y-145657142D01*
X99914285Y-145561904D01*
X99723809Y-145514285D01*
X99342857Y-145514285D01*
X99247619Y-145561904D01*
X99200000Y-145609523D01*
X99152380Y-145704761D01*
X99152380Y-145895238D01*
X99200000Y-145990476D01*
X99247619Y-146038095D01*
X99342857Y-146085714D01*
X99580952Y-146085714D01*
X99676190Y-146038095D01*
X99723809Y-145990476D01*
X99771428Y-145895238D01*
X99771428Y-145704761D01*
X99723809Y-145609523D01*
X99676190Y-145561904D01*
X99580952Y-145514285D01*
G04 %TO.C,C4@% jlc*
X112957142Y-78966666D02*
X113004761Y-79014285D01*
X113052380Y-79157142D01*
X113052380Y-79252380D01*
X113004761Y-79395238D01*
X112909523Y-79490476D01*
X112814285Y-79538095D01*
X112623809Y-79585714D01*
X112480952Y-79585714D01*
X112290476Y-79538095D01*
X112195238Y-79490476D01*
X112100000Y-79395238D01*
X112052380Y-79252380D01*
X112052380Y-79157142D01*
X112100000Y-79014285D01*
X112147619Y-78966666D01*
X112385714Y-78109523D02*
X113052380Y-78109523D01*
X112004761Y-78347619D02*
X112719047Y-78585714D01*
X112719047Y-77966666D01*
G04 %TO.C,C31@% jlc*
X122657142Y-127642857D02*
X122704761Y-127690476D01*
X122752380Y-127833333D01*
X122752380Y-127928571D01*
X122704761Y-128071428D01*
X122609523Y-128166666D01*
X122514285Y-128214285D01*
X122323809Y-128261904D01*
X122180952Y-128261904D01*
X121990476Y-128214285D01*
X121895238Y-128166666D01*
X121800000Y-128071428D01*
X121752380Y-127928571D01*
X121752380Y-127833333D01*
X121800000Y-127690476D01*
X121847619Y-127642857D01*
X121752380Y-127309523D02*
X121752380Y-126690476D01*
X122133333Y-127023809D01*
X122133333Y-126880952D01*
X122180952Y-126785714D01*
X122228571Y-126738095D01*
X122323809Y-126690476D01*
X122561904Y-126690476D01*
X122657142Y-126738095D01*
X122704761Y-126785714D01*
X122752380Y-126880952D01*
X122752380Y-127166666D01*
X122704761Y-127261904D01*
X122657142Y-127309523D01*
X122752380Y-125738095D02*
X122752380Y-126309523D01*
X122752380Y-126023809D02*
X121752380Y-126023809D01*
X121895238Y-126119047D01*
X121990476Y-126214285D01*
X122038095Y-126309523D01*
G04 %TO.C,C36@% jlc*
X125057142Y-147342857D02*
X125104761Y-147390476D01*
X125152380Y-147533333D01*
X125152380Y-147628571D01*
X125104761Y-147771428D01*
X125009523Y-147866666D01*
X124914285Y-147914285D01*
X124723809Y-147961904D01*
X124580952Y-147961904D01*
X124390476Y-147914285D01*
X124295238Y-147866666D01*
X124200000Y-147771428D01*
X124152380Y-147628571D01*
X124152380Y-147533333D01*
X124200000Y-147390476D01*
X124247619Y-147342857D01*
X124152380Y-147009523D02*
X124152380Y-146390476D01*
X124533333Y-146723809D01*
X124533333Y-146580952D01*
X124580952Y-146485714D01*
X124628571Y-146438095D01*
X124723809Y-146390476D01*
X124961904Y-146390476D01*
X125057142Y-146438095D01*
X125104761Y-146485714D01*
X125152380Y-146580952D01*
X125152380Y-146866666D01*
X125104761Y-146961904D01*
X125057142Y-147009523D01*
X124152380Y-145533333D02*
X124152380Y-145723809D01*
X124200000Y-145819047D01*
X124247619Y-145866666D01*
X124390476Y-145961904D01*
X124580952Y-146009523D01*
X124961904Y-146009523D01*
X125057142Y-145961904D01*
X125104761Y-145914285D01*
X125152380Y-145819047D01*
X125152380Y-145628571D01*
X125104761Y-145533333D01*
X125057142Y-145485714D01*
X124961904Y-145438095D01*
X124723809Y-145438095D01*
X124628571Y-145485714D01*
X124580952Y-145533333D01*
X124533333Y-145628571D01*
X124533333Y-145819047D01*
X124580952Y-145914285D01*
X124628571Y-145961904D01*
X124723809Y-146009523D01*
G04 %TO.C,U5@% jlc*
X92638095Y-88652380D02*
X92638095Y-89461904D01*
X92685714Y-89557142D01*
X92733333Y-89604761D01*
X92828571Y-89652380D01*
X93019047Y-89652380D01*
X93114285Y-89604761D01*
X93161904Y-89557142D01*
X93209523Y-89461904D01*
X93209523Y-88652380D01*
X94161904Y-88652380D02*
X93685714Y-88652380D01*
X93638095Y-89128571D01*
X93685714Y-89080952D01*
X93780952Y-89033333D01*
X94019047Y-89033333D01*
X94114285Y-89080952D01*
X94161904Y-89128571D01*
X94209523Y-89223809D01*
X94209523Y-89461904D01*
X94161904Y-89557142D01*
X94114285Y-89604761D01*
X94019047Y-89652380D01*
X93780952Y-89652380D01*
X93685714Y-89604761D01*
X93638095Y-89557142D01*
G04 %TO.C,Q1@% jlc*
X140904761Y-75597619D02*
X140809523Y-75550000D01*
X140714285Y-75454761D01*
X140571428Y-75311904D01*
X140476190Y-75264285D01*
X140380952Y-75264285D01*
X140428571Y-75502380D02*
X140333333Y-75454761D01*
X140238095Y-75359523D01*
X140190476Y-75169047D01*
X140190476Y-74835714D01*
X140238095Y-74645238D01*
X140333333Y-74550000D01*
X140428571Y-74502380D01*
X140619047Y-74502380D01*
X140714285Y-74550000D01*
X140809523Y-74645238D01*
X140857142Y-74835714D01*
X140857142Y-75169047D01*
X140809523Y-75359523D01*
X140714285Y-75454761D01*
X140619047Y-75502380D01*
X140428571Y-75502380D01*
X141809523Y-75502380D02*
X141238095Y-75502380D01*
X141523809Y-75502380D02*
X141523809Y-74502380D01*
X141428571Y-74645238D01*
X141333333Y-74740476D01*
X141238095Y-74788095D01*
G04 %TO.C,Q4@% jlc*
X140904761Y-92547619D02*
X140809523Y-92500000D01*
X140714285Y-92404761D01*
X140571428Y-92261904D01*
X140476190Y-92214285D01*
X140380952Y-92214285D01*
X140428571Y-92452380D02*
X140333333Y-92404761D01*
X140238095Y-92309523D01*
X140190476Y-92119047D01*
X140190476Y-91785714D01*
X140238095Y-91595238D01*
X140333333Y-91500000D01*
X140428571Y-91452380D01*
X140619047Y-91452380D01*
X140714285Y-91500000D01*
X140809523Y-91595238D01*
X140857142Y-91785714D01*
X140857142Y-92119047D01*
X140809523Y-92309523D01*
X140714285Y-92404761D01*
X140619047Y-92452380D01*
X140428571Y-92452380D01*
X141714285Y-91785714D02*
X141714285Y-92452380D01*
X141476190Y-91404761D02*
X141238095Y-92119047D01*
X141857142Y-92119047D01*
G04 %TO.C,R25@% jlc*
X150857142Y-72252380D02*
X150523809Y-71776190D01*
X150285714Y-72252380D02*
X150285714Y-71252380D01*
X150666666Y-71252380D01*
X150761904Y-71300000D01*
X150809523Y-71347619D01*
X150857142Y-71442857D01*
X150857142Y-71585714D01*
X150809523Y-71680952D01*
X150761904Y-71728571D01*
X150666666Y-71776190D01*
X150285714Y-71776190D01*
X151238095Y-71347619D02*
X151285714Y-71300000D01*
X151380952Y-71252380D01*
X151619047Y-71252380D01*
X151714285Y-71300000D01*
X151761904Y-71347619D01*
X151809523Y-71442857D01*
X151809523Y-71538095D01*
X151761904Y-71680952D01*
X151190476Y-72252380D01*
X151809523Y-72252380D01*
X152714285Y-71252380D02*
X152238095Y-71252380D01*
X152190476Y-71728571D01*
X152238095Y-71680952D01*
X152333333Y-71633333D01*
X152571428Y-71633333D01*
X152666666Y-71680952D01*
X152714285Y-71728571D01*
X152761904Y-71823809D01*
X152761904Y-72061904D01*
X152714285Y-72157142D01*
X152666666Y-72204761D01*
X152571428Y-72252380D01*
X152333333Y-72252380D01*
X152238095Y-72204761D01*
X152190476Y-72157142D01*
G04 %TO.C,R33@% jlc*
X137512380Y-59742857D02*
X137036190Y-60076190D01*
X137512380Y-60314285D02*
X136512380Y-60314285D01*
X136512380Y-59933333D01*
X136560000Y-59838095D01*
X136607619Y-59790476D01*
X136702857Y-59742857D01*
X136845714Y-59742857D01*
X136940952Y-59790476D01*
X136988571Y-59838095D01*
X137036190Y-59933333D01*
X137036190Y-60314285D01*
X136512380Y-59409523D02*
X136512380Y-58790476D01*
X136893333Y-59123809D01*
X136893333Y-58980952D01*
X136940952Y-58885714D01*
X136988571Y-58838095D01*
X137083809Y-58790476D01*
X137321904Y-58790476D01*
X137417142Y-58838095D01*
X137464761Y-58885714D01*
X137512380Y-58980952D01*
X137512380Y-59266666D01*
X137464761Y-59361904D01*
X137417142Y-59409523D01*
X136512380Y-58457142D02*
X136512380Y-57838095D01*
X136893333Y-58171428D01*
X136893333Y-58028571D01*
X136940952Y-57933333D01*
X136988571Y-57885714D01*
X137083809Y-57838095D01*
X137321904Y-57838095D01*
X137417142Y-57885714D01*
X137464761Y-57933333D01*
X137512380Y-58028571D01*
X137512380Y-58314285D01*
X137464761Y-58409523D01*
X137417142Y-58457142D01*
G04 %TO.C,L1@% jlc*
X151312380Y-61266666D02*
X151312380Y-61742857D01*
X150312380Y-61742857D01*
X151312380Y-60409523D02*
X151312380Y-60980952D01*
X151312380Y-60695238D02*
X150312380Y-60695238D01*
X150455238Y-60790476D01*
X150550476Y-60885714D01*
X150598095Y-60980952D01*
G04 %TO.C,Q7@% jlc*
X91491011Y-130247619D02*
X91395773Y-130200000D01*
X91300535Y-130104761D01*
X91157678Y-129961904D01*
X91062440Y-129914285D01*
X90967202Y-129914285D01*
X91014821Y-130152380D02*
X90919583Y-130104761D01*
X90824345Y-130009523D01*
X90776726Y-129819047D01*
X90776726Y-129485714D01*
X90824345Y-129295238D01*
X90919583Y-129200000D01*
X91014821Y-129152380D01*
X91205297Y-129152380D01*
X91300535Y-129200000D01*
X91395773Y-129295238D01*
X91443392Y-129485714D01*
X91443392Y-129819047D01*
X91395773Y-130009523D01*
X91300535Y-130104761D01*
X91205297Y-130152380D01*
X91014821Y-130152380D01*
X91776726Y-129152380D02*
X92443392Y-129152380D01*
X92014821Y-130152380D01*
G04 %TO.C,R10@% jlc*
X132557142Y-87052380D02*
X132223809Y-86576190D01*
X131985714Y-87052380D02*
X131985714Y-86052380D01*
X132366666Y-86052380D01*
X132461904Y-86100000D01*
X132509523Y-86147619D01*
X132557142Y-86242857D01*
X132557142Y-86385714D01*
X132509523Y-86480952D01*
X132461904Y-86528571D01*
X132366666Y-86576190D01*
X131985714Y-86576190D01*
X133509523Y-87052380D02*
X132938095Y-87052380D01*
X133223809Y-87052380D02*
X133223809Y-86052380D01*
X133128571Y-86195238D01*
X133033333Y-86290476D01*
X132938095Y-86338095D01*
X134128571Y-86052380D02*
X134223809Y-86052380D01*
X134319047Y-86100000D01*
X134366666Y-86147619D01*
X134414285Y-86242857D01*
X134461904Y-86433333D01*
X134461904Y-86671428D01*
X134414285Y-86861904D01*
X134366666Y-86957142D01*
X134319047Y-87004761D01*
X134223809Y-87052380D01*
X134128571Y-87052380D01*
X134033333Y-87004761D01*
X133985714Y-86957142D01*
X133938095Y-86861904D01*
X133890476Y-86671428D01*
X133890476Y-86433333D01*
X133938095Y-86242857D01*
X133985714Y-86147619D01*
X134033333Y-86100000D01*
X134128571Y-86052380D01*
G04 %TO.C,U1@% jlc*
X99272380Y-137561904D02*
X100081904Y-137561904D01*
X100177142Y-137514285D01*
X100224761Y-137466666D01*
X100272380Y-137371428D01*
X100272380Y-137180952D01*
X100224761Y-137085714D01*
X100177142Y-137038095D01*
X100081904Y-136990476D01*
X99272380Y-136990476D01*
X100272380Y-135990476D02*
X100272380Y-136561904D01*
X100272380Y-136276190D02*
X99272380Y-136276190D01*
X99415238Y-136371428D01*
X99510476Y-136466666D01*
X99558095Y-136561904D01*
G04 %TO.C,R16@% jlc*
X101752380Y-127542857D02*
X101276190Y-127876190D01*
X101752380Y-128114285D02*
X100752380Y-128114285D01*
X100752380Y-127733333D01*
X100800000Y-127638095D01*
X100847619Y-127590476D01*
X100942857Y-127542857D01*
X101085714Y-127542857D01*
X101180952Y-127590476D01*
X101228571Y-127638095D01*
X101276190Y-127733333D01*
X101276190Y-128114285D01*
X101752380Y-126590476D02*
X101752380Y-127161904D01*
X101752380Y-126876190D02*
X100752380Y-126876190D01*
X100895238Y-126971428D01*
X100990476Y-127066666D01*
X101038095Y-127161904D01*
X100752380Y-125733333D02*
X100752380Y-125923809D01*
X100800000Y-126019047D01*
X100847619Y-126066666D01*
X100990476Y-126161904D01*
X101180952Y-126209523D01*
X101561904Y-126209523D01*
X101657142Y-126161904D01*
X101704761Y-126114285D01*
X101752380Y-126019047D01*
X101752380Y-125828571D01*
X101704761Y-125733333D01*
X101657142Y-125685714D01*
X101561904Y-125638095D01*
X101323809Y-125638095D01*
X101228571Y-125685714D01*
X101180952Y-125733333D01*
X101133333Y-125828571D01*
X101133333Y-126019047D01*
X101180952Y-126114285D01*
X101228571Y-126161904D01*
X101323809Y-126209523D01*
G04 %TO.C,C11@% jlc*
X132557142Y-95957142D02*
X132509523Y-96004761D01*
X132366666Y-96052380D01*
X132271428Y-96052380D01*
X132128571Y-96004761D01*
X132033333Y-95909523D01*
X131985714Y-95814285D01*
X131938095Y-95623809D01*
X131938095Y-95480952D01*
X131985714Y-95290476D01*
X132033333Y-95195238D01*
X132128571Y-95100000D01*
X132271428Y-95052380D01*
X132366666Y-95052380D01*
X132509523Y-95100000D01*
X132557142Y-95147619D01*
X133509523Y-96052380D02*
X132938095Y-96052380D01*
X133223809Y-96052380D02*
X133223809Y-95052380D01*
X133128571Y-95195238D01*
X133033333Y-95290476D01*
X132938095Y-95338095D01*
X134461904Y-96052380D02*
X133890476Y-96052380D01*
X134176190Y-96052380D02*
X134176190Y-95052380D01*
X134080952Y-95195238D01*
X133985714Y-95290476D01*
X133890476Y-95338095D01*
G04 %TO.C,R13@% jlc*
X105652380Y-127542857D02*
X105176190Y-127876190D01*
X105652380Y-128114285D02*
X104652380Y-128114285D01*
X104652380Y-127733333D01*
X104700000Y-127638095D01*
X104747619Y-127590476D01*
X104842857Y-127542857D01*
X104985714Y-127542857D01*
X105080952Y-127590476D01*
X105128571Y-127638095D01*
X105176190Y-127733333D01*
X105176190Y-128114285D01*
X105652380Y-126590476D02*
X105652380Y-127161904D01*
X105652380Y-126876190D02*
X104652380Y-126876190D01*
X104795238Y-126971428D01*
X104890476Y-127066666D01*
X104938095Y-127161904D01*
X104652380Y-126257142D02*
X104652380Y-125638095D01*
X105033333Y-125971428D01*
X105033333Y-125828571D01*
X105080952Y-125733333D01*
X105128571Y-125685714D01*
X105223809Y-125638095D01*
X105461904Y-125638095D01*
X105557142Y-125685714D01*
X105604761Y-125733333D01*
X105652380Y-125828571D01*
X105652380Y-126114285D01*
X105604761Y-126209523D01*
X105557142Y-126257142D01*
G04 %TO.C,Q2@% jlc*
X140904761Y-83947619D02*
X140809523Y-83900000D01*
X140714285Y-83804761D01*
X140571428Y-83661904D01*
X140476190Y-83614285D01*
X140380952Y-83614285D01*
X140428571Y-83852380D02*
X140333333Y-83804761D01*
X140238095Y-83709523D01*
X140190476Y-83519047D01*
X140190476Y-83185714D01*
X140238095Y-82995238D01*
X140333333Y-82900000D01*
X140428571Y-82852380D01*
X140619047Y-82852380D01*
X140714285Y-82900000D01*
X140809523Y-82995238D01*
X140857142Y-83185714D01*
X140857142Y-83519047D01*
X140809523Y-83709523D01*
X140714285Y-83804761D01*
X140619047Y-83852380D01*
X140428571Y-83852380D01*
X141238095Y-82947619D02*
X141285714Y-82900000D01*
X141380952Y-82852380D01*
X141619047Y-82852380D01*
X141714285Y-82900000D01*
X141761904Y-82947619D01*
X141809523Y-83042857D01*
X141809523Y-83138095D01*
X141761904Y-83280952D01*
X141190476Y-83852380D01*
X141809523Y-83852380D01*
G04 %TO.C,R23@% jlc*
X150857142Y-93552380D02*
X150523809Y-93076190D01*
X150285714Y-93552380D02*
X150285714Y-92552380D01*
X150666666Y-92552380D01*
X150761904Y-92600000D01*
X150809523Y-92647619D01*
X150857142Y-92742857D01*
X150857142Y-92885714D01*
X150809523Y-92980952D01*
X150761904Y-93028571D01*
X150666666Y-93076190D01*
X150285714Y-93076190D01*
X151238095Y-92647619D02*
X151285714Y-92600000D01*
X151380952Y-92552380D01*
X151619047Y-92552380D01*
X151714285Y-92600000D01*
X151761904Y-92647619D01*
X151809523Y-92742857D01*
X151809523Y-92838095D01*
X151761904Y-92980952D01*
X151190476Y-93552380D01*
X151809523Y-93552380D01*
X152142857Y-92552380D02*
X152761904Y-92552380D01*
X152428571Y-92933333D01*
X152571428Y-92933333D01*
X152666666Y-92980952D01*
X152714285Y-93028571D01*
X152761904Y-93123809D01*
X152761904Y-93361904D01*
X152714285Y-93457142D01*
X152666666Y-93504761D01*
X152571428Y-93552380D01*
X152285714Y-93552380D01*
X152190476Y-93504761D01*
X152142857Y-93457142D01*
G04 %TO.C,C6@% jlc*
X98833333Y-90957142D02*
X98785714Y-91004761D01*
X98642857Y-91052380D01*
X98547619Y-91052380D01*
X98404761Y-91004761D01*
X98309523Y-90909523D01*
X98261904Y-90814285D01*
X98214285Y-90623809D01*
X98214285Y-90480952D01*
X98261904Y-90290476D01*
X98309523Y-90195238D01*
X98404761Y-90100000D01*
X98547619Y-90052380D01*
X98642857Y-90052380D01*
X98785714Y-90100000D01*
X98833333Y-90147619D01*
X99690476Y-90052380D02*
X99500000Y-90052380D01*
X99404761Y-90100000D01*
X99357142Y-90147619D01*
X99261904Y-90290476D01*
X99214285Y-90480952D01*
X99214285Y-90861904D01*
X99261904Y-90957142D01*
X99309523Y-91004761D01*
X99404761Y-91052380D01*
X99595238Y-91052380D01*
X99690476Y-91004761D01*
X99738095Y-90957142D01*
X99785714Y-90861904D01*
X99785714Y-90623809D01*
X99738095Y-90528571D01*
X99690476Y-90480952D01*
X99595238Y-90433333D01*
X99404761Y-90433333D01*
X99309523Y-90480952D01*
X99261904Y-90528571D01*
X99214285Y-90623809D01*
G04 %TO.C,C28@% jlc*
X121057142Y-147342857D02*
X121104761Y-147390476D01*
X121152380Y-147533333D01*
X121152380Y-147628571D01*
X121104761Y-147771428D01*
X121009523Y-147866666D01*
X120914285Y-147914285D01*
X120723809Y-147961904D01*
X120580952Y-147961904D01*
X120390476Y-147914285D01*
X120295238Y-147866666D01*
X120200000Y-147771428D01*
X120152380Y-147628571D01*
X120152380Y-147533333D01*
X120200000Y-147390476D01*
X120247619Y-147342857D01*
X120247619Y-146961904D02*
X120200000Y-146914285D01*
X120152380Y-146819047D01*
X120152380Y-146580952D01*
X120200000Y-146485714D01*
X120247619Y-146438095D01*
X120342857Y-146390476D01*
X120438095Y-146390476D01*
X120580952Y-146438095D01*
X121152380Y-147009523D01*
X121152380Y-146390476D01*
X120580952Y-145819047D02*
X120533333Y-145914285D01*
X120485714Y-145961904D01*
X120390476Y-146009523D01*
X120342857Y-146009523D01*
X120247619Y-145961904D01*
X120200000Y-145914285D01*
X120152380Y-145819047D01*
X120152380Y-145628571D01*
X120200000Y-145533333D01*
X120247619Y-145485714D01*
X120342857Y-145438095D01*
X120390476Y-145438095D01*
X120485714Y-145485714D01*
X120533333Y-145533333D01*
X120580952Y-145628571D01*
X120580952Y-145819047D01*
X120628571Y-145914285D01*
X120676190Y-145961904D01*
X120771428Y-146009523D01*
X120961904Y-146009523D01*
X121057142Y-145961904D01*
X121104761Y-145914285D01*
X121152380Y-145819047D01*
X121152380Y-145628571D01*
X121104761Y-145533333D01*
X121057142Y-145485714D01*
X120961904Y-145438095D01*
X120771428Y-145438095D01*
X120676190Y-145485714D01*
X120628571Y-145533333D01*
X120580952Y-145628571D01*
G04 %TO.C,C13@% jlc*
X132557142Y-83757142D02*
X132509523Y-83804761D01*
X132366666Y-83852380D01*
X132271428Y-83852380D01*
X132128571Y-83804761D01*
X132033333Y-83709523D01*
X131985714Y-83614285D01*
X131938095Y-83423809D01*
X131938095Y-83280952D01*
X131985714Y-83090476D01*
X132033333Y-82995238D01*
X132128571Y-82900000D01*
X132271428Y-82852380D01*
X132366666Y-82852380D01*
X132509523Y-82900000D01*
X132557142Y-82947619D01*
X133509523Y-83852380D02*
X132938095Y-83852380D01*
X133223809Y-83852380D02*
X133223809Y-82852380D01*
X133128571Y-82995238D01*
X133033333Y-83090476D01*
X132938095Y-83138095D01*
X133842857Y-82852380D02*
X134461904Y-82852380D01*
X134128571Y-83233333D01*
X134271428Y-83233333D01*
X134366666Y-83280952D01*
X134414285Y-83328571D01*
X134461904Y-83423809D01*
X134461904Y-83661904D01*
X134414285Y-83757142D01*
X134366666Y-83804761D01*
X134271428Y-83852380D01*
X133985714Y-83852380D01*
X133890476Y-83804761D01*
X133842857Y-83757142D01*
G04 %TO.C,Q5@% jlc*
X140904761Y-88647619D02*
X140809523Y-88600000D01*
X140714285Y-88504761D01*
X140571428Y-88361904D01*
X140476190Y-88314285D01*
X140380952Y-88314285D01*
X140428571Y-88552380D02*
X140333333Y-88504761D01*
X140238095Y-88409523D01*
X140190476Y-88219047D01*
X140190476Y-87885714D01*
X140238095Y-87695238D01*
X140333333Y-87600000D01*
X140428571Y-87552380D01*
X140619047Y-87552380D01*
X140714285Y-87600000D01*
X140809523Y-87695238D01*
X140857142Y-87885714D01*
X140857142Y-88219047D01*
X140809523Y-88409523D01*
X140714285Y-88504761D01*
X140619047Y-88552380D01*
X140428571Y-88552380D01*
X141761904Y-87552380D02*
X141285714Y-87552380D01*
X141238095Y-88028571D01*
X141285714Y-87980952D01*
X141380952Y-87933333D01*
X141619047Y-87933333D01*
X141714285Y-87980952D01*
X141761904Y-88028571D01*
X141809523Y-88123809D01*
X141809523Y-88361904D01*
X141761904Y-88457142D01*
X141714285Y-88504761D01*
X141619047Y-88552380D01*
X141380952Y-88552380D01*
X141285714Y-88504761D01*
X141238095Y-88457142D01*
G04 %TO.C,R3@% jlc*
X103752380Y-146466666D02*
X103276190Y-146800000D01*
X103752380Y-147038095D02*
X102752380Y-147038095D01*
X102752380Y-146657142D01*
X102800000Y-146561904D01*
X102847619Y-146514285D01*
X102942857Y-146466666D01*
X103085714Y-146466666D01*
X103180952Y-146514285D01*
X103228571Y-146561904D01*
X103276190Y-146657142D01*
X103276190Y-147038095D01*
X102752380Y-146133333D02*
X102752380Y-145514285D01*
X103133333Y-145847619D01*
X103133333Y-145704761D01*
X103180952Y-145609523D01*
X103228571Y-145561904D01*
X103323809Y-145514285D01*
X103561904Y-145514285D01*
X103657142Y-145561904D01*
X103704761Y-145609523D01*
X103752380Y-145704761D01*
X103752380Y-145990476D01*
X103704761Y-146085714D01*
X103657142Y-146133333D01*
G04 %TO.C,C14@% jlc*
X117957142Y-110442857D02*
X118004761Y-110490476D01*
X118052380Y-110633333D01*
X118052380Y-110728571D01*
X118004761Y-110871428D01*
X117909523Y-110966666D01*
X117814285Y-111014285D01*
X117623809Y-111061904D01*
X117480952Y-111061904D01*
X117290476Y-111014285D01*
X117195238Y-110966666D01*
X117100000Y-110871428D01*
X117052380Y-110728571D01*
X117052380Y-110633333D01*
X117100000Y-110490476D01*
X117147619Y-110442857D01*
X118052380Y-109490476D02*
X118052380Y-110061904D01*
X118052380Y-109776190D02*
X117052380Y-109776190D01*
X117195238Y-109871428D01*
X117290476Y-109966666D01*
X117338095Y-110061904D01*
X117385714Y-108633333D02*
X118052380Y-108633333D01*
X117004761Y-108871428D02*
X117719047Y-109109523D01*
X117719047Y-108490476D01*
G04 %TO.C,U2@% jlc*
X127402380Y-93561904D02*
X128211904Y-93561904D01*
X128307142Y-93514285D01*
X128354761Y-93466666D01*
X128402380Y-93371428D01*
X128402380Y-93180952D01*
X128354761Y-93085714D01*
X128307142Y-93038095D01*
X128211904Y-92990476D01*
X127402380Y-92990476D01*
X127497619Y-92561904D02*
X127450000Y-92514285D01*
X127402380Y-92419047D01*
X127402380Y-92180952D01*
X127450000Y-92085714D01*
X127497619Y-92038095D01*
X127592857Y-91990476D01*
X127688095Y-91990476D01*
X127830952Y-92038095D01*
X128402380Y-92609523D01*
X128402380Y-91990476D01*
G04 %TO.C,Y1@% jlc*
X117923809Y-74576190D02*
X117923809Y-75052380D01*
X117590476Y-74052380D02*
X117923809Y-74576190D01*
X118257142Y-74052380D01*
X119114285Y-75052380D02*
X118542857Y-75052380D01*
X118828571Y-75052380D02*
X118828571Y-74052380D01*
X118733333Y-74195238D01*
X118638095Y-74290476D01*
X118542857Y-74338095D01*
G04 %TO.C,C20@% jlc*
X103657142Y-127542857D02*
X103704761Y-127590476D01*
X103752380Y-127733333D01*
X103752380Y-127828571D01*
X103704761Y-127971428D01*
X103609523Y-128066666D01*
X103514285Y-128114285D01*
X103323809Y-128161904D01*
X103180952Y-128161904D01*
X102990476Y-128114285D01*
X102895238Y-128066666D01*
X102800000Y-127971428D01*
X102752380Y-127828571D01*
X102752380Y-127733333D01*
X102800000Y-127590476D01*
X102847619Y-127542857D01*
X102847619Y-127161904D02*
X102800000Y-127114285D01*
X102752380Y-127019047D01*
X102752380Y-126780952D01*
X102800000Y-126685714D01*
X102847619Y-126638095D01*
X102942857Y-126590476D01*
X103038095Y-126590476D01*
X103180952Y-126638095D01*
X103752380Y-127209523D01*
X103752380Y-126590476D01*
X102752380Y-125971428D02*
X102752380Y-125876190D01*
X102800000Y-125780952D01*
X102847619Y-125733333D01*
X102942857Y-125685714D01*
X103133333Y-125638095D01*
X103371428Y-125638095D01*
X103561904Y-125685714D01*
X103657142Y-125733333D01*
X103704761Y-125780952D01*
X103752380Y-125876190D01*
X103752380Y-125971428D01*
X103704761Y-126066666D01*
X103657142Y-126114285D01*
X103561904Y-126161904D01*
X103371428Y-126209523D01*
X103133333Y-126209523D01*
X102942857Y-126161904D01*
X102847619Y-126114285D01*
X102800000Y-126066666D01*
X102752380Y-125971428D01*
G04 %TO.C,C16@% jlc*
X108157142Y-76042857D02*
X108204761Y-76090476D01*
X108252380Y-76233333D01*
X108252380Y-76328571D01*
X108204761Y-76471428D01*
X108109523Y-76566666D01*
X108014285Y-76614285D01*
X107823809Y-76661904D01*
X107680952Y-76661904D01*
X107490476Y-76614285D01*
X107395238Y-76566666D01*
X107300000Y-76471428D01*
X107252380Y-76328571D01*
X107252380Y-76233333D01*
X107300000Y-76090476D01*
X107347619Y-76042857D01*
X108252380Y-75090476D02*
X108252380Y-75661904D01*
X108252380Y-75376190D02*
X107252380Y-75376190D01*
X107395238Y-75471428D01*
X107490476Y-75566666D01*
X107538095Y-75661904D01*
X107252380Y-74233333D02*
X107252380Y-74423809D01*
X107300000Y-74519047D01*
X107347619Y-74566666D01*
X107490476Y-74661904D01*
X107680952Y-74709523D01*
X108061904Y-74709523D01*
X108157142Y-74661904D01*
X108204761Y-74614285D01*
X108252380Y-74519047D01*
X108252380Y-74328571D01*
X108204761Y-74233333D01*
X108157142Y-74185714D01*
X108061904Y-74138095D01*
X107823809Y-74138095D01*
X107728571Y-74185714D01*
X107680952Y-74233333D01*
X107633333Y-74328571D01*
X107633333Y-74519047D01*
X107680952Y-74614285D01*
X107728571Y-74661904D01*
X107823809Y-74709523D01*
G04 %TO.C,D1@% jlc*
X132652380Y-54338095D02*
X131652380Y-54338095D01*
X131652380Y-54100000D01*
X131700000Y-53957142D01*
X131795238Y-53861904D01*
X131890476Y-53814285D01*
X132080952Y-53766666D01*
X132223809Y-53766666D01*
X132414285Y-53814285D01*
X132509523Y-53861904D01*
X132604761Y-53957142D01*
X132652380Y-54100000D01*
X132652380Y-54338095D01*
X132652380Y-52814285D02*
X132652380Y-53385714D01*
X132652380Y-53100000D02*
X131652380Y-53100000D01*
X131795238Y-53195238D01*
X131890476Y-53290476D01*
X131938095Y-53385714D01*
G04 %TO.C,C5@% jlc*
X98833333Y-85557142D02*
X98785714Y-85604761D01*
X98642857Y-85652380D01*
X98547619Y-85652380D01*
X98404761Y-85604761D01*
X98309523Y-85509523D01*
X98261904Y-85414285D01*
X98214285Y-85223809D01*
X98214285Y-85080952D01*
X98261904Y-84890476D01*
X98309523Y-84795238D01*
X98404761Y-84700000D01*
X98547619Y-84652380D01*
X98642857Y-84652380D01*
X98785714Y-84700000D01*
X98833333Y-84747619D01*
X99738095Y-84652380D02*
X99261904Y-84652380D01*
X99214285Y-85128571D01*
X99261904Y-85080952D01*
X99357142Y-85033333D01*
X99595238Y-85033333D01*
X99690476Y-85080952D01*
X99738095Y-85128571D01*
X99785714Y-85223809D01*
X99785714Y-85461904D01*
X99738095Y-85557142D01*
X99690476Y-85604761D01*
X99595238Y-85652380D01*
X99357142Y-85652380D01*
X99261904Y-85604761D01*
X99214285Y-85557142D01*
G04 %TO.C,R29@% jlc*
X80557142Y-124752380D02*
X80223809Y-124276190D01*
X79985714Y-124752380D02*
X79985714Y-123752380D01*
X80366666Y-123752380D01*
X80461904Y-123800000D01*
X80509523Y-123847619D01*
X80557142Y-123942857D01*
X80557142Y-124085714D01*
X80509523Y-124180952D01*
X80461904Y-124228571D01*
X80366666Y-124276190D01*
X79985714Y-124276190D01*
X80938095Y-123847619D02*
X80985714Y-123800000D01*
X81080952Y-123752380D01*
X81319047Y-123752380D01*
X81414285Y-123800000D01*
X81461904Y-123847619D01*
X81509523Y-123942857D01*
X81509523Y-124038095D01*
X81461904Y-124180952D01*
X80890476Y-124752380D01*
X81509523Y-124752380D01*
X81985714Y-124752380D02*
X82176190Y-124752380D01*
X82271428Y-124704761D01*
X82319047Y-124657142D01*
X82414285Y-124514285D01*
X82461904Y-124323809D01*
X82461904Y-123942857D01*
X82414285Y-123847619D01*
X82366666Y-123800000D01*
X82271428Y-123752380D01*
X82080952Y-123752380D01*
X81985714Y-123800000D01*
X81938095Y-123847619D01*
X81890476Y-123942857D01*
X81890476Y-124180952D01*
X81938095Y-124276190D01*
X81985714Y-124323809D01*
X82080952Y-124371428D01*
X82271428Y-124371428D01*
X82366666Y-124323809D01*
X82414285Y-124276190D01*
X82461904Y-124180952D01*
G04 %TO.C,R6@% jlc*
X116352380Y-146466666D02*
X115876190Y-146800000D01*
X116352380Y-147038095D02*
X115352380Y-147038095D01*
X115352380Y-146657142D01*
X115400000Y-146561904D01*
X115447619Y-146514285D01*
X115542857Y-146466666D01*
X115685714Y-146466666D01*
X115780952Y-146514285D01*
X115828571Y-146561904D01*
X115876190Y-146657142D01*
X115876190Y-147038095D01*
X115352380Y-145609523D02*
X115352380Y-145800000D01*
X115400000Y-145895238D01*
X115447619Y-145942857D01*
X115590476Y-146038095D01*
X115780952Y-146085714D01*
X116161904Y-146085714D01*
X116257142Y-146038095D01*
X116304761Y-145990476D01*
X116352380Y-145895238D01*
X116352380Y-145704761D01*
X116304761Y-145609523D01*
X116257142Y-145561904D01*
X116161904Y-145514285D01*
X115923809Y-145514285D01*
X115828571Y-145561904D01*
X115780952Y-145609523D01*
X115733333Y-145704761D01*
X115733333Y-145895238D01*
X115780952Y-145990476D01*
X115828571Y-146038095D01*
X115923809Y-146085714D01*
G04 %TO.C,C26@% jlc*
X111357142Y-70457142D02*
X111309523Y-70504761D01*
X111166666Y-70552380D01*
X111071428Y-70552380D01*
X110928571Y-70504761D01*
X110833333Y-70409523D01*
X110785714Y-70314285D01*
X110738095Y-70123809D01*
X110738095Y-69980952D01*
X110785714Y-69790476D01*
X110833333Y-69695238D01*
X110928571Y-69600000D01*
X111071428Y-69552380D01*
X111166666Y-69552380D01*
X111309523Y-69600000D01*
X111357142Y-69647619D01*
X111738095Y-69647619D02*
X111785714Y-69600000D01*
X111880952Y-69552380D01*
X112119047Y-69552380D01*
X112214285Y-69600000D01*
X112261904Y-69647619D01*
X112309523Y-69742857D01*
X112309523Y-69838095D01*
X112261904Y-69980952D01*
X111690476Y-70552380D01*
X112309523Y-70552380D01*
X113166666Y-69552380D02*
X112976190Y-69552380D01*
X112880952Y-69600000D01*
X112833333Y-69647619D01*
X112738095Y-69790476D01*
X112690476Y-69980952D01*
X112690476Y-70361904D01*
X112738095Y-70457142D01*
X112785714Y-70504761D01*
X112880952Y-70552380D01*
X113071428Y-70552380D01*
X113166666Y-70504761D01*
X113214285Y-70457142D01*
X113261904Y-70361904D01*
X113261904Y-70123809D01*
X113214285Y-70028571D01*
X113166666Y-69980952D01*
X113071428Y-69933333D01*
X112880952Y-69933333D01*
X112785714Y-69980952D01*
X112738095Y-70028571D01*
X112690476Y-70123809D01*
G04 %TO.C,R31@% jlc*
X80557142Y-128952380D02*
X80223809Y-128476190D01*
X79985714Y-128952380D02*
X79985714Y-127952380D01*
X80366666Y-127952380D01*
X80461904Y-128000000D01*
X80509523Y-128047619D01*
X80557142Y-128142857D01*
X80557142Y-128285714D01*
X80509523Y-128380952D01*
X80461904Y-128428571D01*
X80366666Y-128476190D01*
X79985714Y-128476190D01*
X80890476Y-127952380D02*
X81509523Y-127952380D01*
X81176190Y-128333333D01*
X81319047Y-128333333D01*
X81414285Y-128380952D01*
X81461904Y-128428571D01*
X81509523Y-128523809D01*
X81509523Y-128761904D01*
X81461904Y-128857142D01*
X81414285Y-128904761D01*
X81319047Y-128952380D01*
X81033333Y-128952380D01*
X80938095Y-128904761D01*
X80890476Y-128857142D01*
X82461904Y-128952380D02*
X81890476Y-128952380D01*
X82176190Y-128952380D02*
X82176190Y-127952380D01*
X82080952Y-128095238D01*
X81985714Y-128190476D01*
X81890476Y-128238095D01*
G04 %TO.C,R2@% jlc*
X109152380Y-146466666D02*
X108676190Y-146800000D01*
X109152380Y-147038095D02*
X108152380Y-147038095D01*
X108152380Y-146657142D01*
X108200000Y-146561904D01*
X108247619Y-146514285D01*
X108342857Y-146466666D01*
X108485714Y-146466666D01*
X108580952Y-146514285D01*
X108628571Y-146561904D01*
X108676190Y-146657142D01*
X108676190Y-147038095D01*
X108247619Y-146085714D02*
X108200000Y-146038095D01*
X108152380Y-145942857D01*
X108152380Y-145704761D01*
X108200000Y-145609523D01*
X108247619Y-145561904D01*
X108342857Y-145514285D01*
X108438095Y-145514285D01*
X108580952Y-145561904D01*
X109152380Y-146133333D01*
X109152380Y-145514285D01*
G04 %TO.C,C27@% jlc*
X119157142Y-118557142D02*
X119109523Y-118604761D01*
X118966666Y-118652380D01*
X118871428Y-118652380D01*
X118728571Y-118604761D01*
X118633333Y-118509523D01*
X118585714Y-118414285D01*
X118538095Y-118223809D01*
X118538095Y-118080952D01*
X118585714Y-117890476D01*
X118633333Y-117795238D01*
X118728571Y-117700000D01*
X118871428Y-117652380D01*
X118966666Y-117652380D01*
X119109523Y-117700000D01*
X119157142Y-117747619D01*
X119538095Y-117747619D02*
X119585714Y-117700000D01*
X119680952Y-117652380D01*
X119919047Y-117652380D01*
X120014285Y-117700000D01*
X120061904Y-117747619D01*
X120109523Y-117842857D01*
X120109523Y-117938095D01*
X120061904Y-118080952D01*
X119490476Y-118652380D01*
X120109523Y-118652380D01*
X120442857Y-117652380D02*
X121109523Y-117652380D01*
X120680952Y-118652380D01*
G04 %TO.C,U3@% jlc*
X120838095Y-113452380D02*
X120838095Y-114261904D01*
X120885714Y-114357142D01*
X120933333Y-114404761D01*
X121028571Y-114452380D01*
X121219047Y-114452380D01*
X121314285Y-114404761D01*
X121361904Y-114357142D01*
X121409523Y-114261904D01*
X121409523Y-113452380D01*
X121790476Y-113452380D02*
X122409523Y-113452380D01*
X122076190Y-113833333D01*
X122219047Y-113833333D01*
X122314285Y-113880952D01*
X122361904Y-113928571D01*
X122409523Y-114023809D01*
X122409523Y-114261904D01*
X122361904Y-114357142D01*
X122314285Y-114404761D01*
X122219047Y-114452380D01*
X121933333Y-114452380D01*
X121838095Y-114404761D01*
X121790476Y-114357142D01*
G04 %TO.C,C41@% jlc*
X91657142Y-61642857D02*
X91704761Y-61690476D01*
X91752380Y-61833333D01*
X91752380Y-61928571D01*
X91704761Y-62071428D01*
X91609523Y-62166666D01*
X91514285Y-62214285D01*
X91323809Y-62261904D01*
X91180952Y-62261904D01*
X90990476Y-62214285D01*
X90895238Y-62166666D01*
X90800000Y-62071428D01*
X90752380Y-61928571D01*
X90752380Y-61833333D01*
X90800000Y-61690476D01*
X90847619Y-61642857D01*
X91085714Y-60785714D02*
X91752380Y-60785714D01*
X90704761Y-61023809D02*
X91419047Y-61261904D01*
X91419047Y-60642857D01*
X91752380Y-59738095D02*
X91752380Y-60309523D01*
X91752380Y-60023809D02*
X90752380Y-60023809D01*
X90895238Y-60119047D01*
X90990476Y-60214285D01*
X91038095Y-60309523D01*
G04 %TO.C,R26@% jlc*
X150857142Y-87352380D02*
X150523809Y-86876190D01*
X150285714Y-87352380D02*
X150285714Y-86352380D01*
X150666666Y-86352380D01*
X150761904Y-86400000D01*
X150809523Y-86447619D01*
X150857142Y-86542857D01*
X150857142Y-86685714D01*
X150809523Y-86780952D01*
X150761904Y-86828571D01*
X150666666Y-86876190D01*
X150285714Y-86876190D01*
X151238095Y-86447619D02*
X151285714Y-86400000D01*
X151380952Y-86352380D01*
X151619047Y-86352380D01*
X151714285Y-86400000D01*
X151761904Y-86447619D01*
X151809523Y-86542857D01*
X151809523Y-86638095D01*
X151761904Y-86780952D01*
X151190476Y-87352380D01*
X151809523Y-87352380D01*
X152666666Y-86352380D02*
X152476190Y-86352380D01*
X152380952Y-86400000D01*
X152333333Y-86447619D01*
X152238095Y-86590476D01*
X152190476Y-86780952D01*
X152190476Y-87161904D01*
X152238095Y-87257142D01*
X152285714Y-87304761D01*
X152380952Y-87352380D01*
X152571428Y-87352380D01*
X152666666Y-87304761D01*
X152714285Y-87257142D01*
X152761904Y-87161904D01*
X152761904Y-86923809D01*
X152714285Y-86828571D01*
X152666666Y-86780952D01*
X152571428Y-86733333D01*
X152380952Y-86733333D01*
X152285714Y-86780952D01*
X152238095Y-86828571D01*
X152190476Y-86923809D01*
G04 %TO.C,C42@% jlc*
X146657142Y-62077142D02*
X146609523Y-62124761D01*
X146466666Y-62172380D01*
X146371428Y-62172380D01*
X146228571Y-62124761D01*
X146133333Y-62029523D01*
X146085714Y-61934285D01*
X146038095Y-61743809D01*
X146038095Y-61600952D01*
X146085714Y-61410476D01*
X146133333Y-61315238D01*
X146228571Y-61220000D01*
X146371428Y-61172380D01*
X146466666Y-61172380D01*
X146609523Y-61220000D01*
X146657142Y-61267619D01*
X147514285Y-61505714D02*
X147514285Y-62172380D01*
X147276190Y-61124761D02*
X147038095Y-61839047D01*
X147657142Y-61839047D01*
X147990476Y-61267619D02*
X148038095Y-61220000D01*
X148133333Y-61172380D01*
X148371428Y-61172380D01*
X148466666Y-61220000D01*
X148514285Y-61267619D01*
X148561904Y-61362857D01*
X148561904Y-61458095D01*
X148514285Y-61600952D01*
X147942857Y-62172380D01*
X148561904Y-62172380D01*
G04 %TO.C,L2@% jlc*
X90252380Y-53966666D02*
X90252380Y-54442857D01*
X89252380Y-54442857D01*
X89347619Y-53680952D02*
X89300000Y-53633333D01*
X89252380Y-53538095D01*
X89252380Y-53300000D01*
X89300000Y-53204761D01*
X89347619Y-53157142D01*
X89442857Y-53109523D01*
X89538095Y-53109523D01*
X89680952Y-53157142D01*
X90252380Y-53728571D01*
X90252380Y-53109523D01*
G04 %TO.C,Q3@% jlc*
X140904761Y-79847619D02*
X140809523Y-79800000D01*
X140714285Y-79704761D01*
X140571428Y-79561904D01*
X140476190Y-79514285D01*
X140380952Y-79514285D01*
X140428571Y-79752380D02*
X140333333Y-79704761D01*
X140238095Y-79609523D01*
X140190476Y-79419047D01*
X140190476Y-79085714D01*
X140238095Y-78895238D01*
X140333333Y-78800000D01*
X140428571Y-78752380D01*
X140619047Y-78752380D01*
X140714285Y-78800000D01*
X140809523Y-78895238D01*
X140857142Y-79085714D01*
X140857142Y-79419047D01*
X140809523Y-79609523D01*
X140714285Y-79704761D01*
X140619047Y-79752380D01*
X140428571Y-79752380D01*
X141190476Y-78752380D02*
X141809523Y-78752380D01*
X141476190Y-79133333D01*
X141619047Y-79133333D01*
X141714285Y-79180952D01*
X141761904Y-79228571D01*
X141809523Y-79323809D01*
X141809523Y-79561904D01*
X141761904Y-79657142D01*
X141714285Y-79704761D01*
X141619047Y-79752380D01*
X141333333Y-79752380D01*
X141238095Y-79704761D01*
X141190476Y-79657142D01*
G04 %TO.C,R12@% jlc*
X150857142Y-85052380D02*
X150523809Y-84576190D01*
X150285714Y-85052380D02*
X150285714Y-84052380D01*
X150666666Y-84052380D01*
X150761904Y-84100000D01*
X150809523Y-84147619D01*
X150857142Y-84242857D01*
X150857142Y-84385714D01*
X150809523Y-84480952D01*
X150761904Y-84528571D01*
X150666666Y-84576190D01*
X150285714Y-84576190D01*
X151809523Y-85052380D02*
X151238095Y-85052380D01*
X151523809Y-85052380D02*
X151523809Y-84052380D01*
X151428571Y-84195238D01*
X151333333Y-84290476D01*
X151238095Y-84338095D01*
X152190476Y-84147619D02*
X152238095Y-84100000D01*
X152333333Y-84052380D01*
X152571428Y-84052380D01*
X152666666Y-84100000D01*
X152714285Y-84147619D01*
X152761904Y-84242857D01*
X152761904Y-84338095D01*
X152714285Y-84480952D01*
X152142857Y-85052380D01*
X152761904Y-85052380D01*
G04 %TO.C,C18@% jlc*
X97757142Y-101557142D02*
X97709523Y-101604761D01*
X97566666Y-101652380D01*
X97471428Y-101652380D01*
X97328571Y-101604761D01*
X97233333Y-101509523D01*
X97185714Y-101414285D01*
X97138095Y-101223809D01*
X97138095Y-101080952D01*
X97185714Y-100890476D01*
X97233333Y-100795238D01*
X97328571Y-100700000D01*
X97471428Y-100652380D01*
X97566666Y-100652380D01*
X97709523Y-100700000D01*
X97757142Y-100747619D01*
X98709523Y-101652380D02*
X98138095Y-101652380D01*
X98423809Y-101652380D02*
X98423809Y-100652380D01*
X98328571Y-100795238D01*
X98233333Y-100890476D01*
X98138095Y-100938095D01*
X99280952Y-101080952D02*
X99185714Y-101033333D01*
X99138095Y-100985714D01*
X99090476Y-100890476D01*
X99090476Y-100842857D01*
X99138095Y-100747619D01*
X99185714Y-100700000D01*
X99280952Y-100652380D01*
X99471428Y-100652380D01*
X99566666Y-100700000D01*
X99614285Y-100747619D01*
X99661904Y-100842857D01*
X99661904Y-100890476D01*
X99614285Y-100985714D01*
X99566666Y-101033333D01*
X99471428Y-101080952D01*
X99280952Y-101080952D01*
X99185714Y-101128571D01*
X99138095Y-101176190D01*
X99090476Y-101271428D01*
X99090476Y-101461904D01*
X99138095Y-101557142D01*
X99185714Y-101604761D01*
X99280952Y-101652380D01*
X99471428Y-101652380D01*
X99566666Y-101604761D01*
X99614285Y-101557142D01*
X99661904Y-101461904D01*
X99661904Y-101271428D01*
X99614285Y-101176190D01*
X99566666Y-101128571D01*
X99471428Y-101080952D01*
G04 %TO.C,C9@% jlc*
X114157142Y-109766666D02*
X114204761Y-109814285D01*
X114252380Y-109957142D01*
X114252380Y-110052380D01*
X114204761Y-110195238D01*
X114109523Y-110290476D01*
X114014285Y-110338095D01*
X113823809Y-110385714D01*
X113680952Y-110385714D01*
X113490476Y-110338095D01*
X113395238Y-110290476D01*
X113300000Y-110195238D01*
X113252380Y-110052380D01*
X113252380Y-109957142D01*
X113300000Y-109814285D01*
X113347619Y-109766666D01*
X114252380Y-109290476D02*
X114252380Y-109100000D01*
X114204761Y-109004761D01*
X114157142Y-108957142D01*
X114014285Y-108861904D01*
X113823809Y-108814285D01*
X113442857Y-108814285D01*
X113347619Y-108861904D01*
X113300000Y-108909523D01*
X113252380Y-109004761D01*
X113252380Y-109195238D01*
X113300000Y-109290476D01*
X113347619Y-109338095D01*
X113442857Y-109385714D01*
X113680952Y-109385714D01*
X113776190Y-109338095D01*
X113823809Y-109290476D01*
X113871428Y-109195238D01*
X113871428Y-109004761D01*
X113823809Y-108909523D01*
X113776190Y-108861904D01*
X113680952Y-108814285D01*
G04 %TO.C,D2@% jlc*
X82452380Y-54538095D02*
X81452380Y-54538095D01*
X81452380Y-54300000D01*
X81500000Y-54157142D01*
X81595238Y-54061904D01*
X81690476Y-54014285D01*
X81880952Y-53966666D01*
X82023809Y-53966666D01*
X82214285Y-54014285D01*
X82309523Y-54061904D01*
X82404761Y-54157142D01*
X82452380Y-54300000D01*
X82452380Y-54538095D01*
X81547619Y-53585714D02*
X81500000Y-53538095D01*
X81452380Y-53442857D01*
X81452380Y-53204761D01*
X81500000Y-53109523D01*
X81547619Y-53061904D01*
X81642857Y-53014285D01*
X81738095Y-53014285D01*
X81880952Y-53061904D01*
X82452380Y-53633333D01*
X82452380Y-53014285D01*
G04 %TO.C,C29@% jlc*
X129057142Y-147342857D02*
X129104761Y-147390476D01*
X129152380Y-147533333D01*
X129152380Y-147628571D01*
X129104761Y-147771428D01*
X129009523Y-147866666D01*
X128914285Y-147914285D01*
X128723809Y-147961904D01*
X128580952Y-147961904D01*
X128390476Y-147914285D01*
X128295238Y-147866666D01*
X128200000Y-147771428D01*
X128152380Y-147628571D01*
X128152380Y-147533333D01*
X128200000Y-147390476D01*
X128247619Y-147342857D01*
X128247619Y-146961904D02*
X128200000Y-146914285D01*
X128152380Y-146819047D01*
X128152380Y-146580952D01*
X128200000Y-146485714D01*
X128247619Y-146438095D01*
X128342857Y-146390476D01*
X128438095Y-146390476D01*
X128580952Y-146438095D01*
X129152380Y-147009523D01*
X129152380Y-146390476D01*
X129152380Y-145914285D02*
X129152380Y-145723809D01*
X129104761Y-145628571D01*
X129057142Y-145580952D01*
X128914285Y-145485714D01*
X128723809Y-145438095D01*
X128342857Y-145438095D01*
X128247619Y-145485714D01*
X128200000Y-145533333D01*
X128152380Y-145628571D01*
X128152380Y-145819047D01*
X128200000Y-145914285D01*
X128247619Y-145961904D01*
X128342857Y-146009523D01*
X128580952Y-146009523D01*
X128676190Y-145961904D01*
X128723809Y-145914285D01*
X128771428Y-145819047D01*
X128771428Y-145628571D01*
X128723809Y-145533333D01*
X128676190Y-145485714D01*
X128580952Y-145438095D01*
G04 %TO.C,R20@% jlc*
X150857142Y-91552380D02*
X150523809Y-91076190D01*
X150285714Y-91552380D02*
X150285714Y-90552380D01*
X150666666Y-90552380D01*
X150761904Y-90600000D01*
X150809523Y-90647619D01*
X150857142Y-90742857D01*
X150857142Y-90885714D01*
X150809523Y-90980952D01*
X150761904Y-91028571D01*
X150666666Y-91076190D01*
X150285714Y-91076190D01*
X151238095Y-90647619D02*
X151285714Y-90600000D01*
X151380952Y-90552380D01*
X151619047Y-90552380D01*
X151714285Y-90600000D01*
X151761904Y-90647619D01*
X151809523Y-90742857D01*
X151809523Y-90838095D01*
X151761904Y-90980952D01*
X151190476Y-91552380D01*
X151809523Y-91552380D01*
X152428571Y-90552380D02*
X152523809Y-90552380D01*
X152619047Y-90600000D01*
X152666666Y-90647619D01*
X152714285Y-90742857D01*
X152761904Y-90933333D01*
X152761904Y-91171428D01*
X152714285Y-91361904D01*
X152666666Y-91457142D01*
X152619047Y-91504761D01*
X152523809Y-91552380D01*
X152428571Y-91552380D01*
X152333333Y-91504761D01*
X152285714Y-91457142D01*
X152238095Y-91361904D01*
X152190476Y-91171428D01*
X152190476Y-90933333D01*
X152238095Y-90742857D01*
X152285714Y-90647619D01*
X152333333Y-90600000D01*
X152428571Y-90552380D01*
G04 %TO.C,C35@% jlc*
X124457142Y-127642857D02*
X124504761Y-127690476D01*
X124552380Y-127833333D01*
X124552380Y-127928571D01*
X124504761Y-128071428D01*
X124409523Y-128166666D01*
X124314285Y-128214285D01*
X124123809Y-128261904D01*
X123980952Y-128261904D01*
X123790476Y-128214285D01*
X123695238Y-128166666D01*
X123600000Y-128071428D01*
X123552380Y-127928571D01*
X123552380Y-127833333D01*
X123600000Y-127690476D01*
X123647619Y-127642857D01*
X123552380Y-127309523D02*
X123552380Y-126690476D01*
X123933333Y-127023809D01*
X123933333Y-126880952D01*
X123980952Y-126785714D01*
X124028571Y-126738095D01*
X124123809Y-126690476D01*
X124361904Y-126690476D01*
X124457142Y-126738095D01*
X124504761Y-126785714D01*
X124552380Y-126880952D01*
X124552380Y-127166666D01*
X124504761Y-127261904D01*
X124457142Y-127309523D01*
X123552380Y-125785714D02*
X123552380Y-126261904D01*
X124028571Y-126309523D01*
X123980952Y-126261904D01*
X123933333Y-126166666D01*
X123933333Y-125928571D01*
X123980952Y-125833333D01*
X124028571Y-125785714D01*
X124123809Y-125738095D01*
X124361904Y-125738095D01*
X124457142Y-125785714D01*
X124504761Y-125833333D01*
X124552380Y-125928571D01*
X124552380Y-126166666D01*
X124504761Y-126261904D01*
X124457142Y-126309523D01*
G04 %TO.C,C7@% jlc*
X98733333Y-96557142D02*
X98685714Y-96604761D01*
X98542857Y-96652380D01*
X98447619Y-96652380D01*
X98304761Y-96604761D01*
X98209523Y-96509523D01*
X98161904Y-96414285D01*
X98114285Y-96223809D01*
X98114285Y-96080952D01*
X98161904Y-95890476D01*
X98209523Y-95795238D01*
X98304761Y-95700000D01*
X98447619Y-95652380D01*
X98542857Y-95652380D01*
X98685714Y-95700000D01*
X98733333Y-95747619D01*
X99066666Y-95652380D02*
X99733333Y-95652380D01*
X99304761Y-96652380D01*
G04 %TO.C,C2@% jlc*
X124157142Y-78766666D02*
X124204761Y-78814285D01*
X124252380Y-78957142D01*
X124252380Y-79052380D01*
X124204761Y-79195238D01*
X124109523Y-79290476D01*
X124014285Y-79338095D01*
X123823809Y-79385714D01*
X123680952Y-79385714D01*
X123490476Y-79338095D01*
X123395238Y-79290476D01*
X123300000Y-79195238D01*
X123252380Y-79052380D01*
X123252380Y-78957142D01*
X123300000Y-78814285D01*
X123347619Y-78766666D01*
X123347619Y-78385714D02*
X123300000Y-78338095D01*
X123252380Y-78242857D01*
X123252380Y-78004761D01*
X123300000Y-77909523D01*
X123347619Y-77861904D01*
X123442857Y-77814285D01*
X123538095Y-77814285D01*
X123680952Y-77861904D01*
X124252380Y-78433333D01*
X124252380Y-77814285D01*
G04 %TO.C,C43@% jlc*
X83657142Y-61642857D02*
X83704761Y-61690476D01*
X83752380Y-61833333D01*
X83752380Y-61928571D01*
X83704761Y-62071428D01*
X83609523Y-62166666D01*
X83514285Y-62214285D01*
X83323809Y-62261904D01*
X83180952Y-62261904D01*
X82990476Y-62214285D01*
X82895238Y-62166666D01*
X82800000Y-62071428D01*
X82752380Y-61928571D01*
X82752380Y-61833333D01*
X82800000Y-61690476D01*
X82847619Y-61642857D01*
X83085714Y-60785714D02*
X83752380Y-60785714D01*
X82704761Y-61023809D02*
X83419047Y-61261904D01*
X83419047Y-60642857D01*
X82752380Y-60357142D02*
X82752380Y-59738095D01*
X83133333Y-60071428D01*
X83133333Y-59928571D01*
X83180952Y-59833333D01*
X83228571Y-59785714D01*
X83323809Y-59738095D01*
X83561904Y-59738095D01*
X83657142Y-59785714D01*
X83704761Y-59833333D01*
X83752380Y-59928571D01*
X83752380Y-60214285D01*
X83704761Y-60309523D01*
X83657142Y-60357142D01*
G04 %TO.C,C12@% jlc*
X132557142Y-90957142D02*
X132509523Y-91004761D01*
X132366666Y-91052380D01*
X132271428Y-91052380D01*
X132128571Y-91004761D01*
X132033333Y-90909523D01*
X131985714Y-90814285D01*
X131938095Y-90623809D01*
X131938095Y-90480952D01*
X131985714Y-90290476D01*
X132033333Y-90195238D01*
X132128571Y-90100000D01*
X132271428Y-90052380D01*
X132366666Y-90052380D01*
X132509523Y-90100000D01*
X132557142Y-90147619D01*
X133509523Y-91052380D02*
X132938095Y-91052380D01*
X133223809Y-91052380D02*
X133223809Y-90052380D01*
X133128571Y-90195238D01*
X133033333Y-90290476D01*
X132938095Y-90338095D01*
X133890476Y-90147619D02*
X133938095Y-90100000D01*
X134033333Y-90052380D01*
X134271428Y-90052380D01*
X134366666Y-90100000D01*
X134414285Y-90147619D01*
X134461904Y-90242857D01*
X134461904Y-90338095D01*
X134414285Y-90480952D01*
X133842857Y-91052380D01*
X134461904Y-91052380D01*
G04 %TO.C,R15@% jlc*
X107752380Y-127542857D02*
X107276190Y-127876190D01*
X107752380Y-128114285D02*
X106752380Y-128114285D01*
X106752380Y-127733333D01*
X106800000Y-127638095D01*
X106847619Y-127590476D01*
X106942857Y-127542857D01*
X107085714Y-127542857D01*
X107180952Y-127590476D01*
X107228571Y-127638095D01*
X107276190Y-127733333D01*
X107276190Y-128114285D01*
X107752380Y-126590476D02*
X107752380Y-127161904D01*
X107752380Y-126876190D02*
X106752380Y-126876190D01*
X106895238Y-126971428D01*
X106990476Y-127066666D01*
X107038095Y-127161904D01*
X106752380Y-125685714D02*
X106752380Y-126161904D01*
X107228571Y-126209523D01*
X107180952Y-126161904D01*
X107133333Y-126066666D01*
X107133333Y-125828571D01*
X107180952Y-125733333D01*
X107228571Y-125685714D01*
X107323809Y-125638095D01*
X107561904Y-125638095D01*
X107657142Y-125685714D01*
X107704761Y-125733333D01*
X107752380Y-125828571D01*
X107752380Y-126066666D01*
X107704761Y-126161904D01*
X107657142Y-126209523D01*
G04 %TO.C,U6@% jlc*
X140788095Y-52952380D02*
X140788095Y-53761904D01*
X140835714Y-53857142D01*
X140883333Y-53904761D01*
X140978571Y-53952380D01*
X141169047Y-53952380D01*
X141264285Y-53904761D01*
X141311904Y-53857142D01*
X141359523Y-53761904D01*
X141359523Y-52952380D01*
X142264285Y-52952380D02*
X142073809Y-52952380D01*
X141978571Y-53000000D01*
X141930952Y-53047619D01*
X141835714Y-53190476D01*
X141788095Y-53380952D01*
X141788095Y-53761904D01*
X141835714Y-53857142D01*
X141883333Y-53904761D01*
X141978571Y-53952380D01*
X142169047Y-53952380D01*
X142264285Y-53904761D01*
X142311904Y-53857142D01*
X142359523Y-53761904D01*
X142359523Y-53523809D01*
X142311904Y-53428571D01*
X142264285Y-53380952D01*
X142169047Y-53333333D01*
X141978571Y-53333333D01*
X141883333Y-53380952D01*
X141835714Y-53428571D01*
X141788095Y-53523809D01*
G04 %TO.C,C21@% jlc*
X104957142Y-76042857D02*
X105004761Y-76090476D01*
X105052380Y-76233333D01*
X105052380Y-76328571D01*
X105004761Y-76471428D01*
X104909523Y-76566666D01*
X104814285Y-76614285D01*
X104623809Y-76661904D01*
X104480952Y-76661904D01*
X104290476Y-76614285D01*
X104195238Y-76566666D01*
X104100000Y-76471428D01*
X104052380Y-76328571D01*
X104052380Y-76233333D01*
X104100000Y-76090476D01*
X104147619Y-76042857D01*
X104147619Y-75661904D02*
X104100000Y-75614285D01*
X104052380Y-75519047D01*
X104052380Y-75280952D01*
X104100000Y-75185714D01*
X104147619Y-75138095D01*
X104242857Y-75090476D01*
X104338095Y-75090476D01*
X104480952Y-75138095D01*
X105052380Y-75709523D01*
X105052380Y-75090476D01*
X105052380Y-74138095D02*
X105052380Y-74709523D01*
X105052380Y-74423809D02*
X104052380Y-74423809D01*
X104195238Y-74519047D01*
X104290476Y-74614285D01*
X104338095Y-74709523D01*
G04 %TO.C,C17@% jlc*
X114457142Y-147342857D02*
X114504761Y-147390476D01*
X114552380Y-147533333D01*
X114552380Y-147628571D01*
X114504761Y-147771428D01*
X114409523Y-147866666D01*
X114314285Y-147914285D01*
X114123809Y-147961904D01*
X113980952Y-147961904D01*
X113790476Y-147914285D01*
X113695238Y-147866666D01*
X113600000Y-147771428D01*
X113552380Y-147628571D01*
X113552380Y-147533333D01*
X113600000Y-147390476D01*
X113647619Y-147342857D01*
X114552380Y-146390476D02*
X114552380Y-146961904D01*
X114552380Y-146676190D02*
X113552380Y-146676190D01*
X113695238Y-146771428D01*
X113790476Y-146866666D01*
X113838095Y-146961904D01*
X113552380Y-146057142D02*
X113552380Y-145390476D01*
X114552380Y-145819047D01*
G04 %TO.C,J6@% jlc*
X147477142Y-110070238D02*
X147524761Y-110117857D01*
X147572380Y-110260714D01*
X147572380Y-110355952D01*
X147524761Y-110498809D01*
X147429523Y-110594047D01*
X147334285Y-110641666D01*
X147143809Y-110689285D01*
X147000952Y-110689285D01*
X146810476Y-110641666D01*
X146715238Y-110594047D01*
X146620000Y-110498809D01*
X146572380Y-110355952D01*
X146572380Y-110260714D01*
X146620000Y-110117857D01*
X146667619Y-110070238D01*
X147572380Y-109165476D02*
X147572380Y-109641666D01*
X146572380Y-109641666D01*
X147572380Y-108832142D02*
X146572380Y-108832142D01*
X147572380Y-108260714D02*
X147000952Y-108689285D01*
X146572380Y-108260714D02*
X147143809Y-108832142D01*
X138952380Y-110951190D02*
X138952380Y-110332142D01*
X139333333Y-110665476D01*
X139333333Y-110522619D01*
X139380952Y-110427380D01*
X139428571Y-110379761D01*
X139523809Y-110332142D01*
X139761904Y-110332142D01*
X139857142Y-110379761D01*
X139904761Y-110427380D01*
X139952380Y-110522619D01*
X139952380Y-110808333D01*
X139904761Y-110903571D01*
X139857142Y-110951190D01*
X139857142Y-109903571D02*
X139904761Y-109855952D01*
X139952380Y-109903571D01*
X139904761Y-109951190D01*
X139857142Y-109903571D01*
X139952380Y-109903571D01*
X138952380Y-109522619D02*
X138952380Y-108903571D01*
X139333333Y-109236904D01*
X139333333Y-109094047D01*
X139380952Y-108998809D01*
X139428571Y-108951190D01*
X139523809Y-108903571D01*
X139761904Y-108903571D01*
X139857142Y-108951190D01*
X139904761Y-108998809D01*
X139952380Y-109094047D01*
X139952380Y-109379761D01*
X139904761Y-109475000D01*
X139857142Y-109522619D01*
X138952380Y-108617857D02*
X139952380Y-108284523D01*
X138952380Y-107951190D01*
X141540000Y-110236904D02*
X141492380Y-110332142D01*
X141492380Y-110475000D01*
X141540000Y-110617857D01*
X141635238Y-110713095D01*
X141730476Y-110760714D01*
X141920952Y-110808333D01*
X142063809Y-110808333D01*
X142254285Y-110760714D01*
X142349523Y-110713095D01*
X142444761Y-110617857D01*
X142492380Y-110475000D01*
X142492380Y-110379761D01*
X142444761Y-110236904D01*
X142397142Y-110189285D01*
X142063809Y-110189285D01*
X142063809Y-110379761D01*
X142492380Y-109760714D02*
X141492380Y-109760714D01*
X142492380Y-109189285D01*
X141492380Y-109189285D01*
X142492380Y-108713095D02*
X141492380Y-108713095D01*
X141492380Y-108475000D01*
X141540000Y-108332142D01*
X141635238Y-108236904D01*
X141730476Y-108189285D01*
X141920952Y-108141666D01*
X142063809Y-108141666D01*
X142254285Y-108189285D01*
X142349523Y-108236904D01*
X142444761Y-108332142D01*
X142492380Y-108475000D01*
X142492380Y-108713095D01*
X145032380Y-109363809D02*
X144032380Y-109363809D01*
X144032380Y-108697142D02*
X144032380Y-108506666D01*
X144080000Y-108411428D01*
X144175238Y-108316190D01*
X144365714Y-108268571D01*
X144699047Y-108268571D01*
X144889523Y-108316190D01*
X144984761Y-108411428D01*
X145032380Y-108506666D01*
X145032380Y-108697142D01*
X144984761Y-108792380D01*
X144889523Y-108887619D01*
X144699047Y-108935238D01*
X144365714Y-108935238D01*
X144175238Y-108887619D01*
X144080000Y-108792380D01*
X144032380Y-108697142D01*
G04 %TO.C,C37@% jlc*
X134557142Y-63242857D02*
X134604761Y-63290476D01*
X134652380Y-63433333D01*
X134652380Y-63528571D01*
X134604761Y-63671428D01*
X134509523Y-63766666D01*
X134414285Y-63814285D01*
X134223809Y-63861904D01*
X134080952Y-63861904D01*
X133890476Y-63814285D01*
X133795238Y-63766666D01*
X133700000Y-63671428D01*
X133652380Y-63528571D01*
X133652380Y-63433333D01*
X133700000Y-63290476D01*
X133747619Y-63242857D01*
X133652380Y-62909523D02*
X133652380Y-62290476D01*
X134033333Y-62623809D01*
X134033333Y-62480952D01*
X134080952Y-62385714D01*
X134128571Y-62338095D01*
X134223809Y-62290476D01*
X134461904Y-62290476D01*
X134557142Y-62338095D01*
X134604761Y-62385714D01*
X134652380Y-62480952D01*
X134652380Y-62766666D01*
X134604761Y-62861904D01*
X134557142Y-62909523D01*
X133652380Y-61957142D02*
X133652380Y-61290476D01*
X134652380Y-61719047D01*
G04 %TO.C,C19@% jlc*
X124157142Y-110642857D02*
X124204761Y-110690476D01*
X124252380Y-110833333D01*
X124252380Y-110928571D01*
X124204761Y-111071428D01*
X124109523Y-111166666D01*
X124014285Y-111214285D01*
X123823809Y-111261904D01*
X123680952Y-111261904D01*
X123490476Y-111214285D01*
X123395238Y-111166666D01*
X123300000Y-111071428D01*
X123252380Y-110928571D01*
X123252380Y-110833333D01*
X123300000Y-110690476D01*
X123347619Y-110642857D01*
X124252380Y-109690476D02*
X124252380Y-110261904D01*
X124252380Y-109976190D02*
X123252380Y-109976190D01*
X123395238Y-110071428D01*
X123490476Y-110166666D01*
X123538095Y-110261904D01*
X124252380Y-109214285D02*
X124252380Y-109023809D01*
X124204761Y-108928571D01*
X124157142Y-108880952D01*
X124014285Y-108785714D01*
X123823809Y-108738095D01*
X123442857Y-108738095D01*
X123347619Y-108785714D01*
X123300000Y-108833333D01*
X123252380Y-108928571D01*
X123252380Y-109119047D01*
X123300000Y-109214285D01*
X123347619Y-109261904D01*
X123442857Y-109309523D01*
X123680952Y-109309523D01*
X123776190Y-109261904D01*
X123823809Y-109214285D01*
X123871428Y-109119047D01*
X123871428Y-108928571D01*
X123823809Y-108833333D01*
X123776190Y-108785714D01*
X123680952Y-108738095D01*
G04 %TO.C,C22@% jlc*
X106557142Y-76042857D02*
X106604761Y-76090476D01*
X106652380Y-76233333D01*
X106652380Y-76328571D01*
X106604761Y-76471428D01*
X106509523Y-76566666D01*
X106414285Y-76614285D01*
X106223809Y-76661904D01*
X106080952Y-76661904D01*
X105890476Y-76614285D01*
X105795238Y-76566666D01*
X105700000Y-76471428D01*
X105652380Y-76328571D01*
X105652380Y-76233333D01*
X105700000Y-76090476D01*
X105747619Y-76042857D01*
X105747619Y-75661904D02*
X105700000Y-75614285D01*
X105652380Y-75519047D01*
X105652380Y-75280952D01*
X105700000Y-75185714D01*
X105747619Y-75138095D01*
X105842857Y-75090476D01*
X105938095Y-75090476D01*
X106080952Y-75138095D01*
X106652380Y-75709523D01*
X106652380Y-75090476D01*
X105747619Y-74709523D02*
X105700000Y-74661904D01*
X105652380Y-74566666D01*
X105652380Y-74328571D01*
X105700000Y-74233333D01*
X105747619Y-74185714D01*
X105842857Y-74138095D01*
X105938095Y-74138095D01*
X106080952Y-74185714D01*
X106652380Y-74757142D01*
X106652380Y-74138095D01*
G04 %TO.C,R21@% jlc*
X144357142Y-127652380D02*
X144023809Y-127176190D01*
X143785714Y-127652380D02*
X143785714Y-126652380D01*
X144166666Y-126652380D01*
X144261904Y-126700000D01*
X144309523Y-126747619D01*
X144357142Y-126842857D01*
X144357142Y-126985714D01*
X144309523Y-127080952D01*
X144261904Y-127128571D01*
X144166666Y-127176190D01*
X143785714Y-127176190D01*
X144738095Y-126747619D02*
X144785714Y-126700000D01*
X144880952Y-126652380D01*
X145119047Y-126652380D01*
X145214285Y-126700000D01*
X145261904Y-126747619D01*
X145309523Y-126842857D01*
X145309523Y-126938095D01*
X145261904Y-127080952D01*
X144690476Y-127652380D01*
X145309523Y-127652380D01*
X146261904Y-127652380D02*
X145690476Y-127652380D01*
X145976190Y-127652380D02*
X145976190Y-126652380D01*
X145880952Y-126795238D01*
X145785714Y-126890476D01*
X145690476Y-126938095D01*
G04 %TO.C,C8@% jlc*
X98633333Y-103357142D02*
X98585714Y-103404761D01*
X98442857Y-103452380D01*
X98347619Y-103452380D01*
X98204761Y-103404761D01*
X98109523Y-103309523D01*
X98061904Y-103214285D01*
X98014285Y-103023809D01*
X98014285Y-102880952D01*
X98061904Y-102690476D01*
X98109523Y-102595238D01*
X98204761Y-102500000D01*
X98347619Y-102452380D01*
X98442857Y-102452380D01*
X98585714Y-102500000D01*
X98633333Y-102547619D01*
X99204761Y-102880952D02*
X99109523Y-102833333D01*
X99061904Y-102785714D01*
X99014285Y-102690476D01*
X99014285Y-102642857D01*
X99061904Y-102547619D01*
X99109523Y-102500000D01*
X99204761Y-102452380D01*
X99395238Y-102452380D01*
X99490476Y-102500000D01*
X99538095Y-102547619D01*
X99585714Y-102642857D01*
X99585714Y-102690476D01*
X99538095Y-102785714D01*
X99490476Y-102833333D01*
X99395238Y-102880952D01*
X99204761Y-102880952D01*
X99109523Y-102928571D01*
X99061904Y-102976190D01*
X99014285Y-103071428D01*
X99014285Y-103261904D01*
X99061904Y-103357142D01*
X99109523Y-103404761D01*
X99204761Y-103452380D01*
X99395238Y-103452380D01*
X99490476Y-103404761D01*
X99538095Y-103357142D01*
X99585714Y-103261904D01*
X99585714Y-103071428D01*
X99538095Y-102976190D01*
X99490476Y-102928571D01*
X99395238Y-102880952D01*
G04 %TO.C,C15@% jlc*
X109757142Y-76042857D02*
X109804761Y-76090476D01*
X109852380Y-76233333D01*
X109852380Y-76328571D01*
X109804761Y-76471428D01*
X109709523Y-76566666D01*
X109614285Y-76614285D01*
X109423809Y-76661904D01*
X109280952Y-76661904D01*
X109090476Y-76614285D01*
X108995238Y-76566666D01*
X108900000Y-76471428D01*
X108852380Y-76328571D01*
X108852380Y-76233333D01*
X108900000Y-76090476D01*
X108947619Y-76042857D01*
X109852380Y-75090476D02*
X109852380Y-75661904D01*
X109852380Y-75376190D02*
X108852380Y-75376190D01*
X108995238Y-75471428D01*
X109090476Y-75566666D01*
X109138095Y-75661904D01*
X108852380Y-74185714D02*
X108852380Y-74661904D01*
X109328571Y-74709523D01*
X109280952Y-74661904D01*
X109233333Y-74566666D01*
X109233333Y-74328571D01*
X109280952Y-74233333D01*
X109328571Y-74185714D01*
X109423809Y-74138095D01*
X109661904Y-74138095D01*
X109757142Y-74185714D01*
X109804761Y-74233333D01*
X109852380Y-74328571D01*
X109852380Y-74566666D01*
X109804761Y-74661904D01*
X109757142Y-74709523D01*
G04 %TO.C,R11@% jlc*
X150857142Y-83052380D02*
X150523809Y-82576190D01*
X150285714Y-83052380D02*
X150285714Y-82052380D01*
X150666666Y-82052380D01*
X150761904Y-82100000D01*
X150809523Y-82147619D01*
X150857142Y-82242857D01*
X150857142Y-82385714D01*
X150809523Y-82480952D01*
X150761904Y-82528571D01*
X150666666Y-82576190D01*
X150285714Y-82576190D01*
X151809523Y-83052380D02*
X151238095Y-83052380D01*
X151523809Y-83052380D02*
X151523809Y-82052380D01*
X151428571Y-82195238D01*
X151333333Y-82290476D01*
X151238095Y-82338095D01*
X152761904Y-83052380D02*
X152190476Y-83052380D01*
X152476190Y-83052380D02*
X152476190Y-82052380D01*
X152380952Y-82195238D01*
X152285714Y-82290476D01*
X152190476Y-82338095D01*
G04 %TO.C,R14@% jlc*
X127152380Y-147342857D02*
X126676190Y-147676190D01*
X127152380Y-147914285D02*
X126152380Y-147914285D01*
X126152380Y-147533333D01*
X126200000Y-147438095D01*
X126247619Y-147390476D01*
X126342857Y-147342857D01*
X126485714Y-147342857D01*
X126580952Y-147390476D01*
X126628571Y-147438095D01*
X126676190Y-147533333D01*
X126676190Y-147914285D01*
X127152380Y-146390476D02*
X127152380Y-146961904D01*
X127152380Y-146676190D02*
X126152380Y-146676190D01*
X126295238Y-146771428D01*
X126390476Y-146866666D01*
X126438095Y-146961904D01*
X126485714Y-145533333D02*
X127152380Y-145533333D01*
X126104761Y-145771428D02*
X126819047Y-146009523D01*
X126819047Y-145390476D01*
G04 %TO.C,R1@% jlc*
X150857142Y-74552380D02*
X150523809Y-74076190D01*
X150285713Y-74552380D02*
X150285713Y-73552380D01*
X150666666Y-73552380D01*
X150761904Y-73600000D01*
X150809523Y-73647619D01*
X150857142Y-73742857D01*
X150857142Y-73885714D01*
X150809523Y-73980952D01*
X150761904Y-74028571D01*
X150666666Y-74076190D01*
X150285713Y-74076190D01*
X151809523Y-74552380D02*
X151238094Y-74552380D01*
X151523809Y-74552380D02*
X151523809Y-73552380D01*
X151428570Y-73695238D01*
X151333332Y-73790476D01*
X151238094Y-73838095D01*
G04 %TO.C,C1@% jlc*
X110857142Y-146466666D02*
X110904761Y-146514285D01*
X110952380Y-146657142D01*
X110952380Y-146752380D01*
X110904761Y-146895238D01*
X110809523Y-146990476D01*
X110714285Y-147038095D01*
X110523809Y-147085714D01*
X110380952Y-147085714D01*
X110190476Y-147038095D01*
X110095238Y-146990476D01*
X110000000Y-146895238D01*
X109952380Y-146752380D01*
X109952380Y-146657142D01*
X110000000Y-146514285D01*
X110047619Y-146466666D01*
X110952380Y-145514285D02*
X110952380Y-146085714D01*
X110952380Y-145800000D02*
X109952380Y-145800000D01*
X110095238Y-145895238D01*
X110190476Y-145990476D01*
X110238095Y-146085714D01*
G04 %TO.C,R19@% jlc*
X144357142Y-125252380D02*
X144023809Y-124776190D01*
X143785714Y-125252380D02*
X143785714Y-124252380D01*
X144166666Y-124252380D01*
X144261904Y-124300000D01*
X144309523Y-124347619D01*
X144357142Y-124442857D01*
X144357142Y-124585714D01*
X144309523Y-124680952D01*
X144261904Y-124728571D01*
X144166666Y-124776190D01*
X143785714Y-124776190D01*
X145309523Y-125252380D02*
X144738095Y-125252380D01*
X145023809Y-125252380D02*
X145023809Y-124252380D01*
X144928571Y-124395238D01*
X144833333Y-124490476D01*
X144738095Y-124538095D01*
X145785714Y-125252380D02*
X145976190Y-125252380D01*
X146071428Y-125204761D01*
X146119047Y-125157142D01*
X146214285Y-125014285D01*
X146261904Y-124823809D01*
X146261904Y-124442857D01*
X146214285Y-124347619D01*
X146166666Y-124300000D01*
X146071428Y-124252380D01*
X145880952Y-124252380D01*
X145785714Y-124300000D01*
X145738095Y-124347619D01*
X145690476Y-124442857D01*
X145690476Y-124680952D01*
X145738095Y-124776190D01*
X145785714Y-124823809D01*
X145880952Y-124871428D01*
X146071428Y-124871428D01*
X146166666Y-124823809D01*
X146214285Y-124776190D01*
X146261904Y-124680952D01*
G04 %TO.C,C23@% jlc*
X115157142Y-70527142D02*
X115109523Y-70574761D01*
X114966666Y-70622380D01*
X114871428Y-70622380D01*
X114728571Y-70574761D01*
X114633333Y-70479523D01*
X114585714Y-70384285D01*
X114538095Y-70193809D01*
X114538095Y-70050952D01*
X114585714Y-69860476D01*
X114633333Y-69765238D01*
X114728571Y-69670000D01*
X114871428Y-69622380D01*
X114966666Y-69622380D01*
X115109523Y-69670000D01*
X115157142Y-69717619D01*
X115538095Y-69717619D02*
X115585714Y-69670000D01*
X115680952Y-69622380D01*
X115919047Y-69622380D01*
X116014285Y-69670000D01*
X116061904Y-69717619D01*
X116109523Y-69812857D01*
X116109523Y-69908095D01*
X116061904Y-70050952D01*
X115490476Y-70622380D01*
X116109523Y-70622380D01*
X116442857Y-69622380D02*
X117061904Y-69622380D01*
X116728571Y-70003333D01*
X116871428Y-70003333D01*
X116966666Y-70050952D01*
X117014285Y-70098571D01*
X117061904Y-70193809D01*
X117061904Y-70431904D01*
X117014285Y-70527142D01*
X116966666Y-70574761D01*
X116871428Y-70622380D01*
X116585714Y-70622380D01*
X116490476Y-70574761D01*
X116442857Y-70527142D01*
D13*
G04 %TO.C,R27@% jlc*
X148454724Y-89422500D02*
X147945276Y-89422500D01*
X148454724Y-88377500D02*
X147945276Y-88377500D01*
G04 %TO.C,R22@% jlc*
X148454724Y-130322500D02*
X147945276Y-130322500D01*
X148454724Y-129277500D02*
X147945276Y-129277500D01*
G04 %TO.C,R18@% jlc*
X148454724Y-79877500D02*
X147945276Y-79877500D01*
X148454724Y-80922500D02*
X147945276Y-80922500D01*
G04 %TO.C,R8@% jlc*
X112822500Y-142945276D02*
X112822500Y-143454724D01*
X111777500Y-142945276D02*
X111777500Y-143454724D01*
D12*
G04 %TO.C,J7@% jlc*
X115330000Y-51722500D02*
X115830000Y-51722500D01*
X123310000Y-51722500D02*
X123310000Y-51922500D01*
X125730000Y-51922500D02*
X125730000Y-60862500D01*
X122810000Y-51722500D02*
X123310000Y-51722500D01*
X107850000Y-51922500D02*
X107850000Y-51722500D01*
X124530000Y-59562500D02*
X117805000Y-59562500D01*
X107850000Y-51722500D02*
X108350000Y-51722500D01*
X106630000Y-59562500D02*
X106630000Y-53222500D01*
X113355000Y-59562500D02*
X106630000Y-59562500D01*
X117805000Y-59562500D02*
X117805000Y-60862500D01*
X108350000Y-51722500D02*
X108350000Y-51922500D01*
X107850000Y-51822500D02*
X108350000Y-51822500D01*
X113355000Y-60862500D02*
X113355000Y-59562500D01*
X125730000Y-60862500D02*
X105430000Y-60862500D01*
X122810000Y-51822500D02*
X123310000Y-51822500D01*
X115330000Y-51922500D02*
X115330000Y-51722500D01*
X115330000Y-51822500D02*
X115830000Y-51822500D01*
X124530000Y-53222500D02*
X124530000Y-59562500D01*
X122810000Y-51922500D02*
X122810000Y-51722500D01*
X106630000Y-53222500D02*
X124530000Y-53222500D01*
X105430000Y-60862500D02*
X105430000Y-51922500D01*
X115830000Y-51722500D02*
X115830000Y-51922500D01*
X105430000Y-51922500D02*
X125730000Y-51922500D01*
G36*
X111500000Y-61362500D02*
G01*
X109500000Y-61362500D01*
X109500000Y-51462500D01*
X111500000Y-51462500D01*
X111500000Y-61362500D01*
G37*
D14*
X111500000Y-61362500D02*
X109500000Y-61362500D01*
X109500000Y-51462500D01*
X111500000Y-51462500D01*
X111500000Y-61362500D01*
D13*
G04 %TO.C,C3@% jlc*
X115890000Y-78453733D02*
X115890000Y-78746267D01*
X116910000Y-78453733D02*
X116910000Y-78746267D01*
G04 %TO.C,C40@% jlc*
X147615000Y-56072936D02*
X147615000Y-56527064D01*
X149085000Y-56072936D02*
X149085000Y-56527064D01*
G04 %TO.C,U7@% jlc*
X100810000Y-56290000D02*
X99550000Y-56290000D01*
X93990000Y-56290000D02*
X95250000Y-56290000D01*
X93990000Y-62300000D02*
X93990000Y-56290000D01*
X100810000Y-60050000D02*
X100810000Y-56290000D01*
G04 %TO.C,R17@% jlc*
X147945276Y-78922500D02*
X148454724Y-78922500D01*
X147945276Y-77877500D02*
X148454724Y-77877500D01*
G04 %TO.C,R28@% jlc*
X84654724Y-125777500D02*
X84145276Y-125777500D01*
X84654724Y-126822500D02*
X84145276Y-126822500D01*
G04 %TO.C,R5@% jlc*
X148454724Y-75577500D02*
X147945276Y-75577500D01*
X148454724Y-76622500D02*
X147945276Y-76622500D01*
D12*
G04 %TO.C,U4@% jlc*
X128675000Y-139125000D02*
X128650000Y-139125000D01*
X121850000Y-140200000D02*
X121850000Y-134475000D01*
X121850000Y-134475000D02*
X121950000Y-134475000D01*
X128675000Y-134475000D02*
X128650000Y-134475000D01*
X128675000Y-139125000D02*
X128675000Y-134475000D01*
D13*
G04 %TO.C,C39@% jlc*
X146685000Y-56072936D02*
X146685000Y-56527064D01*
X145215000Y-56072936D02*
X145215000Y-56527064D01*
G04 %TO.C,C38@% jlc*
X139977064Y-58965000D02*
X139522936Y-58965000D01*
X139977064Y-60435000D02*
X139522936Y-60435000D01*
G04 %TO.C,R30@% jlc*
X84654724Y-131022500D02*
X84145276Y-131022500D01*
X84654724Y-129977500D02*
X84145276Y-129977500D01*
G04 %TO.C,C34@% jlc*
X122190000Y-143053733D02*
X122190000Y-143346267D01*
X123210000Y-143053733D02*
X123210000Y-143346267D01*
G04 %TO.C,C10@% jlc*
X125090000Y-106946267D02*
X125090000Y-106653733D01*
X126110000Y-106946267D02*
X126110000Y-106653733D01*
G04 %TO.C,Q6@% jlc*
X88386250Y-123740000D02*
X86711250Y-123740000D01*
X88386250Y-126860000D02*
X89036250Y-126860000D01*
X88386250Y-126860000D02*
X87736250Y-126860000D01*
X88386250Y-123740000D02*
X89036250Y-123740000D01*
G04 %TO.C,C24@% jlc*
X109810000Y-130546267D02*
X109810000Y-130253733D01*
X108790000Y-130546267D02*
X108790000Y-130253733D01*
G04 %TO.C,R7@% jlc*
X107422500Y-143454724D02*
X107422500Y-142945276D01*
X106377500Y-143454724D02*
X106377500Y-142945276D01*
G04 %TO.C,C25@% jlc*
X105610000Y-143053733D02*
X105610000Y-143346267D01*
X104590000Y-143053733D02*
X104590000Y-143346267D01*
G04 %TO.C,R24@% jlc*
X148454724Y-70322500D02*
X147945276Y-70322500D01*
X148454724Y-69277500D02*
X147945276Y-69277500D01*
G04 %TO.C,C32@% jlc*
X119565000Y-130661252D02*
X119565000Y-130138748D01*
X121035000Y-130661252D02*
X121035000Y-130138748D01*
G04 %TO.C,R32@% jlc*
X134627500Y-55954724D02*
X134627500Y-55445276D01*
X135672500Y-55954724D02*
X135672500Y-55445276D01*
G04 %TO.C,R4@% jlc*
X102022500Y-142945276D02*
X102022500Y-143454724D01*
X100977500Y-142945276D02*
X100977500Y-143454724D01*
G04 %TO.C,C33@% jlc*
X88110000Y-92946267D02*
X88110000Y-92653733D01*
X87090000Y-92946267D02*
X87090000Y-92653733D01*
G04 %TO.C,C30@% jlc*
X131635000Y-142938748D02*
X131635000Y-143461252D01*
X130165000Y-142938748D02*
X130165000Y-143461252D01*
G04 %TO.C,R9@% jlc*
X100222500Y-142945276D02*
X100222500Y-143454724D01*
X99177500Y-142945276D02*
X99177500Y-143454724D01*
G04 %TO.C,C4@% jlc*
X110490000Y-78453733D02*
X110490000Y-78746267D01*
X111510000Y-78453733D02*
X111510000Y-78746267D01*
G04 %TO.C,C31@% jlc*
X121790000Y-130546267D02*
X121790000Y-130253733D01*
X122810000Y-130546267D02*
X122810000Y-130253733D01*
G04 %TO.C,C36@% jlc*
X125210000Y-143053733D02*
X125210000Y-143346267D01*
X124190000Y-143053733D02*
X124190000Y-143346267D01*
G04 %TO.C,U5@% jlc*
X90775000Y-95525000D02*
X90775000Y-95265000D01*
X96225000Y-95525000D02*
X96225000Y-95265000D01*
X93500000Y-95525000D02*
X96225000Y-95525000D01*
X93500000Y-95525000D02*
X90775000Y-95525000D01*
X90775000Y-90075000D02*
X90775000Y-90335000D01*
X93500000Y-90075000D02*
X96225000Y-90075000D01*
X96225000Y-90075000D02*
X96225000Y-90335000D01*
X93500000Y-90075000D02*
X90775000Y-90075000D01*
X96225000Y-95265000D02*
X97900000Y-95265000D01*
G04 %TO.C,Q1@% jlc*
X144162500Y-73540000D02*
X144812500Y-73540000D01*
X144162500Y-76660000D02*
X145837500Y-76660000D01*
X144162500Y-73540000D02*
X143512500Y-73540000D01*
X144162500Y-76660000D02*
X143512500Y-76660000D01*
G04 %TO.C,Q4@% jlc*
X144200000Y-90540000D02*
X143550000Y-90540000D01*
X144200000Y-90540000D02*
X144850000Y-90540000D01*
X144200000Y-93660000D02*
X143550000Y-93660000D01*
X144200000Y-93660000D02*
X145875000Y-93660000D01*
G04 %TO.C,R25@% jlc*
X148454724Y-71277500D02*
X147945276Y-71277500D01*
X148454724Y-72322500D02*
X147945276Y-72322500D01*
G04 %TO.C,R33@% jlc*
X136627500Y-55445276D02*
X136627500Y-55954724D01*
X137672500Y-55445276D02*
X137672500Y-55954724D01*
G04 %TO.C,L1@% jlc*
X150020000Y-58900000D02*
X150020000Y-57700000D01*
X151780000Y-57700000D02*
X151780000Y-58900000D01*
G04 %TO.C,Q7@% jlc*
X88386250Y-131060000D02*
X87736250Y-131060000D01*
X88386250Y-127940000D02*
X89036250Y-127940000D01*
X88386250Y-131060000D02*
X89036250Y-131060000D01*
X88386250Y-127940000D02*
X86711250Y-127940000D01*
G04 %TO.C,R10@% jlc*
X130237258Y-86077500D02*
X129762742Y-86077500D01*
X130237258Y-87122500D02*
X129762742Y-87122500D01*
G04 %TO.C,U1@% jlc*
X109535000Y-136800000D02*
X109535000Y-134850000D01*
X109535000Y-136800000D02*
X109535000Y-138750000D01*
X100665000Y-136800000D02*
X100665000Y-134850000D01*
X100665000Y-136800000D02*
X100665000Y-140250000D01*
G04 %TO.C,R16@% jlc*
X100777500Y-130654724D02*
X100777500Y-130145276D01*
X101822500Y-130654724D02*
X101822500Y-130145276D01*
G04 %TO.C,C11@% jlc*
X130146267Y-95090000D02*
X129853733Y-95090000D01*
X130146267Y-96110000D02*
X129853733Y-96110000D01*
G04 %TO.C,R13@% jlc*
X104777500Y-130145276D02*
X104777500Y-130654724D01*
X105822500Y-130145276D02*
X105822500Y-130654724D01*
G04 %TO.C,J5@% jlc*
X121250000Y-70470000D02*
X121250000Y-73130000D01*
X130200000Y-70470000D02*
X131530000Y-70470000D01*
X128930000Y-73130000D02*
X121250000Y-73130000D01*
X128930000Y-70470000D02*
X128930000Y-73130000D01*
X131530000Y-70470000D02*
X131530000Y-71800000D01*
X128930000Y-70470000D02*
X121250000Y-70470000D01*
G04 %TO.C,Q2@% jlc*
X144200000Y-85160000D02*
X143550000Y-85160000D01*
X144200000Y-85160000D02*
X145875000Y-85160000D01*
X144200000Y-82040000D02*
X143550000Y-82040000D01*
X144200000Y-82040000D02*
X144850000Y-82040000D01*
G04 %TO.C,R23@% jlc*
X148454724Y-92577500D02*
X147945276Y-92577500D01*
X148454724Y-93622500D02*
X147945276Y-93622500D01*
G04 %TO.C,C6@% jlc*
X101553733Y-91110000D02*
X101846267Y-91110000D01*
X101553733Y-90090000D02*
X101846267Y-90090000D01*
G04 %TO.C,C28@% jlc*
X120190000Y-143053733D02*
X120190000Y-143346267D01*
X121210000Y-143053733D02*
X121210000Y-143346267D01*
G04 %TO.C,C13@% jlc*
X130146267Y-83910000D02*
X129853733Y-83910000D01*
X130146267Y-82890000D02*
X129853733Y-82890000D01*
G04 %TO.C,Q5@% jlc*
X144200000Y-86340000D02*
X144850000Y-86340000D01*
X144200000Y-86340000D02*
X143550000Y-86340000D01*
X144200000Y-89460000D02*
X145875000Y-89460000D01*
X144200000Y-89460000D02*
X143550000Y-89460000D01*
G04 %TO.C,R3@% jlc*
X103822500Y-142945276D02*
X103822500Y-143454724D01*
X102777500Y-142945276D02*
X102777500Y-143454724D01*
G04 %TO.C,C14@% jlc*
X117090000Y-106946267D02*
X117090000Y-106653733D01*
X118110000Y-106946267D02*
X118110000Y-106653733D01*
G04 %TO.C,U2@% jlc*
X125710000Y-101960000D02*
X125710000Y-102910000D01*
X105490000Y-101960000D02*
X105490000Y-102910000D01*
X125710000Y-83640000D02*
X125710000Y-82690000D01*
X124760000Y-82690000D02*
X124760000Y-81400000D01*
X105490000Y-83640000D02*
X105490000Y-82690000D01*
X105490000Y-102910000D02*
X106440000Y-102910000D01*
X125710000Y-102910000D02*
X124760000Y-102910000D01*
X125710000Y-82690000D02*
X124760000Y-82690000D01*
X105490000Y-82690000D02*
X106440000Y-82690000D01*
G04 %TO.C,Y1@% jlc*
X110750000Y-72800000D02*
X110750000Y-76400000D01*
X116500000Y-72800000D02*
X110750000Y-72800000D01*
X110750000Y-76400000D02*
X116500000Y-76400000D01*
G04 %TO.C,C20@% jlc*
X103810000Y-130253733D02*
X103810000Y-130546267D01*
X102790000Y-130253733D02*
X102790000Y-130546267D01*
G04 %TO.C,C16@% jlc*
X108310000Y-78453733D02*
X108310000Y-78746267D01*
X107290000Y-78453733D02*
X107290000Y-78746267D01*
G04 %TO.C,D1@% jlc*
X129200000Y-55962500D02*
X131200000Y-55962500D01*
X131200000Y-55962500D02*
X131200000Y-52062500D01*
X129200000Y-55962500D02*
X129200000Y-52062500D01*
G04 %TO.C,C5@% jlc*
X101553733Y-85610000D02*
X101846267Y-85610000D01*
X101553733Y-84590000D02*
X101846267Y-84590000D01*
G04 %TO.C,R29@% jlc*
X84145276Y-124822500D02*
X84654724Y-124822500D01*
X84145276Y-123777500D02*
X84654724Y-123777500D01*
G04 %TO.C,R6@% jlc*
X115377500Y-143454724D02*
X115377500Y-142945276D01*
X116422500Y-143454724D02*
X116422500Y-142945276D01*
G04 %TO.C,C26@% jlc*
X112146267Y-72110000D02*
X111853733Y-72110000D01*
X112146267Y-71090000D02*
X111853733Y-71090000D01*
G04 %TO.C,R31@% jlc*
X84145276Y-127977500D02*
X84654724Y-127977500D01*
X84145276Y-129022500D02*
X84654724Y-129022500D01*
G04 %TO.C,R2@% jlc*
X109222500Y-142945276D02*
X109222500Y-143454724D01*
X108177500Y-142945276D02*
X108177500Y-143454724D01*
G04 %TO.C,C27@% jlc*
X116253733Y-118710000D02*
X116546267Y-118710000D01*
X116253733Y-117690000D02*
X116546267Y-117690000D01*
G04 %TO.C,U3@% jlc*
X115800000Y-116725000D02*
X118525000Y-116725000D01*
X118525000Y-116465000D02*
X120200000Y-116465000D01*
X118525000Y-116725000D02*
X118525000Y-116465000D01*
X118525000Y-111275000D02*
X118525000Y-111535000D01*
X113075000Y-111275000D02*
X113075000Y-111535000D01*
X115800000Y-116725000D02*
X113075000Y-116725000D01*
X115800000Y-111275000D02*
X113075000Y-111275000D01*
X113075000Y-116725000D02*
X113075000Y-116465000D01*
X115800000Y-111275000D02*
X118525000Y-111275000D01*
G04 %TO.C,C41@% jlc*
X90260000Y-58740000D02*
X89060000Y-58740000D01*
X86190000Y-63750000D02*
X86690000Y-63750000D01*
X89195563Y-63260000D02*
X90260000Y-62195563D01*
X86804437Y-63260000D02*
X85740000Y-62195563D01*
X85740000Y-62195563D02*
X85740000Y-58740000D01*
X85740000Y-58740000D02*
X86940000Y-58740000D01*
X86804437Y-63260000D02*
X86940000Y-63260000D01*
X86440000Y-64000000D02*
X86440000Y-63500000D01*
X90260000Y-62195563D02*
X90260000Y-58740000D01*
X89195563Y-63260000D02*
X89060000Y-63260000D01*
G04 %TO.C,RESET1@% jlc*
X96450000Y-73900000D02*
X103150000Y-73900000D01*
X96450000Y-72000000D02*
X96450000Y-69600000D01*
X103150000Y-67700000D02*
X103150000Y-67900000D01*
X103150000Y-67700000D02*
X96450000Y-67700000D01*
X96450000Y-67700000D02*
X96450000Y-67900000D01*
X96450000Y-73900000D02*
X96450000Y-73700000D01*
X103150000Y-73900000D02*
X103150000Y-73700000D01*
X103150000Y-72000000D02*
X103150000Y-69600000D01*
G04 %TO.C,R26@% jlc*
X147945276Y-86377500D02*
X148454724Y-86377500D01*
X147945276Y-87422500D02*
X148454724Y-87422500D01*
G04 %TO.C,C42@% jlc*
X148027064Y-58990000D02*
X146572936Y-58990000D01*
X148027064Y-60810000D02*
X146572936Y-60810000D01*
G04 %TO.C,L2@% jlc*
X88560000Y-54199622D02*
X88560000Y-53400378D01*
X87440000Y-54199622D02*
X87440000Y-53400378D01*
G04 %TO.C,Q3@% jlc*
X144200000Y-77840000D02*
X143550000Y-77840000D01*
X144200000Y-80960000D02*
X143550000Y-80960000D01*
X144200000Y-77840000D02*
X144850000Y-77840000D01*
X144200000Y-80960000D02*
X145875000Y-80960000D01*
G04 %TO.C,R12@% jlc*
X148454724Y-85122500D02*
X147945276Y-85122500D01*
X148454724Y-84077500D02*
X147945276Y-84077500D01*
G04 %TO.C,C18@% jlc*
X101746267Y-101710000D02*
X101453733Y-101710000D01*
X101746267Y-100690000D02*
X101453733Y-100690000D01*
G04 %TO.C,C9@% jlc*
X114310000Y-106946267D02*
X114310000Y-106653733D01*
X113290000Y-106946267D02*
X113290000Y-106653733D01*
G04 %TO.C,D2@% jlc*
X79000000Y-51550000D02*
X79000000Y-55450000D01*
X81000000Y-51550000D02*
X79000000Y-51550000D01*
X81000000Y-51550000D02*
X81000000Y-55450000D01*
G04 %TO.C,C29@% jlc*
X129210000Y-143053733D02*
X129210000Y-143346267D01*
X128190000Y-143053733D02*
X128190000Y-143346267D01*
G04 %TO.C,R20@% jlc*
X147945276Y-90577500D02*
X148454724Y-90577500D01*
X147945276Y-91622500D02*
X148454724Y-91622500D01*
G04 %TO.C,C35@% jlc*
X123590000Y-130253733D02*
X123590000Y-130546267D01*
X124610000Y-130253733D02*
X124610000Y-130546267D01*
G04 %TO.C,C7@% jlc*
X101453733Y-95590000D02*
X101746267Y-95590000D01*
X101453733Y-96610000D02*
X101746267Y-96610000D01*
G04 %TO.C,C2@% jlc*
X121290000Y-78453733D02*
X121290000Y-78746267D01*
X122310000Y-78453733D02*
X122310000Y-78746267D01*
G04 %TO.C,C43@% jlc*
X78440000Y-64000000D02*
X78440000Y-63500000D01*
X78804437Y-63260000D02*
X78940000Y-63260000D01*
X81195563Y-63260000D02*
X81060000Y-63260000D01*
X82260000Y-58740000D02*
X81060000Y-58740000D01*
X78804437Y-63260000D02*
X77740000Y-62195563D01*
X78190000Y-63750000D02*
X78690000Y-63750000D01*
X82260000Y-62195563D02*
X82260000Y-58740000D01*
X81195563Y-63260000D02*
X82260000Y-62195563D01*
X77740000Y-58740000D02*
X78940000Y-58740000D01*
X77740000Y-62195563D02*
X77740000Y-58740000D01*
G04 %TO.C,C12@% jlc*
X130146267Y-90090000D02*
X129853733Y-90090000D01*
X130146267Y-91110000D02*
X129853733Y-91110000D01*
G04 %TO.C,R15@% jlc*
X107822500Y-130654724D02*
X107822500Y-130145276D01*
X106777500Y-130654724D02*
X106777500Y-130145276D01*
G04 %TO.C,U6@% jlc*
X142450000Y-54690000D02*
X140650000Y-54690000D01*
X140650000Y-57910000D02*
X143600000Y-57910000D01*
G04 %TO.C,C21@% jlc*
X104090000Y-78453733D02*
X104090000Y-78746267D01*
X105110000Y-78453733D02*
X105110000Y-78746267D01*
G04 %TO.C,C17@% jlc*
X114610000Y-143053733D02*
X114610000Y-143346267D01*
X113590000Y-143053733D02*
X113590000Y-143346267D01*
D12*
G04 %TO.C,J6@% jlc*
X148390000Y-105030000D02*
X138230000Y-105030000D01*
X138230000Y-105030000D02*
X138230000Y-107570000D01*
X148390000Y-107570000D02*
X148390000Y-105030000D01*
X138230000Y-107570000D02*
X148390000Y-107570000D01*
D13*
G04 %TO.C,C37@% jlc*
X131885000Y-57375000D02*
X131885000Y-58000000D01*
X127440000Y-63760000D02*
X129140000Y-63760000D01*
X132960000Y-59304437D02*
X132960000Y-63760000D01*
X131895563Y-58240000D02*
X132960000Y-59304437D01*
X128504437Y-58240000D02*
X127440000Y-59304437D01*
X128504437Y-58240000D02*
X129140000Y-58240000D01*
X132197500Y-57687500D02*
X131572500Y-57687500D01*
X131895563Y-58240000D02*
X131260000Y-58240000D01*
X132960000Y-63760000D02*
X131260000Y-63760000D01*
X127440000Y-59304437D02*
X127440000Y-63760000D01*
G04 %TO.C,C19@% jlc*
X123290000Y-106653733D02*
X123290000Y-106946267D01*
X124310000Y-106653733D02*
X124310000Y-106946267D01*
G04 %TO.C,C22@% jlc*
X105690000Y-78453733D02*
X105690000Y-78746267D01*
X106710000Y-78453733D02*
X106710000Y-78746267D01*
G04 %TO.C,R21@% jlc*
X148454724Y-127722500D02*
X147945276Y-127722500D01*
X148454724Y-126677500D02*
X147945276Y-126677500D01*
G04 %TO.C,C8@% jlc*
X101453733Y-103510000D02*
X101746267Y-103510000D01*
X101453733Y-102490000D02*
X101746267Y-102490000D01*
G04 %TO.C,C15@% jlc*
X108890000Y-78453733D02*
X108890000Y-78746267D01*
X109910000Y-78453733D02*
X109910000Y-78746267D01*
G04 %TO.C,R11@% jlc*
X147945276Y-82077500D02*
X148454724Y-82077500D01*
X147945276Y-83122500D02*
X148454724Y-83122500D01*
G04 %TO.C,R14@% jlc*
X126177500Y-143454724D02*
X126177500Y-142945276D01*
X127222500Y-143454724D02*
X127222500Y-142945276D01*
G04 %TO.C,R1@% jlc*
X147945276Y-74622500D02*
X148454724Y-74622500D01*
X147945276Y-73577500D02*
X148454724Y-73577500D01*
G04 %TO.C,C1@% jlc*
X109990000Y-143053733D02*
X109990000Y-143346267D01*
X111010000Y-143053733D02*
X111010000Y-143346267D01*
G04 %TO.C,R19@% jlc*
X148454724Y-124277500D02*
X147945276Y-124277500D01*
X148454724Y-125322500D02*
X147945276Y-125322500D01*
G04 %TO.C,C23@% jlc*
X115653733Y-72110000D02*
X115946267Y-72110000D01*
X115653733Y-71090000D02*
X115946267Y-71090000D01*
G04 %TD@% jlc*
M02*
