G04 %TF.GenerationSoftware,KiCad,Pcbnew,(6.0.8)@% jlc*
G04 %TF.CreationDate,2022-10-20T13:21:54+01:00@% jlc*
G04 %TF.ProjectId,Punck_Components,50756e63-6b5f-4436-9f6d-706f6e656e74,rev?@% jlc*
G04 %TF.SameCoordinates,Original@% jlc*
G04 %TF.FileFunction,Soldermask,Top@% jlc*
G04 %TF.FilePolarity,Negative@% jlc*
%FSLAX46Y46*%
G04 Gerber Fmt 4.6, Leading zero omitted, Abs format (unit mm)*
G04 Created by KiCad (PCBNEW (6.0.8)) date 2022-10-20 13:21:54*
%MOMM*%
%LPD*%
G01*
G04 APERTURE LIST*
G04 Aperture macros list*
%AMRoundRect*
0 Rectangle with rounded corners*
0 $1 Rounding radius*
0 $2 $3 $4 $5 $6 $7 $8 $9 X,Y pos of 4 corners*
0 Add a 4 corners polygon primitive as box body*
4,1,4,$2,$3,$4,$5,$6,$7,$8,$9,$2,$3,0*
0 Add four circle primitives for the rounded corners*
1,1,$1+$1,$2,$3*
1,1,$1+$1,$4,$5*
1,1,$1+$1,$6,$7*
1,1,$1+$1,$8,$9*
0 Add four rect primitives between the rounded corners*
20,1,$1+$1,$2,$3,$4,$5,0*
20,1,$1+$1,$4,$5,$6,$7,0*
20,1,$1+$1,$6,$7,$8,$9,0*
20,1,$1+$1,$8,$9,$2,$3,0*%
G04 Aperture macros list end*
%ADD10C,0.150000*%
%ADD11C,0.100000*%
%ADD12RoundRect,0.237500X0.250000X0.237500X-0.250000X0.237500X-0.250000X-0.237500X0.250000X-0.237500X0*%
%ADD13RoundRect,0.237500X-0.237500X0.250000X-0.237500X-0.250000X0.237500X-0.250000X0.237500X0.250000X0*%
%ADD14R,1.700000X1.700000*%
%ADD15C,1.700000*%
%ADD16RoundRect,0.237500X-0.237500X0.300000X-0.237500X-0.300000X0.237500X-0.300000X0.237500X0.300000X0*%
%ADD17RoundRect,0.250000X-0.450000X0.262500X-0.450000X-0.262500X0.450000X-0.262500X0.450000X0.262500X0*%
%ADD18R,1.500000X2.000000*%
%ADD19R,3.800000X2.000000*%
%ADD20RoundRect,0.237500X-0.250000X-0.237500X0.250000X-0.237500X0.250000X0.237500X-0.250000X0.237500X0*%
%ADD21C,2.000000*%
%ADD22RoundRect,0.100000X0.100000X-0.400000X0.100000X0.400000X-0.100000X0.400000X-0.100000X-0.400000X0*%
%ADD23RoundRect,0.250000X0.262500X0.450000X-0.262500X0.450000X-0.262500X-0.450000X0.262500X-0.450000X0*%
%ADD24RoundRect,0.237500X0.237500X-0.300000X0.237500X0.300000X-0.237500X0.300000X-0.237500X-0.300000X0*%
%ADD25RoundRect,0.150000X-0.587500X-0.150000X0.587500X-0.150000X0.587500X0.150000X-0.587500X0.150000X0*%
%ADD26RoundRect,0.237500X0.237500X-0.250000X0.237500X0.250000X-0.237500X0.250000X-0.237500X-0.250000X0*%
%ADD27RoundRect,0.250000X0.475000X-0.250000X0.475000X0.250000X-0.475000X0.250000X-0.475000X-0.250000X0*%
%ADD28RoundRect,0.250000X-0.475000X0.250000X-0.475000X-0.250000X0.475000X-0.250000X0.475000X0.250000X0*%
%ADD29RoundRect,0.150000X0.650000X0.150000X-0.650000X0.150000X-0.650000X-0.150000X0.650000X-0.150000X0*%
%ADD30RoundRect,0.150000X0.587500X0.150000X-0.587500X0.150000X-0.587500X-0.150000X0.587500X-0.150000X0*%
%ADD31R,1.600000X0.800000*%
%ADD32RoundRect,0.200000X0.200000X0.275000X-0.200000X0.275000X-0.200000X-0.275000X0.200000X-0.275000X0*%
%ADD33RoundRect,0.150000X0.150000X-0.825000X0.150000X0.825000X-0.150000X0.825000X-0.150000X-0.825000X0*%
%ADD34RoundRect,0.237500X0.300000X0.237500X-0.300000X0.237500X-0.300000X-0.237500X0.300000X-0.237500X0*%
%ADD35O,1.700000X1.700000*%
%ADD36RoundRect,0.237500X-0.300000X-0.237500X0.300000X-0.237500X0.300000X0.237500X-0.300000X0.237500X0*%
%ADD37RoundRect,0.075000X-0.075000X0.662500X-0.075000X-0.662500X0.075000X-0.662500X0.075000X0.662500X0*%
%ADD38RoundRect,0.075000X-0.662500X0.075000X-0.662500X-0.075000X0.662500X-0.075000X0.662500X0.075000X0*%
%ADD39R,2.450000X2.400000*%
%ADD40R,2.550000X2.400000*%
%ADD41R,1.200000X0.900000*%
%ADD42RoundRect,0.250000X0.550000X-1.050000X0.550000X1.050000X-0.550000X1.050000X-0.550000X-1.050000X0*%
%ADD43R,2.200000X1.000000*%
%ADD44RoundRect,0.250000X0.312500X0.625000X-0.312500X0.625000X-0.312500X-0.625000X0.312500X-0.625000X0*%
%ADD45RoundRect,0.218750X0.381250X-0.218750X0.381250X0.218750X-0.381250X0.218750X-0.381250X-0.218750X0*%
%ADD46R,1.560000X0.650000*%
%ADD47RoundRect,0.250000X-0.550000X1.250000X-0.550000X-1.250000X0.550000X-1.250000X0.550000X1.250000X0*%
G04 APERTURE END LIST*
D10*
X93400000Y-52000000D02*
X101600000Y-52000000D01*
X101600000Y-52000000D02*
X101600000Y-57665779D01*
X101600000Y-57665779D02*
X93400000Y-57665779D01*
X93400000Y-57665779D02*
X93400000Y-52000000D01*
G36*
X93400000Y-52000000D02*
G01*
X101600000Y-52000000D01*
X101600000Y-57665779D01*
X93400000Y-57665779D01*
X93400000Y-52000000D01*
G37*
G04 %TO.C,FID1@% jlc*
G36*
X160000000Y-148400000D02*
G01*
X152000000Y-148400000D01*
X152000000Y-146400000D01*
X160000000Y-146400000D01*
X160000000Y-148400000D01*
G37*
D11*
X160000000Y-148400000D02*
X152000000Y-148400000D01*
X152000000Y-146400000D01*
X160000000Y-146400000D01*
X160000000Y-148400000D01*
G04 %TD@% jlc*
D12*
G04 %TO.C,R27@% jlc*
X149112500Y-88900000D03*
X147287500Y-88900000D03*
G04 %TD@% jlc*
G04 %TO.C,R22@% jlc*
X149112500Y-129800000D03*
X147287500Y-129800000D03*
G04 %TD@% jlc*
G04 %TO.C,R18@% jlc*
X149112500Y-80400000D03*
X147287500Y-80400000D03*
G04 %TD@% jlc*
D13*
G04 %TO.C,R8@% jlc*
X112300000Y-142287500D03*
X112300000Y-144112500D03*
G04 %TD@% jlc*
D14*
G04 %TO.C,J7@% jlc*
X110500000Y-57662500D03*
D15*
X110500000Y-55122500D03*
X113040000Y-57662500D03*
X113040000Y-55122500D03*
X115580000Y-57662500D03*
X115580000Y-55122500D03*
X118120000Y-57662500D03*
X118120000Y-55122500D03*
X120660000Y-57662500D03*
X120660000Y-55122500D03*
G04 %TD@% jlc*
D16*
G04 %TO.C,C3@% jlc*
X116400000Y-77737500D03*
X116400000Y-79462500D03*
G04 %TD@% jlc*
D17*
G04 %TO.C,C40@% jlc*
X148350000Y-55387500D03*
X148350000Y-57212500D03*
G04 %TD@% jlc*
D18*
G04 %TO.C,U7@% jlc*
X95100000Y-61350000D03*
X97400000Y-61350000D03*
D19*
X97400000Y-55050000D03*
D18*
X99700000Y-61350000D03*
G04 %TD@% jlc*
D20*
G04 %TO.C,R17@% jlc*
X147287500Y-78400000D03*
X149112500Y-78400000D03*
G04 %TD@% jlc*
D12*
G04 %TO.C,R28@% jlc*
X85312500Y-126300000D03*
X83487500Y-126300000D03*
G04 %TD@% jlc*
D21*
G04 %TO.C,TP9@% jlc*
X145700000Y-146600000D03*
G04 %TD@% jlc*
D12*
G04 %TO.C,R5@% jlc*
X149112500Y-76100000D03*
X147287500Y-76100000D03*
G04 %TD@% jlc*
D22*
G04 %TO.C,U4@% jlc*
X122375000Y-139700000D03*
X123025000Y-139700000D03*
X123675000Y-139700000D03*
X124325000Y-139700000D03*
X124975000Y-139700000D03*
X125625000Y-139700000D03*
X126275000Y-139700000D03*
X126925000Y-139700000D03*
X127575000Y-139700000D03*
X128225000Y-139700000D03*
X128225000Y-133900000D03*
X127575000Y-133900000D03*
X126925000Y-133900000D03*
X126275000Y-133900000D03*
X125625000Y-133900000D03*
X124975000Y-133900000D03*
X124325000Y-133900000D03*
X123675000Y-133900000D03*
X123025000Y-133900000D03*
X122375000Y-133900000D03*
G04 %TD@% jlc*
D17*
G04 %TO.C,C39@% jlc*
X145950000Y-55387500D03*
X145950000Y-57212500D03*
G04 %TD@% jlc*
D23*
G04 %TO.C,C38@% jlc*
X140662500Y-59700000D03*
X138837500Y-59700000D03*
G04 %TD@% jlc*
D12*
G04 %TO.C,R30@% jlc*
X85312500Y-130500000D03*
X83487500Y-130500000D03*
G04 %TD@% jlc*
D16*
G04 %TO.C,C34@% jlc*
X122700000Y-142337500D03*
X122700000Y-144062500D03*
G04 %TD@% jlc*
D24*
G04 %TO.C,C10@% jlc*
X125600000Y-107662500D03*
X125600000Y-105937500D03*
G04 %TD@% jlc*
D25*
G04 %TO.C,Q6@% jlc*
X87448750Y-124350000D03*
X87448750Y-126250000D03*
X89323750Y-125300000D03*
G04 %TD@% jlc*
D24*
G04 %TO.C,C24@% jlc*
X109300000Y-131262500D03*
X109300000Y-129537500D03*
G04 %TD@% jlc*
D21*
G04 %TO.C,TP3@% jlc*
X109400000Y-121600000D03*
G04 %TD@% jlc*
D26*
G04 %TO.C,R7@% jlc*
X106900000Y-144112500D03*
X106900000Y-142287500D03*
G04 %TD@% jlc*
D16*
G04 %TO.C,C25@% jlc*
X105100000Y-142337500D03*
X105100000Y-144062500D03*
G04 %TD@% jlc*
D12*
G04 %TO.C,R24@% jlc*
X149112500Y-69800000D03*
X147287500Y-69800000D03*
G04 %TD@% jlc*
D27*
G04 %TO.C,C32@% jlc*
X120300000Y-131350000D03*
X120300000Y-129450000D03*
G04 %TD@% jlc*
D26*
G04 %TO.C,R32@% jlc*
X135150000Y-56612500D03*
X135150000Y-54787500D03*
G04 %TD@% jlc*
D13*
G04 %TO.C,R4@% jlc*
X101500000Y-142287500D03*
X101500000Y-144112500D03*
G04 %TD@% jlc*
D21*
G04 %TO.C,TP8@% jlc*
X84800000Y-67000000D03*
G04 %TD@% jlc*
D24*
G04 %TO.C,C33@% jlc*
X87600000Y-93662500D03*
X87600000Y-91937500D03*
G04 %TD@% jlc*
D28*
G04 %TO.C,C30@% jlc*
X130900000Y-142250000D03*
X130900000Y-144150000D03*
G04 %TD@% jlc*
D13*
G04 %TO.C,R9@% jlc*
X99700000Y-142287500D03*
X99700000Y-144112500D03*
G04 %TD@% jlc*
D16*
G04 %TO.C,C4@% jlc*
X111000000Y-77737500D03*
X111000000Y-79462500D03*
G04 %TD@% jlc*
D24*
G04 %TO.C,C31@% jlc*
X122300000Y-131262500D03*
X122300000Y-129537500D03*
G04 %TD@% jlc*
D16*
G04 %TO.C,C36@% jlc*
X124700000Y-142337500D03*
X124700000Y-144062500D03*
G04 %TD@% jlc*
D29*
G04 %TO.C,U5@% jlc*
X97100000Y-94705000D03*
X97100000Y-93435000D03*
X97100000Y-92165000D03*
X97100000Y-90895000D03*
X89900000Y-90895000D03*
X89900000Y-92165000D03*
X89900000Y-93435000D03*
X89900000Y-94705000D03*
G04 %TD@% jlc*
D30*
G04 %TO.C,Q1@% jlc*
X145100000Y-76050000D03*
X145100000Y-74150000D03*
X143225000Y-75100000D03*
G04 %TD@% jlc*
G04 %TO.C,Q4@% jlc*
X145137500Y-93050000D03*
X145137500Y-91150000D03*
X143262500Y-92100000D03*
G04 %TD@% jlc*
D21*
G04 %TO.C,TP7@% jlc*
X93400000Y-67000000D03*
G04 %TD@% jlc*
D12*
G04 %TO.C,R25@% jlc*
X149112500Y-71800000D03*
X147287500Y-71800000D03*
G04 %TD@% jlc*
D13*
G04 %TO.C,R33@% jlc*
X137150000Y-54787500D03*
X137150000Y-56612500D03*
G04 %TD@% jlc*
D31*
G04 %TO.C,L1@% jlc*
X150900000Y-57400000D03*
X150900000Y-59200000D03*
G04 %TD@% jlc*
D25*
G04 %TO.C,Q7@% jlc*
X87448750Y-128550000D03*
X87448750Y-130450000D03*
X89323750Y-129500000D03*
G04 %TD@% jlc*
D32*
G04 %TO.C,R10@% jlc*
X130825000Y-86600000D03*
X129175000Y-86600000D03*
G04 %TD@% jlc*
D33*
G04 %TO.C,U1@% jlc*
X101290000Y-139275000D03*
X102560000Y-139275000D03*
X103830000Y-139275000D03*
X105100000Y-139275000D03*
X106370000Y-139275000D03*
X107640000Y-139275000D03*
X108910000Y-139275000D03*
X108910000Y-134325000D03*
X107640000Y-134325000D03*
X106370000Y-134325000D03*
X105100000Y-134325000D03*
X103830000Y-134325000D03*
X102560000Y-134325000D03*
X101290000Y-134325000D03*
G04 %TD@% jlc*
D26*
G04 %TO.C,R16@% jlc*
X101300000Y-131312500D03*
X101300000Y-129487500D03*
G04 %TD@% jlc*
D34*
G04 %TO.C,C11@% jlc*
X130862500Y-95600000D03*
X129137500Y-95600000D03*
G04 %TD@% jlc*
D13*
G04 %TO.C,R13@% jlc*
X105300000Y-129487500D03*
X105300000Y-131312500D03*
G04 %TD@% jlc*
D14*
G04 %TO.C,J5@% jlc*
X130200000Y-71800000D03*
D35*
X127660000Y-71800000D03*
X125120000Y-71800000D03*
X122580000Y-71800000D03*
G04 %TD@% jlc*
D30*
G04 %TO.C,Q2@% jlc*
X145137500Y-84550000D03*
X145137500Y-82650000D03*
X143262500Y-83600000D03*
G04 %TD@% jlc*
D12*
G04 %TO.C,R23@% jlc*
X149112500Y-93100000D03*
X147287500Y-93100000D03*
G04 %TD@% jlc*
D36*
G04 %TO.C,C6@% jlc*
X100837500Y-90600000D03*
X102562500Y-90600000D03*
G04 %TD@% jlc*
D16*
G04 %TO.C,C28@% jlc*
X120700000Y-142337500D03*
X120700000Y-144062500D03*
G04 %TD@% jlc*
D34*
G04 %TO.C,C13@% jlc*
X130862500Y-83400000D03*
X129137500Y-83400000D03*
G04 %TD@% jlc*
D30*
G04 %TO.C,Q5@% jlc*
X145137500Y-88850000D03*
X145137500Y-86950000D03*
X143262500Y-87900000D03*
G04 %TD@% jlc*
D13*
G04 %TO.C,R3@% jlc*
X103300000Y-142287500D03*
X103300000Y-144112500D03*
G04 %TD@% jlc*
D24*
G04 %TO.C,C14@% jlc*
X117600000Y-107662500D03*
X117600000Y-105937500D03*
G04 %TD@% jlc*
D37*
G04 %TO.C,U2@% jlc*
X124350000Y-82137500D03*
X123850000Y-82137500D03*
X123350000Y-82137500D03*
X122850000Y-82137500D03*
X122350000Y-82137500D03*
X121850000Y-82137500D03*
X121350000Y-82137500D03*
X120850000Y-82137500D03*
X120350000Y-82137500D03*
X119850000Y-82137500D03*
X119350000Y-82137500D03*
X118850000Y-82137500D03*
X118350000Y-82137500D03*
X117850000Y-82137500D03*
X117350000Y-82137500D03*
X116850000Y-82137500D03*
X116350000Y-82137500D03*
X115850000Y-82137500D03*
X115350000Y-82137500D03*
X114850000Y-82137500D03*
X114350000Y-82137500D03*
X113850000Y-82137500D03*
X113350000Y-82137500D03*
X112850000Y-82137500D03*
X112350000Y-82137500D03*
X111850000Y-82137500D03*
X111350000Y-82137500D03*
X110850000Y-82137500D03*
X110350000Y-82137500D03*
X109850000Y-82137500D03*
X109350000Y-82137500D03*
X108850000Y-82137500D03*
X108350000Y-82137500D03*
X107850000Y-82137500D03*
X107350000Y-82137500D03*
X106850000Y-82137500D03*
D38*
X104937500Y-84050000D03*
X104937500Y-84550000D03*
X104937500Y-85050000D03*
X104937500Y-85550000D03*
X104937500Y-86050000D03*
X104937500Y-86550000D03*
X104937500Y-87050000D03*
X104937500Y-87550000D03*
X104937500Y-88050000D03*
X104937500Y-88550000D03*
X104937500Y-89050000D03*
X104937500Y-89550000D03*
X104937500Y-90050000D03*
X104937500Y-90550000D03*
X104937500Y-91050000D03*
X104937500Y-91550000D03*
X104937500Y-92050000D03*
X104937500Y-92550000D03*
X104937500Y-93050000D03*
X104937500Y-93550000D03*
X104937500Y-94050000D03*
X104937500Y-94550000D03*
X104937500Y-95050000D03*
X104937500Y-95550000D03*
X104937500Y-96050000D03*
X104937500Y-96550000D03*
X104937500Y-97050000D03*
X104937500Y-97550000D03*
X104937500Y-98050000D03*
X104937500Y-98550000D03*
X104937500Y-99050000D03*
X104937500Y-99550000D03*
X104937500Y-100050000D03*
X104937500Y-100550000D03*
X104937500Y-101050000D03*
X104937500Y-101550000D03*
D37*
X106850000Y-103462500D03*
X107350000Y-103462500D03*
X107850000Y-103462500D03*
X108350000Y-103462500D03*
X108850000Y-103462500D03*
X109350000Y-103462500D03*
X109850000Y-103462500D03*
X110350000Y-103462500D03*
X110850000Y-103462500D03*
X111350000Y-103462500D03*
X111850000Y-103462500D03*
X112350000Y-103462500D03*
X112850000Y-103462500D03*
X113350000Y-103462500D03*
X113850000Y-103462500D03*
X114350000Y-103462500D03*
X114850000Y-103462500D03*
X115350000Y-103462500D03*
X115850000Y-103462500D03*
X116350000Y-103462500D03*
X116850000Y-103462500D03*
X117350000Y-103462500D03*
X117850000Y-103462500D03*
X118350000Y-103462500D03*
X118850000Y-103462500D03*
X119350000Y-103462500D03*
X119850000Y-103462500D03*
X120350000Y-103462500D03*
X120850000Y-103462500D03*
X121350000Y-103462500D03*
X121850000Y-103462500D03*
X122350000Y-103462500D03*
X122850000Y-103462500D03*
X123350000Y-103462500D03*
X123850000Y-103462500D03*
X124350000Y-103462500D03*
D38*
X126262500Y-101550000D03*
X126262500Y-101050000D03*
X126262500Y-100550000D03*
X126262500Y-100050000D03*
X126262500Y-99550000D03*
X126262500Y-99050000D03*
X126262500Y-98550000D03*
X126262500Y-98050000D03*
X126262500Y-97550000D03*
X126262500Y-97050000D03*
X126262500Y-96550000D03*
X126262500Y-96050000D03*
X126262500Y-95550000D03*
X126262500Y-95050000D03*
X126262500Y-94550000D03*
X126262500Y-94050000D03*
X126262500Y-93550000D03*
X126262500Y-93050000D03*
X126262500Y-92550000D03*
X126262500Y-92050000D03*
X126262500Y-91550000D03*
X126262500Y-91050000D03*
X126262500Y-90550000D03*
X126262500Y-90050000D03*
X126262500Y-89550000D03*
X126262500Y-89050000D03*
X126262500Y-88550000D03*
X126262500Y-88050000D03*
X126262500Y-87550000D03*
X126262500Y-87050000D03*
X126262500Y-86550000D03*
X126262500Y-86050000D03*
X126262500Y-85550000D03*
X126262500Y-85050000D03*
X126262500Y-84550000D03*
X126262500Y-84050000D03*
G04 %TD@% jlc*
D39*
G04 %TO.C,Y1@% jlc*
X111725000Y-74600000D03*
D40*
X115925000Y-74600000D03*
G04 %TD@% jlc*
D16*
G04 %TO.C,C20@% jlc*
X103300000Y-129537500D03*
X103300000Y-131262500D03*
G04 %TD@% jlc*
G04 %TO.C,C16@% jlc*
X107800000Y-77737500D03*
X107800000Y-79462500D03*
G04 %TD@% jlc*
D41*
G04 %TO.C,D1@% jlc*
X130200000Y-55362500D03*
X130200000Y-52062500D03*
G04 %TD@% jlc*
D36*
G04 %TO.C,C5@% jlc*
X100837500Y-85100000D03*
X102562500Y-85100000D03*
G04 %TD@% jlc*
D20*
G04 %TO.C,R29@% jlc*
X83487500Y-124300000D03*
X85312500Y-124300000D03*
G04 %TD@% jlc*
D21*
G04 %TO.C,TP1@% jlc*
X105400000Y-121600000D03*
G04 %TD@% jlc*
D26*
G04 %TO.C,R6@% jlc*
X115900000Y-144112500D03*
X115900000Y-142287500D03*
G04 %TD@% jlc*
D34*
G04 %TO.C,C26@% jlc*
X112862500Y-71600000D03*
X111137500Y-71600000D03*
G04 %TD@% jlc*
D20*
G04 %TO.C,R31@% jlc*
X83487500Y-128500000D03*
X85312500Y-128500000D03*
G04 %TD@% jlc*
D13*
G04 %TO.C,R2@% jlc*
X108700000Y-142287500D03*
X108700000Y-144112500D03*
G04 %TD@% jlc*
D36*
G04 %TO.C,C27@% jlc*
X115537500Y-118200000D03*
X117262500Y-118200000D03*
G04 %TD@% jlc*
D21*
G04 %TO.C,TP6@% jlc*
X89200000Y-67000000D03*
G04 %TD@% jlc*
D29*
G04 %TO.C,U3@% jlc*
X119400000Y-115905000D03*
X119400000Y-114635000D03*
X119400000Y-113365000D03*
X119400000Y-112095000D03*
X112200000Y-112095000D03*
X112200000Y-113365000D03*
X112200000Y-114635000D03*
X112200000Y-115905000D03*
G04 %TD@% jlc*
D42*
G04 %TO.C,C41@% jlc*
X88000000Y-62800000D03*
X88000000Y-59200000D03*
G04 %TD@% jlc*
D43*
G04 %TO.C,RESET1@% jlc*
X96400000Y-72800000D03*
X103200000Y-72800000D03*
X96400000Y-68800000D03*
X103200000Y-68800000D03*
G04 %TD@% jlc*
D20*
G04 %TO.C,R26@% jlc*
X147287500Y-86900000D03*
X149112500Y-86900000D03*
G04 %TD@% jlc*
D44*
G04 %TO.C,C42@% jlc*
X148762500Y-59900000D03*
X145837500Y-59900000D03*
G04 %TD@% jlc*
D45*
G04 %TO.C,L2@% jlc*
X88000000Y-54862500D03*
X88000000Y-52737500D03*
G04 %TD@% jlc*
D30*
G04 %TO.C,Q3@% jlc*
X145137500Y-80350000D03*
X145137500Y-78450000D03*
X143262500Y-79400000D03*
G04 %TD@% jlc*
D12*
G04 %TO.C,R12@% jlc*
X149112500Y-84600000D03*
X147287500Y-84600000D03*
G04 %TD@% jlc*
D34*
G04 %TO.C,C18@% jlc*
X102462500Y-101200000D03*
X100737500Y-101200000D03*
G04 %TD@% jlc*
D24*
G04 %TO.C,C9@% jlc*
X113800000Y-107662500D03*
X113800000Y-105937500D03*
G04 %TD@% jlc*
D41*
G04 %TO.C,D2@% jlc*
X80000000Y-52150000D03*
X80000000Y-55450000D03*
G04 %TD@% jlc*
D16*
G04 %TO.C,C29@% jlc*
X128700000Y-142337500D03*
X128700000Y-144062500D03*
G04 %TD@% jlc*
D20*
G04 %TO.C,R20@% jlc*
X147287500Y-91100000D03*
X149112500Y-91100000D03*
G04 %TD@% jlc*
D16*
G04 %TO.C,C35@% jlc*
X124100000Y-129537500D03*
X124100000Y-131262500D03*
G04 %TD@% jlc*
D36*
G04 %TO.C,C7@% jlc*
X100737500Y-96100000D03*
X102462500Y-96100000D03*
G04 %TD@% jlc*
D16*
G04 %TO.C,C2@% jlc*
X121800000Y-77737500D03*
X121800000Y-79462500D03*
G04 %TD@% jlc*
D42*
G04 %TO.C,C43@% jlc*
X80000000Y-62800000D03*
X80000000Y-59200000D03*
G04 %TD@% jlc*
D34*
G04 %TO.C,C12@% jlc*
X130862500Y-90600000D03*
X129137500Y-90600000D03*
G04 %TD@% jlc*
D26*
G04 %TO.C,R15@% jlc*
X107300000Y-131312500D03*
X107300000Y-129487500D03*
G04 %TD@% jlc*
D46*
G04 %TO.C,U6@% jlc*
X142900000Y-57250000D03*
X142900000Y-56300000D03*
X142900000Y-55350000D03*
X140200000Y-55350000D03*
X140200000Y-56300000D03*
X140200000Y-57250000D03*
G04 %TD@% jlc*
D16*
G04 %TO.C,C21@% jlc*
X104600000Y-77737500D03*
X104600000Y-79462500D03*
G04 %TD@% jlc*
G04 %TO.C,C17@% jlc*
X114100000Y-142337500D03*
X114100000Y-144062500D03*
G04 %TD@% jlc*
D21*
G04 %TO.C,TP5@% jlc*
X140800000Y-67000000D03*
G04 %TD@% jlc*
D14*
G04 %TO.C,J6@% jlc*
X139500000Y-106300000D03*
D15*
X142040000Y-106300000D03*
X144580000Y-106300000D03*
X147120000Y-106300000D03*
G04 %TD@% jlc*
D47*
G04 %TO.C,C37@% jlc*
X130200000Y-58800000D03*
X130200000Y-63200000D03*
G04 %TD@% jlc*
D16*
G04 %TO.C,C19@% jlc*
X123800000Y-105937500D03*
X123800000Y-107662500D03*
G04 %TD@% jlc*
G04 %TO.C,C22@% jlc*
X106200000Y-77737500D03*
X106200000Y-79462500D03*
G04 %TD@% jlc*
D12*
G04 %TO.C,R21@% jlc*
X149112500Y-127200000D03*
X147287500Y-127200000D03*
G04 %TD@% jlc*
D36*
G04 %TO.C,C8@% jlc*
X100737500Y-103000000D03*
X102462500Y-103000000D03*
G04 %TD@% jlc*
D21*
G04 %TO.C,TP2@% jlc*
X113200000Y-121600000D03*
G04 %TD@% jlc*
D16*
G04 %TO.C,C15@% jlc*
X109400000Y-77737500D03*
X109400000Y-79462500D03*
G04 %TD@% jlc*
D20*
G04 %TO.C,R11@% jlc*
X147287500Y-82600000D03*
X149112500Y-82600000D03*
G04 %TD@% jlc*
D26*
G04 %TO.C,R14@% jlc*
X126700000Y-144112500D03*
X126700000Y-142287500D03*
G04 %TD@% jlc*
D20*
G04 %TO.C,R1@% jlc*
X147287500Y-74100000D03*
X149112500Y-74100000D03*
G04 %TD@% jlc*
D16*
G04 %TO.C,C1@% jlc*
X110500000Y-142337500D03*
X110500000Y-144062500D03*
G04 %TD@% jlc*
D12*
G04 %TO.C,R19@% jlc*
X149112500Y-124800000D03*
X147287500Y-124800000D03*
G04 %TD@% jlc*
D21*
G04 %TO.C,TP4@% jlc*
X134000000Y-67000000D03*
G04 %TD@% jlc*
D36*
G04 %TO.C,C23@% jlc*
X114937500Y-71600000D03*
X116662500Y-71600000D03*
G04 %TD@% jlc*
D14*
G04 %TO.C,J3@% jlc*
X159100000Y-56000000D03*
D35*
X159100000Y-58540000D03*
X159100000Y-61080000D03*
X159100000Y-63620000D03*
X159100000Y-66160000D03*
X159100000Y-68700000D03*
X159100000Y-71240000D03*
X159100000Y-73780000D03*
X159100000Y-76320000D03*
X159100000Y-78860000D03*
X159100000Y-81400000D03*
X159100000Y-83940000D03*
G04 %TD@% jlc*
D14*
G04 %TO.C,J1@% jlc*
X72100000Y-56000000D03*
D35*
X72100000Y-58540000D03*
X72100000Y-61080000D03*
X72100000Y-63620000D03*
X72100000Y-66160000D03*
X72100000Y-68700000D03*
X72100000Y-71240000D03*
X72100000Y-73780000D03*
X72100000Y-76320000D03*
X72100000Y-78860000D03*
X72100000Y-81400000D03*
X72100000Y-83940000D03*
G04 %TD@% jlc*
D14*
G04 %TO.C,J4@% jlc*
X159100000Y-112000000D03*
D35*
X159100000Y-114540000D03*
X159100000Y-117080000D03*
X159100000Y-119620000D03*
X159100000Y-122160000D03*
X159100000Y-124700000D03*
X159100000Y-127240000D03*
X159100000Y-129780000D03*
X159100000Y-132320000D03*
X159100000Y-134860000D03*
X159100000Y-137400000D03*
X159100000Y-139940000D03*
G04 %TD@% jlc*
D14*
G04 %TO.C,J2@% jlc*
X72100000Y-112000000D03*
D35*
X72100000Y-114540000D03*
X72100000Y-117080000D03*
X72100000Y-119620000D03*
X72100000Y-122160000D03*
X72100000Y-124700000D03*
X72100000Y-127240000D03*
X72100000Y-129780000D03*
X72100000Y-132320000D03*
X72100000Y-134860000D03*
X72100000Y-137400000D03*
X72100000Y-139940000D03*
G04 %TD@% jlc*
M02*
