M48
; DRILL file {KiCad (6.0.8)} date Fri Oct 21 10:36:43 2022
; FORMAT={-:-/ absolute / inch / decimal}
; #@! TF.CreationDate,2022-10-21T10:36:43+01:00
; #@! TF.GenerationSoftware,Kicad,Pcbnew,(6.0.8)
; #@! TF.FileFunction,Plated,1,4,PTH
FMAT,2
INCH
; #@! TA.AperFunction,Plated,PTH,ViaDrill
T1C0.0157
; #@! TA.AperFunction,Plated,PTH,ViaDrill
T2C0.0236
; #@! TA.AperFunction,Plated,PTH,ComponentDrill
T3C0.0394
; #@! TA.AperFunction,Plated,PTH,ComponentDrill
T4C0.0512
%
G90
G05
T1
X2.8268Y-3.8898
X2.8465Y-3.4921
X2.9409Y-5.8504
X3.0315Y-3.6181
X3.0315Y-4.2598
X3.0591Y-4.8031
X3.0945Y-2.4724
X3.0984Y-5.4134
X3.1496Y-2.5453
X3.2067Y-2.4724
X3.2244Y-4.622
X3.2244Y-4.8228
X3.2283Y-2.2362
X3.3071Y-2.0748
X3.3465Y-4.4803
X3.3937Y-3.6181
X3.3976Y-3.9705
X3.4035Y-2.3307
X3.4055Y-2.248
X3.4055Y-3.3622
X3.4134Y-5.6969
X3.4213Y-2.7638
X3.4429Y-5.1732
X3.4429Y-5.0157
X3.4488Y-3.5591
X3.4634Y-3.7862
X3.4646Y-2.248
X3.5236Y-2.3307
X3.5315Y-5.374
X3.6024Y-4.7362
X3.6063Y-3.7559
X3.6398Y-4.1929
X3.6535Y-2.9567
X3.6614Y-4.0433
X3.6929Y-2.3465
X3.6929Y-2.4154
X3.6929Y-2.4803
X3.7008Y-4.8307
X3.7087Y-3.0315
X3.7165Y-5.1535
X3.7441Y-2.3484
X3.7441Y-2.4783
X3.7559Y-3.7087
X3.7717Y-3.0945
X3.7717Y-3.5748
X3.8189Y-4.9409
X3.8228Y-4.626
X3.8425Y-5.7638
X3.8725Y-3.7613
X3.878Y-4.1929
X3.8898Y-5.0394
X3.9173Y-3.9843
X3.9173Y-4.0551
X3.9252Y-3.3504
X3.9291Y-3.5669
X3.9311Y-2.7087
X3.9567Y-4.7441
X3.9606Y-4.3543
X3.9646Y-3.7402
X4.0Y-2.5551
X4.0551Y-3.6614
X4.061Y-3.061
X4.0709Y-2.0787
X4.0886Y-5.2224
X4.1339Y-4.1929
X4.1378Y-5.7343
X4.1476Y-3.0079
X4.1496Y-2.7087
X4.1496Y-4.689
X4.189Y-3.3307
X4.189Y-3.7165
X4.189Y-5.2205
X4.189Y-5.4193
X4.2047Y-3.813
X4.2047Y-3.8583
X4.2047Y-3.937
X4.2126Y-3.0079
X4.2604Y-3.5029
X4.2618Y-3.5433
X4.2815Y-3.0059
X4.2992Y-3.5669
X4.3248Y-3.3366
X4.3346Y-2.8189
X4.3386Y-3.8346
X4.3563Y-5.0984
X4.3701Y-3.4528
X4.3701Y-4.4646
X4.375Y-4.0034
X4.4035Y-3.3366
X4.4331Y-4.2244
X4.4764Y-5.5157
X4.4921Y-5.7303
X4.5551Y-3.4567
X4.5551Y-3.8268
X4.5906Y-4.2402
X4.5945Y-5.8425
X4.6024Y-3.2992
X4.6063Y-4.1417
X4.622Y-4.0157
X4.6358Y-2.8189
X4.6378Y-3.0512
X4.6457Y-4.5118
X4.6535Y-4.4646
X4.7047Y-3.5197
X4.7047Y-3.7953
X4.7461Y-3.0551
X4.7539Y-5.7283
X4.7559Y-3.9557
X4.7638Y-2.5551
X4.7756Y-4.4449
X4.815Y-5.0551
X4.8189Y-4.0
X4.8268Y-3.2992
X4.8346Y-4.8346
X4.8701Y-5.4606
X4.8799Y-4.5709
X4.8937Y-3.4449
X4.9094Y-4.2677
X4.9094Y-5.7283
X4.9213Y-3.5866
X4.9213Y-3.7835
X4.9291Y-2.6535
X4.9764Y-4.6772
X5.0236Y-3.1575
X5.0236Y-3.2205
X5.0315Y-4.0827
X5.0335Y-5.4606
X5.0394Y-5.2205
X5.0512Y-4.3996
X5.061Y-2.4862
X5.1063Y-5.6732
X5.126Y-2.5807
X5.1496Y-5.2913
X5.1555Y-4.5059
X5.185Y-3.4094
X5.189Y-3.2539
X5.189Y-3.5669
X5.189Y-3.7638
X5.1929Y-2.4862
X5.2067Y-5.6752
X5.2559Y-4.1378
X5.2795Y-5.8346
X5.315Y-4.6575
X5.3386Y-5.4252
X5.3386Y-5.5866
X5.3543Y-5.0472
X5.3583Y-4.7598
X5.3976Y-2.2736
X5.3976Y-4.5512
X5.4409Y-3.3465
X5.4409Y-3.4173
X5.4409Y-3.4882
X5.4409Y-3.5591
X5.4409Y-4.8622
X5.4429Y-2.2283
X5.4764Y-2.8976
X5.5512Y-3.8819
X5.5827Y-2.3504
X5.5846Y-2.2815
X5.622Y-2.5433
X5.6358Y-2.2815
X5.6654Y-2.9094
X5.6732Y-2.2165
X5.685Y-4.5512
X5.7126Y-3.2165
X5.7146Y-3.376
X5.7146Y-3.5492
X5.7362Y-2.6575
X5.7402Y-3.0591
X5.7461Y-2.2992
X5.7933Y-2.2677
X5.8307Y-4.0748
X5.9134Y-3.752
X5.9173Y-2.4961
X5.9173Y-5.2717
X5.9213Y-2.2244
X5.9213Y-5.439
X5.9272Y-4.5512
X5.9291Y-4.6575
X5.9291Y-4.7559
X5.9331Y-4.8622
X5.9409Y-2.0236
X5.9409Y-2.1339
X5.9587Y-2.2244
X6.0591Y-4.5512
X6.0689Y-3.7303
X6.2362Y-3.563
X6.2913Y-5.6535
X6.3071Y-4.311
T2
X3.2199Y-4.9724
X3.2199Y-5.1378
X3.4094Y-3.7244
X4.0157Y-3.748
X4.0315Y-3.6142
X4.0709Y-3.378
X4.0866Y-4.0551
X4.1378Y-5.3543
X4.1378Y-5.5591
X4.3858Y-3.1654
X4.5197Y-4.1496
X4.5512Y-4.7165
X4.6299Y-3.1417
X4.6654Y-5.1004
X4.685Y-5.6417
X4.8504Y-3.1417
X4.9921Y-4.1732
X5.0866Y-3.2362
X5.0866Y-3.5276
X5.0866Y-3.811
X5.1535Y-5.5512
X5.9764Y-2.4016
X5.9882Y-2.9488
X5.9921Y-3.0906
X5.9921Y-3.252
X5.9921Y-3.4213
X5.9921Y-3.5866
T3
X2.8386Y-2.2047
X2.8386Y-2.3047
X2.8386Y-2.4047
X2.8386Y-2.5047
X2.8386Y-2.6047
X2.8386Y-2.7047
X2.8386Y-2.8047
X2.8386Y-2.9047
X2.8386Y-3.0047
X2.8386Y-3.1047
X2.8386Y-3.2047
X2.8386Y-3.3047
X2.8386Y-4.4094
X2.8386Y-4.5094
X2.8386Y-4.6094
X2.8386Y-4.7094
X2.8386Y-4.8094
X2.8386Y-4.9094
X2.8386Y-5.0094
X2.8386Y-5.1094
X2.8386Y-5.2094
X2.8386Y-5.3094
X2.8386Y-5.4094
X2.8386Y-5.5094
X4.3504Y-2.1702
X4.3504Y-2.2702
X4.4504Y-2.1702
X4.4504Y-2.2702
X4.5504Y-2.1702
X4.5504Y-2.2702
X4.6504Y-2.1702
X4.6504Y-2.2702
X4.7504Y-2.1702
X4.7504Y-2.2702
X4.826Y-2.8268
X4.926Y-2.8268
X5.026Y-2.8268
X5.126Y-2.8268
X5.4921Y-4.185
X5.5921Y-4.185
X5.6921Y-4.185
X5.7921Y-4.185
X6.2638Y-2.2047
X6.2638Y-2.3047
X6.2638Y-2.4047
X6.2638Y-2.5047
X6.2638Y-2.6047
X6.2638Y-2.7047
X6.2638Y-2.8047
X6.2638Y-2.9047
X6.2638Y-3.0047
X6.2638Y-3.1047
X6.2638Y-3.2047
X6.2638Y-3.3047
X6.2638Y-4.4094
X6.2638Y-4.5094
X6.2638Y-4.6094
X6.2638Y-4.7094
X6.2638Y-4.8094
X6.2638Y-4.9094
X6.2638Y-5.0094
X6.2638Y-5.1094
X6.2638Y-5.2094
X6.2638Y-5.3094
X6.2638Y-5.4094
X6.2638Y-5.5094
T4
X3.3386Y-2.6378
X3.5118Y-2.6378
X3.6772Y-2.6378
X4.1496Y-4.7874
X4.3071Y-4.7874
X4.4567Y-4.7874
X5.2756Y-2.6378
X5.5433Y-2.6378
X5.7362Y-5.7717
T0
M30
