%TF.GenerationSoftware,KiCad,Pcbnew,(6.0.8)*%
%TF.CreationDate,2022-10-21T10:36:38+01:00*%
%TF.ProjectId,Punck_Components,50756e63-6b5f-4436-9f6d-706f6e656e74,rev?*%
%TF.SameCoordinates,Original*%
%TF.FileFunction,Soldermask,Bot*%
%TF.FilePolarity,Negative*%
%FSLAX46Y46*%
G04 Gerber Fmt 4.6, Leading zero omitted, Abs format (unit mm)*
G04 Created by KiCad (PCBNEW (6.0.8)) date 2022-10-21 10:36:38*
%MOMM*%
%LPD*%
G01*
G04 APERTURE LIST*
G04 Aperture macros list*
%AMFreePoly0*
4,1,22,0.550000,-0.750000,0.000000,-0.750000,0.000000,-0.745033,-0.079941,-0.743568,-0.215256,-0.701293,-0.333266,-0.622738,-0.424486,-0.514219,-0.481581,-0.384460,-0.499164,-0.250000,-0.500000,-0.250000,-0.500000,0.250000,-0.499164,0.250000,-0.499963,0.256109,-0.478152,0.396186,-0.417904,0.524511,-0.324060,0.630769,-0.204165,0.706417,-0.067858,0.745374,0.000000,0.744959,0.000000,0.750000,
0.550000,0.750000,0.550000,-0.750000,0.550000,-0.750000,$1*%
%AMFreePoly1*
4,1,20,0.000000,0.744959,0.073905,0.744508,0.209726,0.703889,0.328688,0.626782,0.421226,0.519385,0.479903,0.390333,0.500000,0.250000,0.500000,-0.250000,0.499851,-0.262216,0.476331,-0.402017,0.414519,-0.529596,0.319384,-0.634700,0.198574,-0.708877,0.061801,-0.746166,0.000000,-0.745033,0.000000,-0.750000,-0.550000,-0.750000,-0.550000,0.750000,0.000000,0.750000,0.000000,0.744959,
0.000000,0.744959,$1*%
G04 Aperture macros list end*
%ADD10C,0.100000*%
%ADD11R,1.700000X1.700000*%
%ADD12C,1.700000*%
%ADD13C,2.000000*%
%ADD14O,1.700000X1.700000*%
%ADD15FreePoly0,90.000000*%
%ADD16R,1.500000X1.000000*%
%ADD17FreePoly1,90.000000*%
G04 APERTURE END LIST*
%TO.C,FID1*%
G36*
X160000000Y-148400000D02*
G01*
X152000000Y-148400000D01*
X152000000Y-146400000D01*
X160000000Y-146400000D01*
X160000000Y-148400000D01*
G37*
D10*
X160000000Y-148400000D02*
X152000000Y-148400000D01*
X152000000Y-146400000D01*
X160000000Y-146400000D01*
X160000000Y-148400000D01*
%TD*%
D11*
%TO.C,J7*%
X110500000Y-57662500D03*
D12*
X110500000Y-55122500D03*
X113040000Y-57662500D03*
X113040000Y-55122500D03*
X115580000Y-57662500D03*
X115580000Y-55122500D03*
X118120000Y-57662500D03*
X118120000Y-55122500D03*
X120660000Y-57662500D03*
X120660000Y-55122500D03*
%TD*%
D13*
%TO.C,TP9*%
X145700000Y-146600000D03*
%TD*%
%TO.C,TP3*%
X109400000Y-121600000D03*
%TD*%
%TO.C,TP8*%
X84800000Y-67000000D03*
%TD*%
%TO.C,TP7*%
X93400000Y-67000000D03*
%TD*%
D11*
%TO.C,J5*%
X130200000Y-71800000D03*
D14*
X127660000Y-71800000D03*
X125120000Y-71800000D03*
X122580000Y-71800000D03*
%TD*%
D13*
%TO.C,TP1*%
X105400000Y-121600000D03*
%TD*%
%TO.C,TP6*%
X89200000Y-67000000D03*
%TD*%
%TO.C,TP5*%
X140800000Y-67000000D03*
%TD*%
D11*
%TO.C,J6*%
X139500000Y-106300000D03*
D12*
X142040000Y-106300000D03*
X144580000Y-106300000D03*
X147120000Y-106300000D03*
%TD*%
D13*
%TO.C,TP2*%
X113200000Y-121600000D03*
%TD*%
%TO.C,TP4*%
X134000000Y-67000000D03*
%TD*%
D11*
%TO.C,J3*%
X159100000Y-56000000D03*
D14*
X159100000Y-58540000D03*
X159100000Y-61080000D03*
X159100000Y-63620000D03*
X159100000Y-66160000D03*
X159100000Y-68700000D03*
X159100000Y-71240000D03*
X159100000Y-73780000D03*
X159100000Y-76320000D03*
X159100000Y-78860000D03*
X159100000Y-81400000D03*
X159100000Y-83940000D03*
%TD*%
D11*
%TO.C,J1*%
X72100000Y-56000000D03*
D14*
X72100000Y-58540000D03*
X72100000Y-61080000D03*
X72100000Y-63620000D03*
X72100000Y-66160000D03*
X72100000Y-68700000D03*
X72100000Y-71240000D03*
X72100000Y-73780000D03*
X72100000Y-76320000D03*
X72100000Y-78860000D03*
X72100000Y-81400000D03*
X72100000Y-83940000D03*
%TD*%
D11*
%TO.C,J4*%
X159100000Y-112000000D03*
D14*
X159100000Y-114540000D03*
X159100000Y-117080000D03*
X159100000Y-119620000D03*
X159100000Y-122160000D03*
X159100000Y-124700000D03*
X159100000Y-127240000D03*
X159100000Y-129780000D03*
X159100000Y-132320000D03*
X159100000Y-134860000D03*
X159100000Y-137400000D03*
X159100000Y-139940000D03*
%TD*%
D11*
%TO.C,J2*%
X72100000Y-112000000D03*
D14*
X72100000Y-114540000D03*
X72100000Y-117080000D03*
X72100000Y-119620000D03*
X72100000Y-122160000D03*
X72100000Y-124700000D03*
X72100000Y-127240000D03*
X72100000Y-129780000D03*
X72100000Y-132320000D03*
X72100000Y-134860000D03*
X72100000Y-137400000D03*
X72100000Y-139940000D03*
%TD*%
D15*
%TO.C,JP1*%
X105000000Y-100300000D03*
D16*
X105000000Y-99000000D03*
D17*
X105000000Y-97700000D03*
%TD*%
M02*
