M48
; DRILL file {KiCad (6.0.8)} date Thu Oct 20 13:08:22 2022
; FORMAT={-:-/ absolute / inch / decimal}
; #@! TF.CreationDate,2022-10-20T13:08:22+01:00
; #@! TF.GenerationSoftware,Kicad,Pcbnew,(6.0.8)
; #@! TF.FileFunction,Plated,1,2,PTH
FMAT,2
INCH
; #@! TA.AperFunction,Plated,PTH,ViaDrill
T1C0.0157
; #@! TA.AperFunction,Plated,PTH,ComponentDrill
T2C0.0197
; #@! TA.AperFunction,Plated,PTH,ComponentDrill
T3C0.0236
; #@! TA.AperFunction,Plated,PTH,ComponentDrill
T4C0.0394
; #@! TA.AperFunction,Plated,PTH,ComponentDrill
T5C0.0430
%
G90
G05
T1
X2.8386Y-5.5945
X2.9055Y-2.3031
X2.9449Y-5.4094
X2.9488Y-5.622
X2.9764Y-4.3071
X3.0039Y-5.7795
X3.0394Y-6.0945
X3.0472Y-5.1614
X3.1181Y-5.563
X3.2126Y-5.7795
X3.2362Y-6.2441
X3.2913Y-5.5748
X3.315Y-6.1378
X3.4094Y-3.4488
X3.4173Y-2.7756
X3.5551Y-2.7717
X3.6535Y-5.4252
X4.0472Y-6.2441
X4.0512Y-5.7165
X4.1299Y-3.6732
X4.1378Y-3.4449
X4.248Y-3.2835
X4.2913Y-3.4449
X4.2953Y-3.6732
X4.3031Y-4.2677
X4.7638Y-3.2244
X5.0669Y-5.7165
X5.1969Y-3.7126
X5.2205Y-3.4449
X5.5118Y-2.7835
X5.6024Y-3.5472
X5.6575Y-5.7126
X5.7598Y-2.5709
X5.9016Y-2.8583
X6.0079Y-5.4764
X6.0709Y-2.6614
X6.2283Y-6.2126
X6.2913Y-3.4016
T4
X2.8386Y-2.2047
X2.8386Y-2.3047
X2.8386Y-2.4047
X2.8386Y-2.5047
X2.8386Y-2.6047
X2.8386Y-2.7047
X2.8386Y-2.8047
X2.8386Y-2.9047
X2.8386Y-3.0047
X2.8386Y-3.1047
X2.8386Y-3.2047
X2.8386Y-3.3047
X2.8386Y-4.4094
X2.8386Y-4.5094
X2.8386Y-4.6094
X2.8386Y-4.7094
X2.8386Y-4.8094
X2.8386Y-4.9094
X2.8386Y-5.0094
X2.8386Y-5.1094
X2.8386Y-5.2094
X2.8386Y-5.3094
X2.8386Y-5.4094
X2.8386Y-5.5094
X3.0512Y-2.3071
X3.0748Y-2.2087
X3.0748Y-2.4055
X3.0748Y-3.2874
X3.0748Y-4.0945
X3.0748Y-4.9016
X3.1732Y-3.2874
X3.1732Y-4.0945
X3.1732Y-4.9016
X3.2717Y-2.2087
X3.2717Y-2.4055
X3.2717Y-3.2874
X3.2717Y-4.0945
X3.2717Y-4.9016
X3.2953Y-2.3071
X3.7402Y-2.3071
X3.7638Y-2.2087
X3.7638Y-2.4055
X3.7638Y-3.2874
X3.7638Y-4.0945
X3.7638Y-4.9016
X3.8622Y-3.2874
X3.8622Y-4.0945
X3.8622Y-4.9016
X3.9606Y-2.2087
X3.9606Y-2.4055
X3.9606Y-3.2874
X3.9606Y-4.0945
X3.9606Y-4.9016
X3.9843Y-2.3071
X4.4291Y-2.3071
X4.4528Y-2.2087
X4.4528Y-2.4055
X4.4528Y-4.0945
X4.4528Y-4.9016
X4.5512Y-4.0945
X4.5512Y-4.9016
X4.6496Y-2.2087
X4.6496Y-2.4055
X4.6496Y-4.0945
X4.6496Y-4.9016
X4.6732Y-2.3071
X5.1181Y-2.3071
X5.1417Y-2.2087
X5.1417Y-2.4055
X5.1417Y-3.2874
X5.1417Y-4.0945
X5.1417Y-4.9016
X5.2402Y-3.2874
X5.2402Y-4.0945
X5.2402Y-4.9016
X5.3386Y-2.2087
X5.3386Y-2.4055
X5.3386Y-3.2874
X5.3386Y-4.0945
X5.3386Y-4.9016
X5.3622Y-2.3071
X5.8071Y-2.3071
X5.8307Y-2.2087
X5.8307Y-2.4055
X5.8307Y-3.2874
X5.8307Y-4.0945
X5.8307Y-4.9016
X5.8504Y-5.6102
X5.9291Y-3.2874
X5.9291Y-4.0945
X5.9291Y-4.9016
X5.9488Y-5.6102
X6.0276Y-2.2087
X6.0276Y-2.4055
X6.0276Y-3.2874
X6.0276Y-4.0945
X6.0276Y-4.9016
X6.0472Y-5.6102
X6.0512Y-2.3071
X6.2638Y-2.2047
X6.2638Y-2.3047
X6.2638Y-2.4047
X6.2638Y-2.5047
X6.2638Y-2.6047
X6.2638Y-2.7047
X6.2638Y-2.8047
X6.2638Y-2.9047
X6.2638Y-3.0047
X6.2638Y-3.1047
X6.2638Y-3.2047
X6.2638Y-3.3047
X6.2638Y-4.4094
X6.2638Y-4.5094
X6.2638Y-4.6094
X6.2638Y-4.7094
X6.2638Y-4.8094
X6.2638Y-4.9094
X6.2638Y-5.0094
X6.2638Y-5.1094
X6.2638Y-5.2094
X6.2638Y-5.3094
X6.2638Y-5.4094
X6.2638Y-5.5094
T5
X4.5512Y-2.8606
X4.5512Y-2.9606
X4.5512Y-3.0606
T2
G00X2.9795Y-5.2559
M15
G01X2.9795Y-5.2165
M16
G05
G00X3.3063Y-5.2559
M15
G01X3.3063Y-5.2165
M16
G05
G00X3.4283Y-5.2559
M15
G01X3.4283Y-5.2165
M16
G05
G00X3.6685Y-5.2559
M15
G01X3.6685Y-5.2165
M16
G05
G00X3.9953Y-5.2559
M15
G01X3.9953Y-5.2165
M16
G05
G00X4.1173Y-5.2559
M15
G01X4.1173Y-5.2165
M16
G05
G00X4.374Y-4.9811
M15
G01X4.3346Y-4.9811
M16
G05
G00X4.374Y-5.1031
M15
G01X4.3346Y-5.1031
M16
G05
G00X4.374Y-5.4299
M15
G01X4.3346Y-5.4299
M16
G05
G00X4.3346Y-5.7157
M15
G01X4.374Y-5.7157
M16
G05
G00X4.3346Y-6.0425
M15
G01X4.374Y-6.0425
M16
G05
G00X4.3346Y-6.1646
M15
G01X4.374Y-6.1646
M16
G05
G00X4.7677Y-4.9811
M15
G01X4.7283Y-4.9811
M16
G05
G00X4.7677Y-5.1031
M15
G01X4.7283Y-5.1031
M16
G05
G00X4.7677Y-5.4299
M15
G01X4.7283Y-5.4299
M16
G05
G00X4.7283Y-5.7157
M15
G01X4.7677Y-5.7157
M16
G05
G00X4.7283Y-6.0425
M15
G01X4.7677Y-6.0425
M16
G05
G00X4.7283Y-6.1646
M15
G01X4.7677Y-6.1646
M16
G05
G00X4.985Y-5.2165
M15
G01X4.985Y-5.2559
M16
G05
G00X5.1071Y-5.2165
M15
G01X5.1071Y-5.2559
M16
G05
G00X5.3504Y-5.7157
M15
G01X5.3898Y-5.7157
M16
G05
G00X5.3504Y-6.0425
M15
G01X5.3898Y-6.0425
M16
G05
G00X5.3504Y-6.1646
M15
G01X5.3898Y-6.1646
M16
G05
G00X5.4339Y-5.2165
M15
G01X5.4339Y-5.2559
M16
G05
G00X5.674Y-5.2165
M15
G01X5.674Y-5.2559
M16
G05
G00X5.7961Y-5.2165
M15
G01X5.7961Y-5.2559
M16
G05
G00X6.1228Y-5.2165
M15
G01X6.1228Y-5.2559
M16
G05
T3
G00X3.7283Y-5.7157
M15
G01X3.7677Y-5.7157
M16
G05
G00X3.7283Y-6.0425
M15
G01X3.7677Y-6.0425
M16
G05
G00X3.7283Y-6.1646
M15
G01X3.7677Y-6.1646
M16
G05
T0
M30
