%TF.GenerationSoftware,KiCad,Pcbnew,(6.0.8)*%
%TF.CreationDate,2022-10-20T13:08:20+01:00*%
%TF.ProjectId,Punck_Controls,50756e63-6b5f-4436-9f6e-74726f6c732e,rev?*%
%TF.SameCoordinates,Original*%
%TF.FileFunction,Legend,Bot*%
%TF.FilePolarity,Positive*%
%FSLAX46Y46*%
G04 Gerber Fmt 4.6, Leading zero omitted, Abs format (unit mm)*
G04 Created by KiCad (PCBNEW (6.0.8)) date 2022-10-20 13:08:20*
%MOMM*%
%LPD*%
G01*
G04 APERTURE LIST*
%ADD10C,0.300000*%
%ADD11C,0.150000*%
%ADD12C,0.120000*%
G04 APERTURE END LIST*
D10*
X137278571Y-67478571D02*
X137278571Y-65978571D01*
X136778571Y-67050000D01*
X136278571Y-65978571D01*
X136278571Y-67478571D01*
X135350000Y-67478571D02*
X135492857Y-67407142D01*
X135564285Y-67335714D01*
X135635714Y-67192857D01*
X135635714Y-66764285D01*
X135564285Y-66621428D01*
X135492857Y-66550000D01*
X135350000Y-66478571D01*
X135135714Y-66478571D01*
X134992857Y-66550000D01*
X134921428Y-66621428D01*
X134850000Y-66764285D01*
X134850000Y-67192857D01*
X134921428Y-67335714D01*
X134992857Y-67407142D01*
X135135714Y-67478571D01*
X135350000Y-67478571D01*
X133564285Y-66478571D02*
X133564285Y-67478571D01*
X134207142Y-66478571D02*
X134207142Y-67264285D01*
X134135714Y-67407142D01*
X133992857Y-67478571D01*
X133778571Y-67478571D01*
X133635714Y-67407142D01*
X133564285Y-67335714D01*
X132850000Y-66478571D02*
X132850000Y-67478571D01*
X132850000Y-66621428D02*
X132778571Y-66550000D01*
X132635714Y-66478571D01*
X132421428Y-66478571D01*
X132278571Y-66550000D01*
X132207142Y-66692857D01*
X132207142Y-67478571D01*
X131707142Y-66478571D02*
X131135714Y-66478571D01*
X131492857Y-65978571D02*
X131492857Y-67264285D01*
X131421428Y-67407142D01*
X131278571Y-67478571D01*
X131135714Y-67478571D01*
X130635714Y-66478571D02*
X130635714Y-67764285D01*
X130707142Y-67907142D01*
X130850000Y-67978571D01*
X130921428Y-67978571D01*
X130635714Y-65978571D02*
X130707142Y-66050000D01*
X130635714Y-66121428D01*
X130564285Y-66050000D01*
X130635714Y-65978571D01*
X130635714Y-66121428D01*
X129707142Y-67478571D02*
X129850000Y-67407142D01*
X129921428Y-67335714D01*
X129992857Y-67192857D01*
X129992857Y-66764285D01*
X129921428Y-66621428D01*
X129850000Y-66550000D01*
X129707142Y-66478571D01*
X129492857Y-66478571D01*
X129350000Y-66550000D01*
X129278571Y-66621428D01*
X129207142Y-66764285D01*
X129207142Y-67192857D01*
X129278571Y-67335714D01*
X129350000Y-67407142D01*
X129492857Y-67478571D01*
X129707142Y-67478571D01*
X128707142Y-66478571D02*
X128349999Y-67478571D01*
X127992857Y-66478571D02*
X128349999Y-67478571D01*
X128492857Y-67835714D01*
X128564285Y-67907142D01*
X128707142Y-67978571D01*
X126278571Y-67478571D02*
X126278571Y-65978571D01*
X125778571Y-67050000D01*
X125278571Y-65978571D01*
X125278571Y-67478571D01*
X124350000Y-67478571D02*
X124492857Y-67407142D01*
X124564285Y-67335714D01*
X124635714Y-67192857D01*
X124635714Y-66764285D01*
X124564285Y-66621428D01*
X124492857Y-66550000D01*
X124350000Y-66478571D01*
X124135714Y-66478571D01*
X123992857Y-66550000D01*
X123921428Y-66621428D01*
X123850000Y-66764285D01*
X123850000Y-67192857D01*
X123921428Y-67335714D01*
X123992857Y-67407142D01*
X124135714Y-67478571D01*
X124350000Y-67478571D01*
X122564285Y-67478571D02*
X122564285Y-65978571D01*
X122564285Y-67407142D02*
X122707142Y-67478571D01*
X122992857Y-67478571D01*
X123135714Y-67407142D01*
X123207142Y-67335714D01*
X123278571Y-67192857D01*
X123278571Y-66764285D01*
X123207142Y-66621428D01*
X123135714Y-66550000D01*
X122992857Y-66478571D01*
X122707142Y-66478571D01*
X122564285Y-66550000D01*
X121207142Y-66478571D02*
X121207142Y-67478571D01*
X121849999Y-66478571D02*
X121849999Y-67264285D01*
X121778571Y-67407142D01*
X121635714Y-67478571D01*
X121421428Y-67478571D01*
X121278571Y-67407142D01*
X121207142Y-67335714D01*
X120278571Y-67478571D02*
X120421428Y-67407142D01*
X120492857Y-67264285D01*
X120492857Y-65978571D01*
X119064285Y-67478571D02*
X119064285Y-66692857D01*
X119135714Y-66550000D01*
X119278571Y-66478571D01*
X119564285Y-66478571D01*
X119707142Y-66550000D01*
X119064285Y-67407142D02*
X119207142Y-67478571D01*
X119564285Y-67478571D01*
X119707142Y-67407142D01*
X119778571Y-67264285D01*
X119778571Y-67121428D01*
X119707142Y-66978571D01*
X119564285Y-66907142D01*
X119207142Y-66907142D01*
X119064285Y-66835714D01*
X118349999Y-67478571D02*
X118349999Y-66478571D01*
X118349999Y-66764285D02*
X118278571Y-66621428D01*
X118207142Y-66550000D01*
X118064285Y-66478571D01*
X117921428Y-66478571D01*
X116278571Y-67478571D02*
X116278571Y-65978571D01*
X115707142Y-65978571D01*
X115564285Y-66050000D01*
X115492857Y-66121428D01*
X115421428Y-66264285D01*
X115421428Y-66478571D01*
X115492857Y-66621428D01*
X115564285Y-66692857D01*
X115707142Y-66764285D01*
X116278571Y-66764285D01*
X114135714Y-66478571D02*
X114135714Y-67478571D01*
X114778571Y-66478571D02*
X114778571Y-67264285D01*
X114707142Y-67407142D01*
X114564285Y-67478571D01*
X114349999Y-67478571D01*
X114207142Y-67407142D01*
X114135714Y-67335714D01*
X113421428Y-66478571D02*
X113421428Y-67478571D01*
X113421428Y-66621428D02*
X113349999Y-66550000D01*
X113207142Y-66478571D01*
X112992857Y-66478571D01*
X112849999Y-66550000D01*
X112778571Y-66692857D01*
X112778571Y-67478571D01*
X111421428Y-67407142D02*
X111564285Y-67478571D01*
X111849999Y-67478571D01*
X111992857Y-67407142D01*
X112064285Y-67335714D01*
X112135714Y-67192857D01*
X112135714Y-66764285D01*
X112064285Y-66621428D01*
X111992857Y-66550000D01*
X111849999Y-66478571D01*
X111564285Y-66478571D01*
X111421428Y-66550000D01*
X110778571Y-67478571D02*
X110778571Y-65978571D01*
X110635714Y-66907142D02*
X110207142Y-67478571D01*
X110207142Y-66478571D02*
X110778571Y-67050000D01*
X107564285Y-67335714D02*
X107635714Y-67407142D01*
X107849999Y-67478571D01*
X107992857Y-67478571D01*
X108207142Y-67407142D01*
X108349999Y-67264285D01*
X108421428Y-67121428D01*
X108492857Y-66835714D01*
X108492857Y-66621428D01*
X108421428Y-66335714D01*
X108349999Y-66192857D01*
X108207142Y-66050000D01*
X107992857Y-65978571D01*
X107849999Y-65978571D01*
X107635714Y-66050000D01*
X107564285Y-66121428D01*
X106707142Y-67478571D02*
X106849999Y-67407142D01*
X106921428Y-67335714D01*
X106992857Y-67192857D01*
X106992857Y-66764285D01*
X106921428Y-66621428D01*
X106849999Y-66550000D01*
X106707142Y-66478571D01*
X106492857Y-66478571D01*
X106349999Y-66550000D01*
X106278571Y-66621428D01*
X106207142Y-66764285D01*
X106207142Y-67192857D01*
X106278571Y-67335714D01*
X106349999Y-67407142D01*
X106492857Y-67478571D01*
X106707142Y-67478571D01*
X105564285Y-66478571D02*
X105564285Y-67478571D01*
X105564285Y-66621428D02*
X105492857Y-66550000D01*
X105349999Y-66478571D01*
X105135714Y-66478571D01*
X104992857Y-66550000D01*
X104921428Y-66692857D01*
X104921428Y-67478571D01*
X104421428Y-66478571D02*
X103849999Y-66478571D01*
X104207142Y-65978571D02*
X104207142Y-67264285D01*
X104135714Y-67407142D01*
X103992857Y-67478571D01*
X103849999Y-67478571D01*
X103349999Y-67478571D02*
X103349999Y-66478571D01*
X103349999Y-66764285D02*
X103278571Y-66621428D01*
X103207142Y-66550000D01*
X103064285Y-66478571D01*
X102921428Y-66478571D01*
X102207142Y-67478571D02*
X102349999Y-67407142D01*
X102421428Y-67335714D01*
X102492857Y-67192857D01*
X102492857Y-66764285D01*
X102421428Y-66621428D01*
X102349999Y-66550000D01*
X102207142Y-66478571D01*
X101992857Y-66478571D01*
X101849999Y-66550000D01*
X101778571Y-66621428D01*
X101707142Y-66764285D01*
X101707142Y-67192857D01*
X101778571Y-67335714D01*
X101849999Y-67407142D01*
X101992857Y-67478571D01*
X102207142Y-67478571D01*
X100849999Y-67478571D02*
X100992857Y-67407142D01*
X101064285Y-67264285D01*
X101064285Y-65978571D01*
X100349999Y-67407142D02*
X100207142Y-67478571D01*
X99921428Y-67478571D01*
X99778571Y-67407142D01*
X99707142Y-67264285D01*
X99707142Y-67192857D01*
X99778571Y-67050000D01*
X99921428Y-66978571D01*
X100135714Y-66978571D01*
X100278571Y-66907142D01*
X100349999Y-66764285D01*
X100349999Y-66692857D01*
X100278571Y-66550000D01*
X100135714Y-66478571D01*
X99921428Y-66478571D01*
X99778571Y-66550000D01*
X98064285Y-66478571D02*
X97707142Y-67478571D01*
X97349999Y-66478571D01*
X95992857Y-67478571D02*
X96849999Y-67478571D01*
X96421428Y-67478571D02*
X96421428Y-65978571D01*
X96564285Y-66192857D01*
X96707142Y-66335714D01*
X96849999Y-66407142D01*
X95349999Y-67335714D02*
X95278571Y-67407142D01*
X95349999Y-67478571D01*
X95421428Y-67407142D01*
X95349999Y-67335714D01*
X95349999Y-67478571D01*
X94349999Y-65978571D02*
X94207142Y-65978571D01*
X94064285Y-66050000D01*
X93992857Y-66121428D01*
X93921428Y-66264285D01*
X93849999Y-66550000D01*
X93849999Y-66907142D01*
X93921428Y-67192857D01*
X93992857Y-67335714D01*
X94064285Y-67407142D01*
X94207142Y-67478571D01*
X94349999Y-67478571D01*
X94492857Y-67407142D01*
X94564285Y-67335714D01*
X94635714Y-67192857D01*
X94707142Y-66907142D01*
X94707142Y-66550000D01*
X94635714Y-66264285D01*
X94564285Y-66121428D01*
X94492857Y-66050000D01*
X94349999Y-65978571D01*
D11*
%TO.C,J2*%
X159433333Y-109122380D02*
X159433333Y-109836666D01*
X159480952Y-109979523D01*
X159576190Y-110074761D01*
X159719047Y-110122380D01*
X159814285Y-110122380D01*
X159004761Y-109217619D02*
X158957142Y-109170000D01*
X158861904Y-109122380D01*
X158623809Y-109122380D01*
X158528571Y-109170000D01*
X158480952Y-109217619D01*
X158433333Y-109312857D01*
X158433333Y-109408095D01*
X158480952Y-109550952D01*
X159052380Y-110122380D01*
X158433333Y-110122380D01*
%TO.C,J4*%
X72433333Y-109122380D02*
X72433333Y-109836666D01*
X72480952Y-109979523D01*
X72576190Y-110074761D01*
X72719047Y-110122380D01*
X72814285Y-110122380D01*
X71528571Y-109455714D02*
X71528571Y-110122380D01*
X71766666Y-109074761D02*
X72004761Y-109789047D01*
X71385714Y-109789047D01*
%TO.C,J3*%
X72433333Y-53122380D02*
X72433333Y-53836666D01*
X72480952Y-53979523D01*
X72576190Y-54074761D01*
X72719047Y-54122380D01*
X72814285Y-54122380D01*
X72052380Y-53122380D02*
X71433333Y-53122380D01*
X71766666Y-53503333D01*
X71623809Y-53503333D01*
X71528571Y-53550952D01*
X71480952Y-53598571D01*
X71433333Y-53693809D01*
X71433333Y-53931904D01*
X71480952Y-54027142D01*
X71528571Y-54074761D01*
X71623809Y-54122380D01*
X71909523Y-54122380D01*
X72004761Y-54074761D01*
X72052380Y-54027142D01*
%TO.C,J1*%
X159433333Y-53122380D02*
X159433333Y-53836666D01*
X159480952Y-53979523D01*
X159576190Y-54074761D01*
X159719047Y-54122380D01*
X159814285Y-54122380D01*
X158433333Y-54122380D02*
X159004761Y-54122380D01*
X158719047Y-54122380D02*
X158719047Y-53122380D01*
X158814285Y-53265238D01*
X158909523Y-53360476D01*
X159004761Y-53408095D01*
D12*
%TO.C,J2*%
X160430000Y-112000000D02*
X160430000Y-110670000D01*
X160430000Y-113270000D02*
X157770000Y-113270000D01*
X160430000Y-141270000D02*
X157770000Y-141270000D01*
X160430000Y-110670000D02*
X159100000Y-110670000D01*
X160430000Y-113270000D02*
X160430000Y-141270000D01*
X157770000Y-113270000D02*
X157770000Y-141270000D01*
%TO.C,J4*%
X73430000Y-112000000D02*
X73430000Y-110670000D01*
X73430000Y-113270000D02*
X73430000Y-141270000D01*
X70770000Y-113270000D02*
X70770000Y-141270000D01*
X73430000Y-113270000D02*
X70770000Y-113270000D01*
X73430000Y-110670000D02*
X72100000Y-110670000D01*
X73430000Y-141270000D02*
X70770000Y-141270000D01*
%TO.C,J3*%
X73430000Y-57270000D02*
X70770000Y-57270000D01*
X73430000Y-54670000D02*
X72100000Y-54670000D01*
X73430000Y-56000000D02*
X73430000Y-54670000D01*
X73430000Y-85270000D02*
X70770000Y-85270000D01*
X73430000Y-57270000D02*
X73430000Y-85270000D01*
X70770000Y-57270000D02*
X70770000Y-85270000D01*
%TO.C,J1*%
X157770000Y-57270000D02*
X157770000Y-85270000D01*
X160430000Y-57270000D02*
X160430000Y-85270000D01*
X160430000Y-56000000D02*
X160430000Y-54670000D01*
X160430000Y-57270000D02*
X157770000Y-57270000D01*
X160430000Y-54670000D02*
X159100000Y-54670000D01*
X160430000Y-85270000D02*
X157770000Y-85270000D01*
%TD*%
M02*
