M48
; DRILL file {KiCad (6.0.8)} date Thu Oct 20 13:08:22 2022
; FORMAT={-:-/ absolute / inch / decimal}
; #@! TF.CreationDate,2022-10-20T13:08:22+01:00
; #@! TF.GenerationSoftware,Kicad,Pcbnew,(6.0.8)
; #@! TF.FileFunction,NonPlated,1,2,NPTH
FMAT,2
INCH
; #@! TA.AperFunction,NonPlated,NPTH,ComponentDrill
T1C0.0787
; #@! TA.AperFunction,NonPlated,NPTH,ComponentDrill
T2C0.0984
%
G90
G05
T1
X3.0Y-3.0118
X3.0Y-3.8189
X3.0Y-4.626
X3.3465Y-3.0118
X3.3465Y-3.8189
X3.3465Y-4.626
X3.689Y-3.0118
X3.689Y-3.8189
X3.689Y-4.626
X4.0354Y-3.0118
X4.0354Y-3.8189
X4.0354Y-4.626
X4.378Y-3.8189
X4.378Y-4.626
X4.7244Y-3.8189
X4.7244Y-4.626
X5.0669Y-3.0118
X5.0669Y-3.8189
X5.0669Y-4.626
X5.4134Y-3.0118
X5.4134Y-3.8189
X5.4134Y-4.626
X5.7559Y-3.0118
X5.7559Y-3.8189
X5.7559Y-4.626
X5.7756Y-5.8858
X6.1024Y-3.0118
X6.1024Y-3.8189
X6.1024Y-4.626
X6.122Y-5.8858
T2
X3.1732Y-5.2362
X3.8622Y-5.2362
X4.3543Y-5.2362
X4.3543Y-5.9094
X4.748Y-5.2362
X4.748Y-5.9094
X5.2402Y-5.2362
X5.3701Y-5.9094
X5.9291Y-5.2362
T0
M30
