M48
; DRILL file {KiCad 8.0.1} date 2024-05-28T13:06:32+0100
; FORMAT={-:-/ absolute / inch / decimal}
; #@! TF.CreationDate,2024-05-28T13:06:32+01:00
; #@! TF.GenerationSoftware,Kicad,Pcbnew,8.0.1
; #@! TF.FileFunction,Plated,1,4,PTH
FMAT,2
INCH
; #@! TA.AperFunction,Plated,PTH,ViaDrill
T1C0.0157
; #@! TA.AperFunction,Plated,PTH,ViaDrill
T2C0.0236
; #@! TA.AperFunction,Plated,PTH,ComponentDrill
T3C0.0394
; #@! TA.AperFunction,Plated,PTH,ComponentDrill
T4C0.0512
%
G90
G05
T1
X0.0709Y-1.9213
X0.0906Y-1.5236
X0.185Y-3.8819
X0.2756Y-1.6496
X0.2756Y-2.2913
X0.3031Y-2.8346
X0.3386Y-0.5039
X0.3425Y-3.4449
X0.3937Y-0.5768
X0.4508Y-0.5039
X0.4685Y-2.6535
X0.4685Y-2.8543
X0.4724Y-0.2677
X0.5512Y-0.1063
X0.5906Y-2.5118
X0.6378Y-1.6496
X0.6417Y-2.002
X0.6476Y-0.3622
X0.6496Y-0.2795
X0.6496Y-1.3937
X0.6575Y-3.7283
X0.6654Y-0.7953
X0.687Y-3.2047
X0.687Y-3.0472
X0.6929Y-1.5906
X0.7075Y-1.8177
X0.7087Y-0.2795
X0.7677Y-0.3622
X0.7756Y-3.4055
X0.8465Y-2.7677
X0.8504Y-1.7874
X0.8839Y-2.2244
X0.8976Y-0.9882
X0.9055Y-2.0748
X0.937Y-0.378
X0.937Y-0.4469
X0.937Y-0.5118
X0.9449Y-2.8622
X0.9528Y-1.063
X0.9606Y-3.185
X0.9882Y-0.3799
X0.9882Y-0.5098
X1.0Y-1.7402
X1.0157Y-1.126
X1.0157Y-1.6063
X1.063Y-2.9724
X1.0669Y-2.6575
X1.0866Y-3.7953
X1.1166Y-1.7928
X1.122Y-2.2244
X1.1339Y-3.0709
X1.1614Y-2.0157
X1.1614Y-2.0866
X1.1693Y-1.3819
X1.1732Y-1.5984
X1.1752Y-0.7402
X1.2008Y-2.7756
X1.2047Y-2.3858
X1.2087Y-1.7717
X1.2441Y-0.5866
X1.2992Y-1.6929
X1.3051Y-1.0925
X1.315Y-0.1102
X1.3327Y-3.2539
X1.378Y-2.2244
X1.3819Y-3.7657
X1.3917Y-1.0394
X1.3937Y-0.7402
X1.3937Y-2.7205
X1.4331Y-1.3622
X1.4331Y-1.748
X1.4331Y-3.252
X1.4331Y-3.4508
X1.4488Y-1.8445
X1.4488Y-1.8898
X1.4488Y-1.9685
X1.4567Y-1.0394
X1.5045Y-1.5344
X1.5059Y-1.5748
X1.5256Y-1.0374
X1.5433Y-1.5984
X1.5689Y-1.3681
X1.5787Y-0.8504
X1.5827Y-1.8661
X1.6004Y-3.1299
X1.6142Y-1.4843
X1.6142Y-2.4961
X1.6191Y-2.0349
X1.6476Y-1.3681
X1.6772Y-2.2559
X1.7205Y-3.5472
X1.7362Y-3.7618
X1.7992Y-1.4882
X1.7992Y-1.8583
X1.8346Y-2.2717
X1.8386Y-3.874
X1.8465Y-1.3307
X1.8504Y-2.1732
X1.8661Y-2.0472
X1.8799Y-0.8504
X1.8819Y-1.0827
X1.8898Y-2.5433
X1.8976Y-2.4961
X1.9488Y-1.5512
X1.9488Y-1.8268
X1.9902Y-1.0866
X1.998Y-3.7598
X2.0Y-1.9872
X2.0079Y-0.5866
X2.0197Y-2.4764
X2.0591Y-3.0866
X2.063Y-2.0315
X2.0709Y-1.3307
X2.0787Y-2.8661
X2.1142Y-3.4921
X2.124Y-2.6024
X2.1378Y-1.4764
X2.1535Y-2.2992
X2.1535Y-3.7598
X2.1654Y-1.6181
X2.1654Y-1.815
X2.1732Y-0.685
X2.2205Y-2.7087
X2.2677Y-1.189
X2.2677Y-1.252
X2.2756Y-2.1142
X2.2776Y-3.4921
X2.2835Y-3.252
X2.2953Y-2.4311
X2.3051Y-0.5177
X2.3504Y-3.7047
X2.3701Y-0.6122
X2.3937Y-3.3228
X2.3996Y-2.5374
X2.4291Y-1.4409
X2.4331Y-1.2854
X2.4331Y-1.5984
X2.4331Y-1.7953
X2.437Y-0.5177
X2.4508Y-3.7067
X2.5Y-2.1693
X2.5236Y-3.8661
X2.5591Y-2.689
X2.5827Y-3.4567
X2.5827Y-3.6181
X2.5984Y-3.0787
X2.6024Y-2.7913
X2.6417Y-0.3051
X2.6417Y-2.5827
X2.685Y-1.378
X2.685Y-1.4488
X2.685Y-1.5197
X2.685Y-1.5906
X2.685Y-2.8937
X2.687Y-0.2598
X2.7205Y-0.9291
X2.7953Y-1.9134
X2.8268Y-0.3819
X2.8287Y-0.313
X2.8661Y-0.5748
X2.8799Y-0.313
X2.9094Y-0.9409
X2.9173Y-0.248
X2.9291Y-2.5827
X2.9567Y-1.248
X2.9587Y-1.4075
X2.9587Y-1.5807
X2.9803Y-0.689
X2.9843Y-1.0906
X2.9902Y-0.3307
X3.0374Y-0.2992
X3.0748Y-2.1063
X3.1575Y-1.7835
X3.1614Y-0.5276
X3.1614Y-3.3031
X3.1654Y-0.2559
X3.1654Y-3.4705
X3.1713Y-2.5827
X3.1732Y-2.689
X3.1732Y-2.7874
X3.1772Y-2.8937
X3.185Y-0.0551
X3.185Y-0.1654
X3.2028Y-0.2559
X3.3031Y-2.5827
X3.313Y-1.7618
X3.4803Y-1.5945
X3.5354Y-3.685
X3.5512Y-2.3425
T2
X0.464Y-3.0039
X0.464Y-3.1693
X0.6535Y-1.7559
X1.2598Y-1.7795
X1.2756Y-1.6457
X1.315Y-1.4094
X1.3307Y-2.0866
X1.3819Y-3.3858
X1.3819Y-3.5906
X1.6299Y-1.1969
X1.7638Y-2.1811
X1.7953Y-2.748
X1.874Y-1.1732
X1.9094Y-3.1319
X1.9291Y-3.6732
X2.0945Y-1.1732
X2.2362Y-2.2047
X2.3307Y-1.2677
X2.3307Y-1.5591
X2.3307Y-1.8425
X2.3976Y-3.5827
X3.2205Y-0.4331
X3.2323Y-0.9803
X3.2362Y-1.122
X3.2362Y-1.2835
X3.2362Y-1.4528
X3.2362Y-1.6181
T3
X0.0827Y-0.2362
X0.0827Y-0.3362
X0.0827Y-0.4362
X0.0827Y-0.5362
X0.0827Y-0.6362
X0.0827Y-0.7362
X0.0827Y-0.8362
X0.0827Y-0.9362
X0.0827Y-1.0362
X0.0827Y-1.1362
X0.0827Y-1.2362
X0.0827Y-1.3362
X0.0827Y-2.4409
X0.0827Y-2.5409
X0.0827Y-2.6409
X0.0827Y-2.7409
X0.0827Y-2.8409
X0.0827Y-2.9409
X0.0827Y-3.0409
X0.0827Y-3.1409
X0.0827Y-3.2409
X0.0827Y-3.3409
X0.0827Y-3.4409
X0.0827Y-3.5409
X1.5945Y-0.2017
X1.5945Y-0.3017
X1.6945Y-0.2017
X1.6945Y-0.3017
X1.7945Y-0.2017
X1.7945Y-0.3017
X1.8945Y-0.2017
X1.8945Y-0.3017
X1.9945Y-0.2017
X1.9945Y-0.3017
X2.0701Y-0.8583
X2.1701Y-0.8583
X2.2701Y-0.8583
X2.3701Y-0.8583
X2.7362Y-2.2165
X2.8362Y-2.2165
X2.9362Y-2.2165
X3.0362Y-2.2165
X3.5079Y-0.2362
X3.5079Y-0.3362
X3.5079Y-0.4362
X3.5079Y-0.5362
X3.5079Y-0.6362
X3.5079Y-0.7362
X3.5079Y-0.8362
X3.5079Y-0.9362
X3.5079Y-1.0362
X3.5079Y-1.1362
X3.5079Y-1.2362
X3.5079Y-1.3362
X3.5079Y-2.4409
X3.5079Y-2.5409
X3.5079Y-2.6409
X3.5079Y-2.7409
X3.5079Y-2.8409
X3.5079Y-2.9409
X3.5079Y-3.0409
X3.5079Y-3.1409
X3.5079Y-3.2409
X3.5079Y-3.3409
X3.5079Y-3.4409
X3.5079Y-3.5409
T4
X0.5827Y-0.6693
X0.7559Y-0.6693
X0.9213Y-0.6693
X1.3937Y-2.8189
X1.5512Y-2.8189
X1.7008Y-2.8189
X2.5197Y-0.6693
X2.7874Y-0.6693
X2.9803Y-3.8031
M30
