%TF.GenerationSoftware,KiCad,Pcbnew,8.0.1*%
%TF.CreationDate,2024-05-28T14:14:54+01:00*%
%TF.ProjectId,Punck_Components,50756e63-6b5f-4436-9f6d-706f6e656e74,rev?*%
%TF.SameCoordinates,Original*%
%TF.FileFunction,Legend,Bot*%
%TF.FilePolarity,Positive*%
%FSLAX46Y46*%
G04 Gerber Fmt 4.6, Leading zero omitted, Abs format (unit mm)*
G04 Created by KiCad (PCBNEW 8.0.1) date 2024-05-28 14:14:54*
%MOMM*%
%LPD*%
G01*
G04 APERTURE LIST*
G04 Aperture macros list*
%AMFreePoly0*
4,1,19,0.550000,-0.750000,0.000000,-0.750000,0.000000,-0.744911,-0.071157,-0.744911,-0.207708,-0.704816,-0.327430,-0.627875,-0.420627,-0.520320,-0.479746,-0.390866,-0.500000,-0.250000,-0.500000,0.250000,-0.479746,0.390866,-0.420627,0.520320,-0.327430,0.627875,-0.207708,0.704816,-0.071157,0.744911,0.000000,0.744911,0.000000,0.750000,0.550000,0.750000,0.550000,-0.750000,0.550000,-0.750000,
$1*%
%AMFreePoly1*
4,1,19,0.000000,0.744911,0.071157,0.744911,0.207708,0.704816,0.327430,0.627875,0.420627,0.520320,0.479746,0.390866,0.500000,0.250000,0.500000,-0.250000,0.479746,-0.390866,0.420627,-0.520320,0.327430,-0.627875,0.207708,-0.704816,0.071157,-0.744911,0.000000,-0.744911,0.000000,-0.750000,-0.550000,-0.750000,-0.550000,0.750000,0.000000,0.750000,0.000000,0.744911,0.000000,0.744911,
$1*%
G04 Aperture macros list end*
%ADD10C,0.150000*%
%ADD11C,0.120000*%
%ADD12C,0.100000*%
%ADD13R,1.700000X1.700000*%
%ADD14C,1.700000*%
%ADD15C,2.000000*%
%ADD16O,1.700000X1.700000*%
%ADD17FreePoly0,90.000000*%
%ADD18R,1.500000X1.000000*%
%ADD19FreePoly1,90.000000*%
G04 APERTURE END LIST*
D10*
X32914285Y-50654819D02*
X32914285Y-49654819D01*
X32914285Y-50131009D02*
X32342857Y-50131009D01*
X32342857Y-50654819D02*
X32342857Y-49654819D01*
X31961904Y-49654819D02*
X31295238Y-49654819D01*
X31295238Y-49654819D02*
X31723809Y-50654819D01*
X30485714Y-49988152D02*
X30485714Y-50654819D01*
X30723809Y-49607200D02*
X30961904Y-50321485D01*
X30961904Y-50321485D02*
X30342857Y-50321485D01*
X30057142Y-49654819D02*
X29438095Y-49654819D01*
X29438095Y-49654819D02*
X29771428Y-50035771D01*
X29771428Y-50035771D02*
X29628571Y-50035771D01*
X29628571Y-50035771D02*
X29533333Y-50083390D01*
X29533333Y-50083390D02*
X29485714Y-50131009D01*
X29485714Y-50131009D02*
X29438095Y-50226247D01*
X29438095Y-50226247D02*
X29438095Y-50464342D01*
X29438095Y-50464342D02*
X29485714Y-50559580D01*
X29485714Y-50559580D02*
X29533333Y-50607200D01*
X29533333Y-50607200D02*
X29628571Y-50654819D01*
X29628571Y-50654819D02*
X29914285Y-50654819D01*
X29914285Y-50654819D02*
X30009523Y-50607200D01*
X30009523Y-50607200D02*
X30057142Y-50559580D01*
X32914285Y-48254819D02*
X32914285Y-47254819D01*
X32914285Y-47731009D02*
X32342857Y-47731009D01*
X32342857Y-48254819D02*
X32342857Y-47254819D01*
X31961904Y-47254819D02*
X31295238Y-47254819D01*
X31295238Y-47254819D02*
X31723809Y-48254819D01*
X30961904Y-47350057D02*
X30914285Y-47302438D01*
X30914285Y-47302438D02*
X30819047Y-47254819D01*
X30819047Y-47254819D02*
X30580952Y-47254819D01*
X30580952Y-47254819D02*
X30485714Y-47302438D01*
X30485714Y-47302438D02*
X30438095Y-47350057D01*
X30438095Y-47350057D02*
X30390476Y-47445295D01*
X30390476Y-47445295D02*
X30390476Y-47540533D01*
X30390476Y-47540533D02*
X30438095Y-47683390D01*
X30438095Y-47683390D02*
X31009523Y-48254819D01*
X31009523Y-48254819D02*
X30390476Y-48254819D01*
X30057142Y-47254819D02*
X29438095Y-47254819D01*
X29438095Y-47254819D02*
X29771428Y-47635771D01*
X29771428Y-47635771D02*
X29628571Y-47635771D01*
X29628571Y-47635771D02*
X29533333Y-47683390D01*
X29533333Y-47683390D02*
X29485714Y-47731009D01*
X29485714Y-47731009D02*
X29438095Y-47826247D01*
X29438095Y-47826247D02*
X29438095Y-48064342D01*
X29438095Y-48064342D02*
X29485714Y-48159580D01*
X29485714Y-48159580D02*
X29533333Y-48207200D01*
X29533333Y-48207200D02*
X29628571Y-48254819D01*
X29628571Y-48254819D02*
X29914285Y-48254819D01*
X29914285Y-48254819D02*
X30009523Y-48207200D01*
X30009523Y-48207200D02*
X30057142Y-48159580D01*
X89433333Y-3124819D02*
X89433333Y-3839104D01*
X89433333Y-3839104D02*
X89480952Y-3981961D01*
X89480952Y-3981961D02*
X89576190Y-4077200D01*
X89576190Y-4077200D02*
X89719047Y-4124819D01*
X89719047Y-4124819D02*
X89814285Y-4124819D01*
X89052380Y-3124819D02*
X88433333Y-3124819D01*
X88433333Y-3124819D02*
X88766666Y-3505771D01*
X88766666Y-3505771D02*
X88623809Y-3505771D01*
X88623809Y-3505771D02*
X88528571Y-3553390D01*
X88528571Y-3553390D02*
X88480952Y-3601009D01*
X88480952Y-3601009D02*
X88433333Y-3696247D01*
X88433333Y-3696247D02*
X88433333Y-3934342D01*
X88433333Y-3934342D02*
X88480952Y-4029580D01*
X88480952Y-4029580D02*
X88528571Y-4077200D01*
X88528571Y-4077200D02*
X88623809Y-4124819D01*
X88623809Y-4124819D02*
X88909523Y-4124819D01*
X88909523Y-4124819D02*
X89004761Y-4077200D01*
X89004761Y-4077200D02*
X89052380Y-4029580D01*
X2433333Y-3124819D02*
X2433333Y-3839104D01*
X2433333Y-3839104D02*
X2480952Y-3981961D01*
X2480952Y-3981961D02*
X2576190Y-4077200D01*
X2576190Y-4077200D02*
X2719047Y-4124819D01*
X2719047Y-4124819D02*
X2814285Y-4124819D01*
X1433333Y-4124819D02*
X2004761Y-4124819D01*
X1719047Y-4124819D02*
X1719047Y-3124819D01*
X1719047Y-3124819D02*
X1814285Y-3267676D01*
X1814285Y-3267676D02*
X1909523Y-3362914D01*
X1909523Y-3362914D02*
X2004761Y-3410533D01*
X89433333Y-59124819D02*
X89433333Y-59839104D01*
X89433333Y-59839104D02*
X89480952Y-59981961D01*
X89480952Y-59981961D02*
X89576190Y-60077200D01*
X89576190Y-60077200D02*
X89719047Y-60124819D01*
X89719047Y-60124819D02*
X89814285Y-60124819D01*
X88528571Y-59458152D02*
X88528571Y-60124819D01*
X88766666Y-59077200D02*
X89004761Y-59791485D01*
X89004761Y-59791485D02*
X88385714Y-59791485D01*
X2433333Y-59124819D02*
X2433333Y-59839104D01*
X2433333Y-59839104D02*
X2480952Y-59981961D01*
X2480952Y-59981961D02*
X2576190Y-60077200D01*
X2576190Y-60077200D02*
X2719047Y-60124819D01*
X2719047Y-60124819D02*
X2814285Y-60124819D01*
X2004761Y-59220057D02*
X1957142Y-59172438D01*
X1957142Y-59172438D02*
X1861904Y-59124819D01*
X1861904Y-59124819D02*
X1623809Y-59124819D01*
X1623809Y-59124819D02*
X1528571Y-59172438D01*
X1528571Y-59172438D02*
X1480952Y-59220057D01*
X1480952Y-59220057D02*
X1433333Y-59315295D01*
X1433333Y-59315295D02*
X1433333Y-59410533D01*
X1433333Y-59410533D02*
X1480952Y-59553390D01*
X1480952Y-59553390D02*
X2052380Y-60124819D01*
X2052380Y-60124819D02*
X1433333Y-60124819D01*
D11*
%TO.C,J3*%
X87770000Y-7270000D02*
X87770000Y-35270000D01*
X90430000Y-4670000D02*
X89100000Y-4670000D01*
X90430000Y-6000000D02*
X90430000Y-4670000D01*
X90430000Y-7270000D02*
X87770000Y-7270000D01*
X90430000Y-7270000D02*
X90430000Y-35270000D01*
X90430000Y-35270000D02*
X87770000Y-35270000D01*
%TO.C,J1*%
X770000Y-7270000D02*
X770000Y-35270000D01*
X3430000Y-4670000D02*
X2100000Y-4670000D01*
X3430000Y-6000000D02*
X3430000Y-4670000D01*
X3430000Y-7270000D02*
X770000Y-7270000D01*
X3430000Y-7270000D02*
X3430000Y-35270000D01*
X3430000Y-35270000D02*
X770000Y-35270000D01*
%TO.C,J4*%
X87770000Y-63270000D02*
X87770000Y-91270000D01*
X90430000Y-60670000D02*
X89100000Y-60670000D01*
X90430000Y-62000000D02*
X90430000Y-60670000D01*
X90430000Y-63270000D02*
X87770000Y-63270000D01*
X90430000Y-63270000D02*
X90430000Y-91270000D01*
X90430000Y-91270000D02*
X87770000Y-91270000D01*
%TO.C,J2*%
X770000Y-63270000D02*
X770000Y-91270000D01*
X3430000Y-60670000D02*
X2100000Y-60670000D01*
X3430000Y-62000000D02*
X3430000Y-60670000D01*
X3430000Y-63270000D02*
X770000Y-63270000D01*
X3430000Y-63270000D02*
X3430000Y-91270000D01*
X3430000Y-91270000D02*
X770000Y-91270000D01*
%TO.C,JP1*%
X33500000Y-50500000D02*
X33500000Y-49900000D01*
X33800000Y-50200000D02*
X33500000Y-49900000D01*
X33800000Y-50200000D02*
X33500000Y-50500000D01*
X34000000Y-47600000D02*
X34000000Y-50400000D01*
X34700000Y-51050000D02*
X35300000Y-51050000D01*
X35300000Y-46950000D02*
X34700000Y-46950000D01*
X36000000Y-50400000D02*
X36000000Y-47600000D01*
X34000000Y-47650000D02*
G75*
G02*
X34700000Y-46950000I700000J0D01*
G01*
X34700000Y-51050000D02*
G75*
G02*
X34000000Y-50350000I-1J699999D01*
G01*
X35300000Y-46950000D02*
G75*
G02*
X36000000Y-47650000I0J-700000D01*
G01*
X36000000Y-50350000D02*
G75*
G02*
X35300000Y-51050000I-699999J-1D01*
G01*
%TD*%
%LPC*%
D12*
%TO.C,FID1*%
X90000000Y-98400000D02*
X82000000Y-98400000D01*
X82000000Y-96400000D01*
X90000000Y-96400000D01*
X90000000Y-98400000D01*
G36*
X90000000Y-98400000D02*
G01*
X82000000Y-98400000D01*
X82000000Y-96400000D01*
X90000000Y-96400000D01*
X90000000Y-98400000D01*
G37*
%TD*%
D13*
%TO.C,J7*%
X40500000Y-7662500D03*
D14*
X40500000Y-5122500D03*
X43040000Y-7662500D03*
X43040000Y-5122500D03*
X45580000Y-7662500D03*
X45580000Y-5122500D03*
X48120000Y-7662500D03*
X48120000Y-5122500D03*
X50660000Y-7662500D03*
X50660000Y-5122500D03*
%TD*%
D15*
%TO.C,TP9*%
X75700000Y-96600000D03*
%TD*%
%TO.C,TP3*%
X39400000Y-71600000D03*
%TD*%
%TO.C,TP8*%
X14800000Y-17000000D03*
%TD*%
%TO.C,TP7*%
X23400000Y-17000000D03*
%TD*%
D13*
%TO.C,J5*%
X60200000Y-21800000D03*
D16*
X57660000Y-21800000D03*
X55120000Y-21800000D03*
X52580000Y-21800000D03*
%TD*%
D15*
%TO.C,TP1*%
X35400000Y-71600000D03*
%TD*%
%TO.C,TP6*%
X19200000Y-17000000D03*
%TD*%
%TO.C,TP5*%
X70800000Y-17000000D03*
%TD*%
D13*
%TO.C,J6*%
X69500000Y-56300000D03*
D14*
X72040000Y-56300000D03*
X74580000Y-56300000D03*
X77120000Y-56300000D03*
%TD*%
D15*
%TO.C,TP2*%
X43200000Y-71600000D03*
%TD*%
%TO.C,TP4*%
X64000000Y-17000000D03*
%TD*%
D13*
%TO.C,J3*%
X89100000Y-6000000D03*
D16*
X89100000Y-8540000D03*
X89100000Y-11080000D03*
X89100000Y-13620000D03*
X89100000Y-16160000D03*
X89100000Y-18700000D03*
X89100000Y-21240000D03*
X89100000Y-23780000D03*
X89100000Y-26320000D03*
X89100000Y-28860000D03*
X89100000Y-31400000D03*
X89100000Y-33940000D03*
%TD*%
D13*
%TO.C,J1*%
X2100000Y-6000000D03*
D16*
X2100000Y-8540000D03*
X2100000Y-11080000D03*
X2100000Y-13620000D03*
X2100000Y-16160000D03*
X2100000Y-18700000D03*
X2100000Y-21240000D03*
X2100000Y-23780000D03*
X2100000Y-26320000D03*
X2100000Y-28860000D03*
X2100000Y-31400000D03*
X2100000Y-33940000D03*
%TD*%
D13*
%TO.C,J4*%
X89100000Y-62000000D03*
D16*
X89100000Y-64540000D03*
X89100000Y-67080000D03*
X89100000Y-69620000D03*
X89100000Y-72160000D03*
X89100000Y-74700000D03*
X89100000Y-77240000D03*
X89100000Y-79780000D03*
X89100000Y-82320000D03*
X89100000Y-84860000D03*
X89100000Y-87400000D03*
X89100000Y-89940000D03*
%TD*%
D13*
%TO.C,J2*%
X2100000Y-62000000D03*
D16*
X2100000Y-64540000D03*
X2100000Y-67080000D03*
X2100000Y-69620000D03*
X2100000Y-72160000D03*
X2100000Y-74700000D03*
X2100000Y-77240000D03*
X2100000Y-79780000D03*
X2100000Y-82320000D03*
X2100000Y-84860000D03*
X2100000Y-87400000D03*
X2100000Y-89940000D03*
%TD*%
D17*
%TO.C,JP1*%
X35000000Y-50300000D03*
D18*
X35000000Y-49000000D03*
D19*
X35000000Y-47700000D03*
%TD*%
%LPD*%
M02*
